<svg xmlns="http://www.w3.org/2000/svg" xmlns:xlink="http://www.w3.org/1999/xlink" version="1.1" class="marks" width="760" height="364" viewBox="0 0 760 364"><rect width="760" height="364" fill="white"/><g fill="none" stroke-miterlimit="10" transform="translate(47,27)"><g class="mark-group role-frame root" role="graphics-object" aria-roledescription="group mark container"><g transform="translate(0,0)"><path class="background" aria-hidden="true" d="M0.5,0.5h600v300h-600Z" stroke="#ddd"/><g><g class="mark-group role-axis" aria-hidden="true"><g transform="translate(0.5,300.5)"><path class="background" aria-hidden="true" d="M0,0h0v0h0Z" pointer-events="none"/><g><g class="mark-rule role-axis-grid" pointer-events="none"><line transform="translate(0,-300)" x2="0" y2="300" stroke="#ddd" stroke-width="1" opacity="1"/><line transform="translate(30,-300)" x2="0" y2="300" stroke="#ddd" stroke-width="1" opacity="1"/><line transform="translate(60,-300)" x2="0" y2="300" stroke="#ddd" stroke-width="1" opacity="1"/><line transform="translate(90,-300)" x2="0" y2="300" stroke="#ddd" stroke-width="1" opacity="1"/><line transform="translate(120,-300)" x2="0" y2="300" stroke="#ddd" stroke-width="1" opacity="1"/><line transform="translate(150,-300)" x2="0" y2="300" stroke="#ddd" stroke-width="1" opacity="1"/><line transform="translate(180,-300)" x2="0" y2="300" stroke="#ddd" stroke-width="1" opacity="1"/><line transform="translate(210,-300)" x2="0" y2="300" stroke="#ddd" stroke-width="1" opacity="1"/><line transform="translate(240,-300)" x2="0" y2="300" stroke="#ddd" stroke-width="1" opacity="1"/><line transform="translate(270,-300)" x2="0" y2="300" stroke="#ddd" stroke-width="1" opacity="1"/><line transform="translate(300,-300)" x2="0" y2="300" stroke="#ddd" stroke-width="1" opacity="1"/><line transform="translate(330,-300)" x2="0" y2="300" stroke="#ddd" stroke-width="1" opacity="1"/><line transform="translate(360,-300)" x2="0" y2="300" stroke="#ddd" stroke-width="1" opacity="1"/><line transform="translate(390,-300)" x2="0" y2="300" stroke="#ddd" stroke-width="1" opacity="1"/><line transform="translate(420,-300)" x2="0" y2="300" stroke="#ddd" stroke-width="1" opacity="1"/><line transform="translate(450,-300)" x2="0" y2="300" stroke="#ddd" stroke-width="1" opacity="1"/><line transform="translate(480,-300)" x2="0" y2="300" stroke="#ddd" stroke-width="1" opacity="1"/><line transform="translate(510,-300)" x2="0" y2="300" stroke="#ddd" stroke-width="1" opacity="1"/><line transform="translate(540,-300)" x2="0" y2="300" stroke="#ddd" stroke-width="1" opacity="1"/><line transform="translate(570,-300)" x2="0" y2="300" stroke="#ddd" stroke-width="1" opacity="1"/><line transform="translate(600,-300)" x2="0" y2="300" stroke="#ddd" stroke-width="1" opacity="1"/></g></g><path class="foreground" aria-hidden="true" d="" pointer-events="none" display="none"/></g></g><g class="mark-group role-axis" aria-hidden="true"><g transform="translate(0.5,0.5)"><path class="background" aria-hidden="true" d="M0,0h0v0h0Z" pointer-events="none"/><g><g class="mark-rule role-axis-grid" pointer-events="none"><line transform="translate(0,300)" x2="600" y2="0" stroke="#ddd" stroke-width="1" opacity="1"/><line transform="translate(0,250)" x2="600" y2="0" stroke="#ddd" stroke-width="1" opacity="1"/><line transform="translate(0,200)" x2="600" y2="0" stroke="#ddd" stroke-width="1" opacity="1"/><line transform="translate(0,150)" x2="600" y2="0" stroke="#ddd" stroke-width="1" opacity="1"/><line transform="translate(0,100)" x2="600" y2="0" stroke="#ddd" stroke-width="1" opacity="1"/><line transform="translate(0,50)" x2="600" y2="0" stroke="#ddd" stroke-width="1" opacity="1"/><line transform="translate(0,0)" x2="600" y2="0" stroke="#ddd" stroke-width="1" opacity="1"/></g></g><path class="foreground" aria-hidden="true" d="" pointer-events="none" display="none"/></g></g><g class="mark-group role-axis" role="graphics-symbol" aria-roledescription="axis" aria-label="X-axis titled 'Model Iterations' for a linear scale with values from 0 to 1,000"><g transform="translate(0.5,300.5)"><path class="background" aria-hidden="true" d="M0,0h0v0h0Z" pointer-events="none"/><g><g class="mark-rule role-axis-tick" pointer-events="none"><line transform="translate(0,0)" x2="0" y2="5" stroke="#888" stroke-width="1" opacity="1"/><line transform="translate(30,0)" x2="0" y2="5" stroke="#888" stroke-width="1" opacity="1"/><line transform="translate(60,0)" x2="0" y2="5" stroke="#888" stroke-width="1" opacity="1"/><line transform="translate(90,0)" x2="0" y2="5" stroke="#888" stroke-width="1" opacity="1"/><line transform="translate(120,0)" x2="0" y2="5" stroke="#888" stroke-width="1" opacity="1"/><line transform="translate(150,0)" x2="0" y2="5" stroke="#888" stroke-width="1" opacity="1"/><line transform="translate(180,0)" x2="0" y2="5" stroke="#888" stroke-width="1" opacity="1"/><line transform="translate(210,0)" x2="0" y2="5" stroke="#888" stroke-width="1" opacity="1"/><line transform="translate(240,0)" x2="0" y2="5" stroke="#888" stroke-width="1" opacity="1"/><line transform="translate(270,0)" x2="0" y2="5" stroke="#888" stroke-width="1" opacity="1"/><line transform="translate(300,0)" x2="0" y2="5" stroke="#888" stroke-width="1" opacity="1"/><line transform="translate(330,0)" x2="0" y2="5" stroke="#888" stroke-width="1" opacity="1"/><line transform="translate(360,0)" x2="0" y2="5" stroke="#888" stroke-width="1" opacity="1"/><line transform="translate(390,0)" x2="0" y2="5" stroke="#888" stroke-width="1" opacity="1"/><line transform="translate(420,0)" x2="0" y2="5" stroke="#888" stroke-width="1" opacity="1"/><line transform="translate(450,0)" x2="0" y2="5" stroke="#888" stroke-width="1" opacity="1"/><line transform="translate(480,0)" x2="0" y2="5" stroke="#888" stroke-width="1" opacity="1"/><line transform="translate(510,0)" x2="0" y2="5" stroke="#888" stroke-width="1" opacity="1"/><line transform="translate(540,0)" x2="0" y2="5" stroke="#888" stroke-width="1" opacity="1"/><line transform="translate(570,0)" x2="0" y2="5" stroke="#888" stroke-width="1" opacity="1"/><line transform="translate(600,0)" x2="0" y2="5" stroke="#888" stroke-width="1" opacity="1"/></g><g class="mark-text role-axis-label" pointer-events="none"><text text-anchor="start" transform="translate(0,15)" font-family="sans-serif" font-size="10px" fill="#000" opacity="1">0</text><text text-anchor="middle" transform="translate(30,15)" font-family="sans-serif" font-size="10px" fill="#000" opacity="0">50</text><text text-anchor="middle" transform="translate(60,15)" font-family="sans-serif" font-size="10px" fill="#000" opacity="1">100</text><text text-anchor="middle" transform="translate(90,15)" font-family="sans-serif" font-size="10px" fill="#000" opacity="0">150</text><text text-anchor="middle" transform="translate(120,15)" font-family="sans-serif" font-size="10px" fill="#000" opacity="1">200</text><text text-anchor="middle" transform="translate(150,15)" font-family="sans-serif" font-size="10px" fill="#000" opacity="0">250</text><text text-anchor="middle" transform="translate(180,15)" font-family="sans-serif" font-size="10px" fill="#000" opacity="1">300</text><text text-anchor="middle" transform="translate(210,15)" font-family="sans-serif" font-size="10px" fill="#000" opacity="0">350</text><text text-anchor="middle" transform="translate(240,15)" font-family="sans-serif" font-size="10px" fill="#000" opacity="1">400</text><text text-anchor="middle" transform="translate(270,15)" font-family="sans-serif" font-size="10px" fill="#000" opacity="0">450</text><text text-anchor="middle" transform="translate(300,15)" font-family="sans-serif" font-size="10px" fill="#000" opacity="1">500</text><text text-anchor="middle" transform="translate(330,15)" font-family="sans-serif" font-size="10px" fill="#000" opacity="0">550</text><text text-anchor="middle" transform="translate(360,15)" font-family="sans-serif" font-size="10px" fill="#000" opacity="1">600</text><text text-anchor="middle" transform="translate(390,15)" font-family="sans-serif" font-size="10px" fill="#000" opacity="0">650</text><text text-anchor="middle" transform="translate(420,15)" font-family="sans-serif" font-size="10px" fill="#000" opacity="1">700</text><text text-anchor="middle" transform="translate(450,15)" font-family="sans-serif" font-size="10px" fill="#000" opacity="0">750</text><text text-anchor="middle" transform="translate(480,15)" font-family="sans-serif" font-size="10px" fill="#000" opacity="1">800</text><text text-anchor="middle" transform="translate(510,15)" font-family="sans-serif" font-size="10px" fill="#000" opacity="0">850</text><text text-anchor="middle" transform="translate(540,15)" font-family="sans-serif" font-size="10px" fill="#000" opacity="1">900</text><text text-anchor="middle" transform="translate(570,15)" font-family="sans-serif" font-size="10px" fill="#000" opacity="0">950</text><text text-anchor="end" transform="translate(600,15)" font-family="sans-serif" font-size="10px" fill="#000" opacity="1">1,000</text></g><g class="mark-rule role-axis-domain" pointer-events="none"><line transform="translate(0,0)" x2="600" y2="0" stroke="#888" stroke-width="1" opacity="1"/></g><g class="mark-text role-axis-title" pointer-events="none"><text text-anchor="middle" transform="translate(300,30)" font-family="sans-serif" font-size="11px" font-weight="bold" fill="#000" opacity="1">Model Iterations</text></g></g><path class="foreground" aria-hidden="true" d="" pointer-events="none" display="none"/></g></g><g class="mark-group role-axis" role="graphics-symbol" aria-roledescription="axis" aria-label="Y-axis titled 'Normalized Discounted Cumulative Gain' for a linear scale with values from 0.70 to 1.00"><g transform="translate(0.5,0.5)"><path class="background" aria-hidden="true" d="M0,0h0v0h0Z" pointer-events="none"/><g><g class="mark-rule role-axis-tick" pointer-events="none"><line transform="translate(0,300)" x2="-5" y2="0" stroke="#888" stroke-width="1" opacity="1"/><line transform="translate(0,250)" x2="-5" y2="0" stroke="#888" stroke-width="1" opacity="1"/><line transform="translate(0,200)" x2="-5" y2="0" stroke="#888" stroke-width="1" opacity="1"/><line transform="translate(0,150)" x2="-5" y2="0" stroke="#888" stroke-width="1" opacity="1"/><line transform="translate(0,100)" x2="-5" y2="0" stroke="#888" stroke-width="1" opacity="1"/><line transform="translate(0,50)" x2="-5" y2="0" stroke="#888" stroke-width="1" opacity="1"/><line transform="translate(0,0)" x2="-5" y2="0" stroke="#888" stroke-width="1" opacity="1"/></g><g class="mark-text role-axis-label" pointer-events="none"><text text-anchor="end" transform="translate(-7,303)" font-family="sans-serif" font-size="10px" fill="#000" opacity="1">0.70</text><text text-anchor="end" transform="translate(-7,252.99999999999997)" font-family="sans-serif" font-size="10px" fill="#000" opacity="1">0.75</text><text text-anchor="end" transform="translate(-7,202.99999999999991)" font-family="sans-serif" font-size="10px" fill="#000" opacity="1">0.80</text><text text-anchor="end" transform="translate(-7,153)" font-family="sans-serif" font-size="10px" fill="#000" opacity="1">0.85</text><text text-anchor="end" transform="translate(-7,102.99999999999997)" font-family="sans-serif" font-size="10px" fill="#000" opacity="1">0.90</text><text text-anchor="end" transform="translate(-7,53.00000000000002)" font-family="sans-serif" font-size="10px" fill="#000" opacity="1">0.95</text><text text-anchor="end" transform="translate(-7,3)" font-family="sans-serif" font-size="10px" fill="#000" opacity="1">1.00</text></g><g class="mark-rule role-axis-domain" pointer-events="none"><line transform="translate(0,300)" x2="0" y2="-300" stroke="#888" stroke-width="1" opacity="1"/></g><g class="mark-text role-axis-title" pointer-events="none"><text text-anchor="middle" transform="translate(-30.462890625,150) rotate(-90) translate(0,-2)" font-family="sans-serif" font-size="11px" font-weight="bold" fill="#000" opacity="1">Normalized Discounted Cumulative Gain</text></g></g><path class="foreground" aria-hidden="true" d="" pointer-events="none" display="none"/></g></g><g class="mark-group role-scope pathgroup" role="graphics-object" aria-roledescription="group mark container"><g transform="translate(0,0)"><path class="background" aria-hidden="true" d="M0,0h600v300h-600Z"/><g><g class="mark-line role-mark marks" role="graphics-object" aria-roledescription="line mark container"><path aria-label="Model Iterations: 0; Normalized Discounted Cumulative Gain: 0.765893843535; Truncation Level: 1" role="graphics-symbol" aria-roledescription="line mark" d="M0,234.106L0.6,291.953L1.2,242.5L1.8,218.22L2.4,226.483L3,248.694L3.6,225.967L4.2,226.097L4.8,209.569L5.4,217.704L6,242.493L6.6,234.225L7.2,242.489L7.8,234.229L8.4,225.965L9,217.7L9.6,217.7L10.2,201.304L10.8,201.304L11.4,201.304L12,201.304L12.6,193.04L13.2,193.04L13.8,217.825L14.4,193.036L15,192.907L15.6,192.911L16.2,184.647L16.8,185.164L17.4,201.563L18,201.563L18.6,217.575L19.2,217.575L19.8,217.575L20.4,217.575L21,217.575L21.6,217.575L22.2,209.311L22.8,225.836L23.4,225.836L24,225.836L24.6,234.1L25.2,234.1L25.8,217.575L26.4,217.575L27,217.575L27.6,209.311L28.2,217.575L28.8,217.575L29.4,217.575L30,217.575L30.6,217.575L31.2,225.84L31.8,234.104L32.4,217.576L33,217.576L33.6,225.84L34.2,234.072L34.8,234.072L35.4,234.072L36,234.072L36.6,234.072L37.2,234.072L37.8,234.072L38.4,225.808L39,225.808L39.6,217.543L40.2,217.543L40.8,225.806L41.4,225.806L42,217.543L42.6,217.543L43.2,217.543L43.8,217.543L44.4,225.806L45,225.806L45.6,225.806L46.2,225.806L46.8,225.806L47.4,225.806L48,225.806L48.6,225.806L49.2,225.806L49.8,234.07L50.4,234.07L51,217.541L51.6,217.541L52.2,225.808L52.8,225.808L53.4,225.808L54,225.808L54.6,225.808L55.2,217.543L55.8,217.543L56.4,217.543L57,217.543L57.6,225.808L58.2,225.808L58.8,225.808L59.4,225.808L60,225.808L60.6,225.808L61.2,225.808L61.8,225.808L62.4,234.068L63,225.804L63.6,225.804L64.2,234.068L64.8,234.068L65.4,225.803L66,225.803L66.6,225.803L67.2,225.804L67.8,225.804L68.4,225.804L69,217.539L69.6,217.539L70.2,217.539L70.8,217.539L71.4,225.804L72,225.804L72.6,217.543L73.2,225.808L73.8,234.072L74.4,234.072L75,234.072L75.6,234.072L76.2,234.072L76.8,234.072L77.4,225.808L78,225.808L78.6,234.072L79.2,234.072L79.8,234.072L80.4,234.072L81,242.336L81.6,242.336L82.2,242.336L82.8,234.072L83.4,242.336L84,242.336L84.6,242.336L85.2,242.336L85.8,242.336L86.4,242.336L87,242.336L87.6,242.336L88.2,242.336L88.8,242.336L89.4,242.336L90,242.336L90.6,242.336L91.2,242.336L91.8,234.072L92.4,234.072L93,242.336L93.6,242.336L94.2,234.072L94.8,217.543L95.4,217.543L96,225.806L96.6,225.806L97.2,225.806L97.8,225.806L98.4,225.806L99,225.806L99.6,225.806L100.2,225.806L100.8,225.806L101.4,225.806L102,225.806L102.6,225.806L103.2,225.806L103.8,225.806L104.4,225.806L105,225.806L105.6,225.806L106.2,225.806L106.8,225.806L107.4,234.071L108,234.071L108.6,234.071L109.2,234.071L109.8,234.071L110.4,225.806L111,225.806L111.6,225.806L112.2,225.806L112.8,225.806L113.4,225.806L114,225.806L114.6,217.671L115.2,217.671L115.8,217.671L116.4,225.936L117,217.671L117.6,217.675L118.2,217.675L118.8,225.936L119.4,225.936L120,217.671L120.6,217.671L121.2,217.671L121.8,217.671L122.4,217.671L123,209.411L123.6,209.411L124.2,209.411L124.8,209.411L125.4,209.411L126,209.411L126.6,209.411L127.2,209.411L127.8,209.411L128.4,209.411L129,209.411L129.6,209.411L130.2,209.411L130.8,209.411L131.4,217.675L132,217.675L132.6,217.675L133.2,217.675L133.8,217.675L134.4,217.675L135,217.675L135.6,217.675L136.2,217.675L136.8,217.675L137.4,217.675L138,217.675L138.6,217.675L139.2,217.675L139.8,209.411L140.4,209.411L141,209.411L141.6,209.411L142.2,209.411L142.8,209.411L143.4,217.675L144,209.411L144.6,209.411L145.2,209.411L145.8,209.411L146.4,209.411L147,209.411L147.6,209.411L148.2,209.411L148.8,209.411L149.4,209.411L150,209.411L150.6,209.411L151.2,209.411L151.8,209.411L152.4,209.411L153,201.146L153.6,201.146L154.2,209.411L154.8,209.411L155.4,209.411L156,201.146L156.6,201.146L157.2,201.146L157.8,209.411L158.4,209.411L159,209.411L159.6,209.411L160.2,209.411L160.8,209.411L161.4,209.411L162,209.411L162.6,209.411L163.2,209.411L163.8,209.411L164.4,209.411L165,201.146L165.6,201.146L166.2,209.411L166.8,209.411L167.4,209.411L168,201.146L168.6,192.882L169.2,192.882L169.8,201.146L170.4,201.146L171,201.146L171.6,201.146L172.2,201.146L172.8,201.146L173.4,201.146L174,209.411L174.6,209.411L175.2,209.411L175.8,209.411L176.4,209.411L177,201.146L177.6,209.411L178.2,209.411L178.8,209.411L179.4,209.411L180,209.411L180.6,209.411L181.2,209.411L181.8,209.411L182.4,209.411L183,209.411L183.6,209.411L184.2,209.411L184.8,209.411L185.4,209.411L186,225.939L186.6,225.939L187.2,217.675L187.8,217.675L188.4,217.675L189,217.675L189.6,217.675L190.2,217.675L190.8,217.675L191.4,217.675L192,217.675L192.6,217.675L193.2,217.675L193.8,217.675L194.4,217.675L195,217.675L195.6,225.81L196.2,225.81L196.8,225.81L197.4,225.81L198,234.071L198.6,225.81L199.2,225.81L199.8,225.81L200.4,234.071L201,234.071L201.6,234.071L202.2,242.334L202.8,242.334L203.4,242.334L204,242.334L204.6,242.334L205.2,242.334L205.8,242.334L206.4,242.334L207,242.334L207.6,242.334L208.2,242.334L208.8,242.334L209.4,242.334L210,242.334L210.6,242.334L211.2,242.334L211.8,242.334L212.4,242.334L213,242.334L213.6,242.334L214.2,242.334L214.8,242.334L215.4,234.074L216,242.334L216.6,242.334L217.2,242.334L217.8,242.334L218.4,234.074L219,234.074L219.6,225.809L220.2,225.809L220.8,225.809L221.4,225.809L222,225.809L222.6,225.809L223.2,225.809L223.8,225.809L224.4,225.809L225,225.809L225.6,225.809L226.2,225.809L226.8,225.809L227.4,225.809L228,225.809L228.6,225.809L229.2,225.809L229.8,225.809L230.4,225.809L231,225.809L231.6,225.809L232.2,225.809L232.8,225.809L233.4,225.809L234,225.809L234.6,225.809L235.2,225.809L235.8,225.809L236.4,225.809L237,225.809L237.6,225.809L238.2,225.809L238.8,225.809L239.4,225.809L240,234.074L240.6,234.074L241.2,234.074L241.8,234.074L242.4,234.074L243,234.074L243.6,234.074L244.2,234.074L244.8,234.074L245.4,234.074L246,234.074L246.6,225.809L247.2,225.809L247.8,225.809L248.4,225.809L249,225.809L249.6,225.809L250.2,225.809L250.8,225.809L251.4,225.809L252,225.809L252.6,225.809L253.2,234.074L253.8,234.074L254.4,234.074L255,234.074L255.6,234.074L256.2,234.074L256.8,242.334L257.4,234.07L258,234.07L258.6,234.07L259.2,234.07L259.8,234.07L260.4,234.07L261,234.07L261.6,234.07L262.2,234.07L262.8,234.07L263.4,234.07L264,234.07L264.6,234.07L265.2,234.07L265.8,234.07L266.4,234.07L267,234.07L267.6,234.07L268.2,234.07L268.8,234.07L269.4,234.07L270,234.07L270.6,234.07L271.2,234.07L271.8,242.33L272.4,242.33L273,242.33L273.6,242.33L274.2,242.33L274.8,242.33L275.4,242.33L276,242.33L276.6,234.07L277.2,234.07L277.8,234.07L278.4,234.07L279,234.07L279.6,234.07L280.2,234.07L280.8,234.07L281.4,234.07L282,242.334L282.6,242.334L283.2,242.334L283.8,242.334L284.4,242.334L285,242.334L285.6,242.334L286.2,242.334L286.8,242.334L287.4,242.334L288,242.334L288.6,242.334L289.2,242.334L289.8,242.334L290.4,242.334L291,242.334L291.6,242.334L292.2,242.334L292.8,242.334L293.4,242.334L294,234.074L294.6,242.334L295.2,242.334L295.8,242.334L296.4,242.334L297,242.334L297.6,242.334L298.2,242.334L298.8,242.334L299.4,242.334L300,242.334L300.6,242.334L301.2,242.334L301.8,242.334L302.4,242.334L303,242.334L303.6,242.334L304.2,242.334L304.8,242.334L305.4,242.334L306,242.334L306.6,234.074L307.2,242.334L307.8,242.334L308.4,242.334L309,242.334L309.6,242.334L310.2,242.334L310.8,242.334L311.4,242.334L312,242.334L312.6,242.334L313.2,242.334L313.8,242.334L314.4,242.334L315,242.334L315.6,242.334L316.2,242.334L316.8,242.334L317.4,242.334L318,242.334L318.6,242.334L319.2,242.334L319.8,242.334L320.4,242.334L321,234.074L321.6,242.334L322.2,242.334L322.8,242.334L323.4,242.334L324,242.334L324.6,234.074L325.2,234.074L325.8,225.938L326.4,234.074L327,234.074L327.6,234.074L328.2,234.074L328.8,234.074L329.4,225.938L330,225.938L330.6,225.938L331.2,225.938L331.8,234.074L332.4,242.338L333,250.599L333.6,250.599L334.2,242.463L334.8,250.599L335.4,250.599L336,242.463L336.6,242.463L337.2,242.463L337.8,242.463L338.4,242.463L339,242.463L339.6,242.463L340.2,242.463L340.8,242.463L341.4,242.463L342,242.463L342.6,242.463L343.2,234.199L343.8,242.463L344.4,250.599L345,250.599L345.6,250.599L346.2,242.334L346.8,250.599L347.4,242.334L348,250.599L348.6,250.599L349.2,250.599L349.8,250.599L350.4,250.599L351,250.599L351.6,250.599L352.2,250.599L352.8,242.334L353.4,250.599L354,242.334L354.6,242.334L355.2,242.334L355.8,242.334L356.4,242.334L357,242.334L357.6,234.07L358.2,234.07L358.8,234.07L359.4,234.07L360,234.07L360.6,234.07L361.2,234.07L361.8,234.07L362.4,234.07L363,234.07L363.6,234.07L364.2,234.07L364.8,234.07L365.4,242.334L366,242.334L366.6,242.334L367.2,242.334L367.8,242.334L368.4,242.334L369,242.334L369.6,242.334L370.2,242.334L370.8,242.334L371.4,242.334L372,242.334L372.6,242.334L373.2,242.334L373.8,242.334L374.4,242.334L375,242.463L375.6,242.463L376.2,250.599L376.8,250.599L377.4,250.599L378,234.199L378.6,234.199L379.2,234.199L379.8,234.199L380.4,242.463L381,242.463L381.6,242.463L382.2,242.463L382.8,242.463L383.4,242.463L384,242.463L384.6,242.463L385.2,242.463L385.8,242.463L386.4,242.463L387,242.463L387.6,242.463L388.2,250.724L388.8,250.724L389.4,250.724L390,250.724L390.6,250.724L391.2,250.724L391.8,250.724L392.4,250.724L393,250.724L393.6,250.724L394.2,250.724L394.8,250.724L395.4,250.724L396,250.724L396.6,250.724L397.2,250.724L397.8,242.46L398.4,242.46L399,242.46L399.6,242.46L400.2,242.46L400.8,242.46L401.4,242.46L402,242.46L402.6,242.46L403.2,242.46L403.8,234.195L404.4,234.195L405,234.195L405.6,234.195L406.2,234.195L406.8,234.195L407.4,234.195L408,234.195L408.6,234.195L409.2,234.195L409.8,234.195L410.4,234.195L411,234.195L411.6,234.195L412.2,234.195L412.8,234.195L413.4,234.195L414,234.195L414.6,234.195L415.2,234.195L415.8,225.935L416.4,225.935L417,234.2L417.6,225.935L418.2,225.935L418.8,225.935L419.4,234.2L420,242.46L420.6,242.46L421.2,242.46L421.8,242.46L422.4,242.46L423,242.46L423.6,242.46L424.2,234.195L424.8,242.46L425.4,242.46L426,242.46L426.6,242.46L427.2,242.46L427.8,242.46L428.4,242.46L429,242.46L429.6,242.46L430.2,242.46L430.8,242.46L431.4,242.46L432,242.46L432.6,242.46L433.2,242.46L433.8,242.46L434.4,242.46L435,242.46L435.6,242.46L436.2,242.46L436.8,242.46L437.4,242.46L438,242.46L438.6,242.46L439.2,234.196L439.8,242.46L440.4,234.196L441,234.196L441.6,234.196L442.2,234.196L442.8,234.196L443.4,234.196L444,234.196L444.6,234.196L445.2,234.196L445.8,234.196L446.4,234.196L447,242.46L447.6,242.46L448.2,242.46L448.8,242.46L449.4,242.46L450,242.46L450.6,242.46L451.2,242.46L451.8,242.46L452.4,242.46L453,242.46L453.6,242.46L454.2,242.46L454.8,242.46L455.4,242.46L456,242.46L456.6,242.46L457.2,242.46L457.8,242.46L458.4,242.46L459,242.46L459.6,242.46L460.2,242.46L460.8,242.46L461.4,242.46L462,242.46L462.6,242.46L463.2,250.724L463.8,250.724L464.4,242.46L465,242.46L465.6,242.46L466.2,242.46L466.8,242.46L467.4,242.46L468,242.46L468.6,242.46L469.2,242.46L469.8,242.46L470.4,242.46L471,242.46L471.6,242.46L472.2,242.46L472.8,242.46L473.4,242.46L474,242.46L474.6,242.46L475.2,234.196L475.8,242.46L476.4,234.196L477,234.196L477.6,234.196L478.2,234.196L478.8,234.196L479.4,234.196L480,234.196L480.6,234.196L481.2,234.196L481.8,234.196L482.4,234.196L483,234.196L483.6,234.196L484.2,234.196L484.8,234.196L485.4,234.196L486,234.196L486.6,234.196L487.2,234.196L487.8,234.196L488.4,234.196L489,234.196L489.6,234.196L490.2,234.196L490.8,234.196L491.4,234.196L492,225.931L492.6,225.931L493.2,225.931L493.8,225.931L494.4,225.931L495,225.931L495.6,225.931L496.2,225.931L496.8,225.931L497.4,225.931L498,225.931L498.6,225.931L499.2,225.931L499.8,225.931L500.4,225.931L501,225.931L501.6,225.931L502.2,225.931L502.8,225.931L503.4,225.931L504,225.931L504.6,225.931L505.2,225.931L505.8,225.931L506.4,225.931L507,217.667L507.6,225.931L508.2,225.931L508.8,225.931L509.4,225.931L510,225.931L510.6,225.931L511.2,217.667L511.8,225.931L512.4,225.931L513,225.931L513.6,225.931L514.2,225.931L514.8,225.931L515.4,225.931L516,225.931L516.6,225.931L517.2,225.931L517.8,225.931L518.4,225.931L519,225.931L519.6,225.931L520.2,225.931L520.8,225.931L521.4,225.931L522,217.667L522.6,217.667L523.2,217.667L523.8,217.667L524.4,217.667L525,217.667L525.6,217.667L526.2,217.667L526.8,217.667L527.4,217.667L528,217.667L528.6,217.667L529.2,217.667L529.8,217.667L530.4,217.667L531,217.667L531.6,217.667L532.2,217.667L532.8,217.667L533.4,217.667L534,217.667L534.6,217.667L535.2,217.667L535.8,217.667L536.4,217.667L537,225.931L537.6,217.667L538.2,225.931L538.8,225.931L539.4,225.931L540,225.931L540.6,225.931L541.2,225.931L541.8,225.931L542.4,225.931L543,225.931L543.6,225.931L544.2,225.931L544.8,225.931L545.4,225.931L546,225.931L546.6,225.931L547.2,225.931L547.8,225.931L548.4,225.931L549,225.931L549.6,225.931L550.2,225.931L550.8,225.931L551.4,225.931L552,225.931L552.6,225.931L553.2,225.931L553.8,225.931L554.4,225.931L555,234.066L555.6,234.066L556.2,234.066L556.8,234.066L557.4,234.066L558,234.066L558.6,234.066L559.2,234.066L559.8,234.066L560.4,234.066L561,234.066L561.6,234.066L562.2,234.066L562.8,234.066L563.4,234.066L564,234.066L564.6,234.066L565.2,234.066L565.8,234.066L566.4,234.066L567,234.066L567.6,234.066L568.2,234.066L568.8,234.066L569.4,234.066L570,234.066L570.6,234.066L571.2,234.066L571.8,234.066L572.4,234.066L573,234.066L573.6,234.066L574.2,234.066L574.8,234.066L575.4,234.066L576,234.066L576.6,234.066L577.2,234.066L577.8,234.066L578.4,234.066L579,225.802L579.6,225.802L580.2,225.802L580.8,225.802L581.4,225.802L582,225.802L582.6,225.802L583.2,225.802L583.8,225.802L584.4,225.802L585,225.802L585.6,225.802L586.2,225.802L586.8,225.802L587.4,225.802L588,225.802L588.6,225.802L589.2,225.802L589.8,225.802L590.4,225.802L591,225.802L591.6,225.802L592.2,225.802L592.8,225.802L593.4,225.802L594,225.802L594.6,225.802L595.2,225.802L595.8,225.802L596.4,225.802L597,225.802L597.6,225.802L598.2,225.802L598.8,225.802L599.4,225.802" stroke="#3bd47c" stroke-width="2"/></g></g><path class="foreground" aria-hidden="true" d="" display="none"/></g><g transform="translate(0,0)"><path class="background" aria-hidden="true" d="M0,0h600v300h-600Z"/><g><g class="mark-line role-mark marks" role="graphics-object" aria-roledescription="line mark container"><path aria-label="Model Iterations: 0; Normalized Discounted Cumulative Gain: 0.807631309437; Truncation Level: 2" role="graphics-symbol" aria-roledescription="line mark" d="M0,192.369L0.6,209.984L1.2,203.165L1.8,182.927L2.4,190.011L3,186.852L3.6,179.923L4.2,175.656L4.8,178.309L5.4,186.463L6,204.86L6.6,196.595L7.2,200.481L7.8,193.431L8.4,188.363L9,191.707L9.6,188.511L10.2,179.299L10.8,179.299L11.4,176.103L12,176.103L12.6,174.232L13.2,174.232L13.8,184.209L14.4,183.822L15,184.925L15.6,181.731L16.2,176.663L16.8,176.84L17.4,184.881L18,178.487L18.6,182.05L19.2,182.05L19.8,185.229L20.4,185.229L21,182.032L21.6,178.835L22.2,180.162L22.8,188.276L23.4,181.881L24,185.079L24.6,177.359L25.2,183.771L25.8,180.032L26.4,176.834L27,176.834L27.6,174.964L28.2,176.817L28.8,176.817L29.4,183.21L30,183.21L30.6,183.211L31.2,186.261L31.8,191.328L32.4,190.73L33,190.73L33.6,190.583L34.2,193.614L34.8,193.614L35.4,196.812L36,196.812L36.6,196.812L37.2,196.812L37.8,193.615L38.4,191.745L39,191.745L39.6,186.677L40.2,186.677L40.8,190.618L41.4,190.618L42,191.946L42.6,188.748L43.2,188.748L43.8,188.748L44.4,193.815L45,190.618L45.6,190.614L46.2,193.811L46.8,193.811L47.4,193.811L48,197.008L48.6,197.008L49.2,197.008L49.8,202.075L50.4,198.878L51,195.138L51.6,195.138L52.2,197.008L52.8,197.008L53.4,197.008L54,197.008L54.6,197.008L55.2,201.533L55.8,201.533L56.4,201.532L57,201.533L57.6,203.403L58.2,203.403L58.8,203.403L59.4,206.6L60,203.403L60.6,197.009L61.2,197.009L61.8,197.014L62.4,198.883L63,200.21L63.6,200.21L64.2,202.08L64.8,202.08L65.4,203.407L66,206.603L66.6,203.406L67.2,200.21L67.8,200.209L68.4,203.406L69,201.536L69.6,201.536L70.2,206.735L70.8,206.735L71.4,205.408L72,205.408L72.6,203.539L73.2,205.409L73.8,207.279L74.4,204.082L75,195.686L75.6,198.883L76.2,198.883L76.8,195.687L77.4,193.816L78,194.942L78.6,196.813L79.2,196.813L79.8,196.813L80.4,196.813L81,198.683L81.6,198.683L82.2,198.683L82.8,193.615L83.4,192.288L84,192.287L84.6,189.09L85.2,189.09L85.8,189.09L86.4,187.964L87,192.287L87.6,192.287L88.2,192.287L88.8,192.287L89.4,192.287L90,192.287L90.6,187.964L91.2,191.161L91.8,186.094L92.4,186.094L93,187.964L93.6,187.964L94.2,182.897L94.8,183.479L95.4,180.282L96,186.527L96.6,183.33L97.2,183.33L97.8,183.33L98.4,183.33L99,183.33L99.6,188.529L100.2,188.529L100.8,186.527L101.4,191.726L102,194.922L102.6,191.726L103.2,191.726L103.8,191.726L104.4,198.12L105,194.923L105.6,198.121L106.2,194.923L106.8,194.924L107.4,196.794L108,199.991L108.6,199.991L109.2,199.991L109.8,199.991L110.4,196.995L111,196.995L111.6,196.995L112.2,196.995L112.8,196.995L113.4,196.995L114,196.995L114.6,190.825L115.2,190.825L115.8,194.022L116.4,195.892L117,194.022L117.6,192.844L118.2,192.844L118.8,195.892L119.4,195.892L120,194.022L120.6,194.022L121.2,190.825L121.8,190.825L122.4,190.825L123,192.983L123.6,192.983L124.2,196.179L124.8,196.179L125.4,196.179L126,192.988L126.6,196.184L127.2,192.988L127.8,192.988L128.4,192.988L129,192.988L129.6,192.988L130.2,194.167L130.8,194.167L131.4,196.038L132,196.038L132.6,196.038L133.2,196.038L133.8,199.234L134.4,199.234L135,199.234L135.6,199.234L136.2,199.234L136.8,199.234L137.4,199.234L138,199.234L138.6,199.234L139.2,199.234L139.8,197.364L140.4,194.167L141,197.364L141.6,194.167L142.2,197.364L142.8,197.364L143.4,199.234L144,197.364L144.6,194.167L145.2,197.364L145.8,194.167L146.4,194.167L147,194.167L147.6,194.167L148.2,194.167L148.8,194.167L149.4,194.167L150,194.167L150.6,194.167L151.2,194.167L151.8,190.97L152.4,190.97L153,189.099L153.6,189.099L154.2,190.97L154.8,190.97L155.4,190.97L156,189.099L156.6,189.099L157.2,189.099L157.8,190.97L158.4,190.97L159,190.97L159.6,190.97L160.2,190.97L160.8,190.97L161.4,190.97L162,190.97L162.6,190.97L163.2,194.167L163.8,194.167L164.4,194.167L165,191.117L165.6,191.117L166.2,194.167L166.8,194.167L167.4,194.167L168,191.117L168.6,189.246L169.2,189.246L169.8,191.117L170.4,191.116L171,191.116L171.6,191.116L172.2,187.919L172.8,187.919L173.4,187.919L174,189.79L174.6,189.79L175.2,189.79L175.8,189.79L176.4,189.79L177,187.919L177.6,190.969L178.2,194.167L178.8,194.167L179.4,194.167L180,194.167L180.6,194.167L181.2,194.167L181.8,190.97L182.4,190.97L183,190.97L183.6,194.16L184.2,194.16L184.8,190.97L185.4,190.97L186,195.89L186.6,195.89L187.2,194.02L187.8,194.02L188.4,194.02L189,194.02L189.6,194.02L190.2,194.02L190.8,194.02L191.4,194.02L192,197.217L192.6,197.216L193.2,197.214L193.8,197.214L194.4,200.412L195,200.412L195.6,203.385L196.2,200.188L196.8,200.188L197.4,203.385L198,205.254L198.6,203.385L199.2,196.992L199.8,200.188L200.4,205.254L201,205.254L201.6,205.254L202.2,207.124L202.8,207.124L203.4,207.124L204,207.124L204.6,207.124L205.2,207.124L205.8,207.124L206.4,207.124L207,203.927L207.6,203.927L208.2,203.927L208.8,207.124L209.4,207.124L210,210.321L210.6,210.321L211.2,210.321L211.8,210.321L212.4,207.124L213,203.927L213.6,203.927L214.2,207.124L214.8,207.124L215.4,205.255L216,207.124L216.6,203.927L217.2,203.927L217.8,207.124L218.4,202.058L219,205.255L219.6,203.385L220.2,203.385L220.8,196.992L221.4,200.187L222,200.187L222.6,200.187L223.2,200.187L223.8,196.992L224.4,200.187L225,200.187L225.6,200.187L226.2,200.187L226.8,200.187L227.4,200.187L228,200.187L228.6,200.187L229.2,203.385L229.8,200.187L230.4,196.99L231,196.99L231.6,196.99L232.2,200.187L232.8,193.793L233.4,193.793L234,196.99L234.6,196.99L235.2,200.187L235.8,196.99L236.4,196.99L237,196.99L237.6,200.187L238.2,200.187L238.8,200.187L239.4,196.992L240,198.862L240.6,198.862L241.2,195.665L241.8,195.665L242.4,195.665L243,195.665L243.6,195.665L244.2,195.665L244.8,195.665L245.4,195.665L246,195.665L246.6,190.598L247.2,190.598L247.8,190.598L248.4,190.598L249,190.598L249.6,190.598L250.2,190.598L250.8,190.598L251.4,190.598L252,190.598L252.6,190.598L253.2,192.468L253.8,192.468L254.4,195.665L255,195.665L255.6,195.665L256.2,195.665L256.8,198.713L257.4,196.842L258,196.842L258.6,196.842L259.2,196.842L259.8,196.842L260.4,200.038L261,200.038L261.6,203.235L262.2,200.038L262.8,200.038L263.4,196.842L264,196.842L264.6,196.842L265.2,196.842L265.8,193.646L266.4,200.038L267,196.842L267.6,196.842L268.2,196.842L268.8,196.842L269.4,196.842L270,200.038L270.6,196.842L271.2,200.038L271.8,198.711L272.4,198.711L273,198.711L273.6,198.711L274.2,198.711L274.8,198.711L275.4,198.711L276,198.711L276.6,195.663L277.2,195.663L277.8,195.663L278.4,195.663L279,195.663L279.6,195.663L280.2,195.663L280.8,195.663L281.4,195.663L282,197.533L282.6,197.533L283.2,197.533L283.8,197.533L284.4,197.533L285,197.533L285.6,197.533L286.2,197.533L286.8,197.533L287.4,197.533L288,197.533L288.6,197.533L289.2,197.533L289.8,197.533L290.4,197.533L291,197.533L291.6,197.533L292.2,197.533L292.8,197.533L293.4,197.533L294,195.664L294.6,194.336L295.2,194.336L295.8,194.336L296.4,194.336L297,194.336L297.6,194.336L298.2,194.336L298.8,194.336L299.4,194.336L300,194.336L300.6,194.336L301.2,194.336L301.8,194.336L302.4,194.336L303,194.336L303.6,194.336L304.2,194.336L304.8,194.336L305.4,194.336L306,194.336L306.6,192.467L307.2,197.533L307.8,194.336L308.4,194.336L309,197.533L309.6,194.336L310.2,194.336L310.8,194.336L311.4,194.336L312,194.336L312.6,194.336L313.2,194.336L313.8,194.336L314.4,194.336L315,194.336L315.6,194.336L316.2,191.139L316.8,194.336L317.4,194.336L318,194.336L318.6,194.336L319.2,194.336L319.8,194.336L320.4,194.336L321,192.467L321.6,194.336L322.2,194.336L322.8,194.336L323.4,194.336L324,194.336L324.6,192.467L325.2,189.27L325.8,186.297L326.4,189.27L327,189.27L327.6,189.27L328.2,189.27L328.8,189.27L329.4,186.297L330,186.297L330.6,186.297L331.2,186.297L331.8,189.27L332.4,191.14L333,193.009L333.6,193.009L334.2,190.036L334.8,189.813L335.4,189.813L336,186.84L336.6,186.84L337.2,186.84L337.8,186.84L338.4,186.84L339,186.84L339.6,186.84L340.2,186.84L340.8,186.84L341.4,190.037L342,186.84L342.6,190.037L343.2,184.97L343.8,186.84L344.4,193.01L345,193.01L345.6,193.01L346.2,187.943L346.8,189.813L347.4,187.943L348,189.813L348.6,189.813L349.2,189.813L349.8,189.813L350.4,189.813L351,189.813L351.6,193.01L352.2,193.01L352.8,191.14L353.4,193.01L354,191.14L354.6,191.14L355.2,191.14L355.8,191.14L356.4,191.14L357,187.943L357.6,186.073L358.2,186.073L358.8,186.073L359.4,186.073L360,186.073L360.6,186.073L361.2,186.073L361.8,186.073L362.4,186.073L363,186.073L363.6,186.073L364.2,186.073L364.8,186.073L365.4,187.943L366,187.943L366.6,187.943L367.2,184.747L367.8,184.747L368.4,187.944L369,187.944L369.6,187.944L370.2,187.944L370.8,187.944L371.4,184.747L372,187.944L372.6,184.747L373.2,184.747L373.8,184.747L374.4,181.55L375,180.447L375.6,180.447L376.2,183.42L376.8,183.42L377.4,183.42L378,178.577L378.6,178.577L379.2,178.577L379.8,178.577L380.4,180.447L381,180.447L381.6,180.447L382.2,180.447L382.8,180.447L383.4,180.447L384,177.25L384.6,180.447L385.2,180.528L385.8,180.528L386.4,180.528L387,180.528L387.6,180.528L388.2,183.575L388.8,189.968L389.4,186.771L390,186.771L390.6,189.968L391.2,189.968L391.8,189.968L392.4,189.968L393,186.773L393.6,186.773L394.2,186.773L394.8,186.773L395.4,186.773L396,189.887L396.6,186.692L397.2,189.887L397.8,188.017L398.4,188.017L399,191.295L399.6,191.295L400.2,194.491L400.8,191.296L401.4,197.689L402,194.493L402.6,194.493L403.2,194.493L403.8,192.623L404.4,192.623L405,192.623L405.6,192.623L406.2,192.623L406.8,192.623L407.4,192.623L408,192.623L408.6,192.623L409.2,192.623L409.8,192.623L410.4,192.623L411,192.623L411.6,192.623L412.2,192.623L412.8,192.623L413.4,192.623L414,192.623L414.6,192.623L415.2,192.623L415.8,189.575L416.4,186.378L417,188.248L417.6,186.378L418.2,186.378L418.8,186.378L419.4,188.168L420,191.215L420.6,191.215L421.2,191.215L421.8,194.412L422.4,194.412L423,194.412L423.6,194.412L424.2,192.542L424.8,191.215L425.4,188.018L426,191.215L426.6,191.215L427.2,194.412L427.8,191.215L428.4,191.215L429,188.018L429.6,191.215L430.2,191.215L430.8,191.215L431.4,191.215L432,191.215L432.6,191.215L433.2,188.018L433.8,191.215L434.4,191.215L435,191.215L435.6,188.018L436.2,188.018L436.8,188.018L437.4,194.412L438,194.412L438.6,191.215L439.2,192.542L439.8,194.493L440.4,192.623L441,186.148L441.6,189.345L442.2,192.542L442.8,192.542L443.4,195.739L444,192.542L444.6,192.542L445.2,192.542L445.8,192.542L446.4,192.542L447,194.412L447.6,197.61L448.2,197.61L448.8,197.61L449.4,197.61L450,197.61L450.6,197.61L451.2,197.61L451.8,197.61L452.4,197.61L453,197.61L453.6,197.61L454.2,197.61L454.8,197.61L455.4,197.61L456,197.61L456.6,197.61L457.2,197.61L457.8,197.61L458.4,197.61L459,197.61L459.6,197.61L460.2,197.61L460.8,197.61L461.4,197.61L462,200.807L462.6,204.002L463.2,202.677L463.8,205.872L464.4,204.002L465,204.002L465.6,204.002L466.2,204.002L466.8,200.805L467.4,200.805L468,204.002L468.6,204.002L469.2,200.805L469.8,200.805L470.4,200.805L471,200.805L471.6,200.805L472.2,200.805L472.8,200.805L473.4,200.805L474,200.805L474.6,200.805L475.2,198.935L475.8,200.805L476.4,198.935L477,198.935L477.6,198.935L478.2,198.935L478.8,198.935L479.4,198.935L480,198.935L480.6,198.935L481.2,198.935L481.8,198.935L482.4,195.738L483,195.738L483.6,198.935L484.2,198.935L484.8,198.935L485.4,198.935L486,198.935L486.6,198.935L487.2,198.935L487.8,202.132L488.4,198.935L489,198.935L489.6,198.935L490.2,198.935L490.8,198.935L491.4,198.935L492,195.885L492.6,195.885L493.2,192.688L493.8,195.885L494.4,195.885L495,195.885L495.6,195.885L496.2,195.885L496.8,195.885L497.4,195.885L498,195.885L498.6,195.885L499.2,195.885L499.8,195.885L500.4,195.885L501,195.885L501.6,195.885L502.2,195.885L502.8,195.885L503.4,195.885L504,195.885L504.6,195.885L505.2,195.885L505.8,195.885L506.4,195.885L507,194.015L507.6,195.885L508.2,195.885L508.8,195.885L509.4,195.885L510,192.688L510.6,195.885L511.2,194.015L511.8,195.885L512.4,195.885L513,195.885L513.6,195.885L514.2,195.885L514.8,192.688L515.4,195.885L516,192.688L516.6,189.491L517.2,189.491L517.8,189.491L518.4,189.491L519,189.491L519.6,192.688L520.2,192.688L520.8,192.688L521.4,192.688L522,190.818L522.6,194.013L523.2,194.013L523.8,194.013L524.4,194.013L525,194.013L525.6,190.816L526.2,190.816L526.8,190.816L527.4,190.816L528,190.816L528.6,190.816L529.2,190.816L529.8,190.816L530.4,190.816L531,190.816L531.6,190.816L532.2,190.816L532.8,190.816L533.4,194.013L534,190.816L534.6,187.619L535.2,187.619L535.8,187.619L536.4,187.619L537,189.489L537.6,190.816L538.2,192.686L538.8,192.686L539.4,192.686L540,189.489L540.6,189.489L541.2,189.489L541.8,189.489L542.4,189.489L543,189.489L543.6,189.489L544.2,189.489L544.8,189.489L545.4,189.489L546,189.489L546.6,189.489L547.2,189.489L547.8,192.686L548.4,192.686L549,192.686L549.6,192.686L550.2,192.686L550.8,192.686L551.4,192.686L552,192.686L552.6,192.686L553.2,192.686L553.8,192.686L554.4,192.686L555,195.66L555.6,195.66L556.2,195.66L556.8,195.66L557.4,195.66L558,195.66L558.6,195.66L559.2,195.66L559.8,195.66L560.4,195.66L561,195.66L561.6,195.66L562.2,195.66L562.8,195.66L563.4,195.66L564,195.66L564.6,195.66L565.2,195.66L565.8,195.66L566.4,195.66L567,195.66L567.6,198.857L568.2,195.66L568.8,195.66L569.4,192.462L570,192.462L570.6,192.462L571.2,192.462L571.8,192.462L572.4,192.462L573,192.462L573.6,192.462L574.2,192.462L574.8,192.462L575.4,192.462L576,192.462L576.6,192.462L577.2,192.462L577.8,192.462L578.4,192.462L579,190.592L579.6,190.592L580.2,190.592L580.8,190.592L581.4,187.395L582,187.395L582.6,187.395L583.2,187.395L583.8,187.395L584.4,187.395L585,187.395L585.6,187.395L586.2,187.395L586.8,187.395L587.4,187.395L588,187.395L588.6,187.395L589.2,187.395L589.8,187.395L590.4,187.395L591,187.395L591.6,184.199L592.2,184.199L592.8,184.199L593.4,187.395L594,187.395L594.6,187.395L595.2,187.395L595.8,187.395L596.4,187.395L597,187.395L597.6,187.395L598.2,187.395L598.8,187.395L599.4,187.395" stroke="#3C91E6" stroke-width="2"/></g></g><path class="foreground" aria-hidden="true" d="" display="none"/></g><g transform="translate(0,0)"><path class="background" aria-hidden="true" d="M0,0h600v300h-600Z"/><g><g class="mark-line role-mark marks" role="graphics-object" aria-roledescription="line mark container"><path aria-label="Model Iterations: 0; Normalized Discounted Cumulative Gain: 0.835085791259; Truncation Level: 3" role="graphics-symbol" aria-roledescription="line mark" d="M0,164.914L0.6,186.183L1.2,186.139L1.8,168.422L2.4,166.424L3,164.462L3.6,161.194L4.2,165.268L4.8,162.544L5.4,163.776L6,173.661L6.6,168.686L7.2,168.753L7.8,168.185L8.4,163.274L9,163.773L9.6,154.488L10.2,154.211L10.8,151.678L11.4,151.758L12,156.23L12.6,153.015L13.2,154.954L13.8,161.802L14.4,157.07L15,154.901L15.6,156.773L16.2,154.395L16.8,154.567L17.4,160.073L18,162.458L18.6,161.71L19.2,161.71L19.8,164.152L20.4,161.625L21,155.468L21.6,160.61L22.2,161.18L22.8,161.11L23.4,157.568L24,158.075L24.6,162.3L25.2,160.787L25.8,155.986L26.4,157.25L27,156.656L27.6,155.819L28.2,159.792L28.8,159.792L29.4,158.585L30,158.585L30.6,158.585L31.2,161.635L31.8,163.73L32.4,157.609L33,159.548L33.6,162.529L34.2,163.62L34.8,163.62L35.4,164.283L36,164.283L36.6,164.283L37.2,164.283L37.8,163.775L38.4,162.344L39,164.875L39.6,162.341L40.2,162.341L40.8,164.642L41.4,164.642L42,163.28L42.6,162.617L43.2,162.617L43.8,162.617L44.4,165.15L45,161.954L45.6,163.891L46.2,160.678L46.8,160.678L47.4,163.209L48,161.34L48.6,161.34L49.2,161.34L49.8,163.279L50.4,162.772L51,159.47L51.6,160.064L52.2,161.496L52.8,163.434L53.4,161.496L54,161.496L54.6,163.434L55.2,160.797L55.8,160.797L56.4,160.797L57,160.797L57.6,162.667L58.2,162.669L58.8,162.67L59.4,163.333L60,162.67L60.6,161.343L61.2,158.81L61.8,158.811L62.4,160.241L63,156.94L63.6,162.007L64.2,163.438L64.8,163.438L65.4,164.608L66,163.333L66.6,164.608L67.2,163.506L67.8,163.506L68.4,164.17L69,162.738L69.6,162.738L70.2,163.817L70.8,163.817L71.4,165.023L72,165.023L72.6,163.593L73.2,165.024L73.8,166.456L74.4,165.792L75,164.05L75.6,164.714L76.2,164.713L76.8,164.05L77.4,162.619L78,162.851L78.6,164.282L79.2,164.282L79.8,164.282L80.4,164.282L81,164.213L81.6,166.152L82.2,164.213L82.8,162.274L83.4,163.48L84,163.48L84.6,162.817L85.2,162.817L85.8,162.817L86.4,162.585L87,163.48L87.6,163.48L88.2,163.48L88.8,163.636L89.4,163.636L90,163.48L90.6,160.802L91.2,161.465L91.8,158.936L92.4,158.936L93,160.802L93.6,160.802L94.2,160.207L94.8,155.428L95.4,154.765L96,158.476L96.6,157.812L97.2,157.812L97.8,159.751L98.4,155.275L99,155.279L99.6,158.887L100.2,158.891L100.8,158.316L101.4,159.395L102,161.841L102.6,161.337L103.2,161.333L103.8,161.489L104.4,160.722L105,162L105.6,162.508L106.2,162L106.8,160.062L107.4,161.932L108,164.53L108.6,162.592L109.2,162.592L109.8,162.592L110.4,160.49L111,160.49L111.6,160.49L112.2,160.49L112.8,160.49L113.4,160.49L114,160.49L114.6,154.329L115.2,151.796L115.8,152.46L116.4,153.891L117,152.46L117.6,148.31L118.2,148.31L118.8,151.357L119.4,151.357L120,149.926L120.6,149.926L121.2,149.263L121.8,149.263L122.4,149.263L123,147.295L123.6,147.295L124.2,147.958L124.8,147.958L125.4,152.088L126,151.425L126.6,152.089L127.2,151.425L127.8,151.425L128.4,151.425L129,153.364L129.6,153.364L130.2,154.982L130.8,154.982L131.4,156.414L132,156.414L132.6,156.414L133.2,156.414L133.8,157.077L134.4,157.077L135,157.077L135.6,155.139L136.2,155.139L136.8,155.139L137.4,151.013L138,151.013L138.6,153.547L139.2,153.547L139.8,152.115L140.4,153.987L141,154.649L141.6,153.987L142.2,154.649L142.8,154.649L143.4,156.081L144,154.649L144.6,153.987L145.2,154.649L145.8,153.987L146.4,153.987L147,153.987L147.6,153.987L148.2,153.549L148.8,153.549L149.4,153.549L150,153.549L150.6,153.549L151.2,153.549L151.8,152.885L152.4,152.885L153,151.454L153.6,151.454L154.2,152.885L154.8,152.885L155.4,152.885L156,151.454L156.6,148.924L157.2,148.924L157.8,152.294L158.4,154.825L159,154.825L159.6,154.825L160.2,156.764L160.8,154.233L161.4,154.233L162,154.233L162.6,154.233L163.2,154.895L163.8,154.895L164.4,157.426L165,154.375L165.6,151.841L166.2,154.895L166.8,154.895L167.4,152.956L168,151.25L168.6,149.818L169.2,149.818L169.8,151.246L170.4,149.307L171,151.837L171.6,151.837L172.2,151.175L172.8,153.114L173.4,151.175L174,152.607L174.6,152.607L175.2,152.607L175.8,152.015L176.4,151.96L177,150.529L177.6,153.579L178.2,152.301L178.8,154.241L179.4,152.301L180,158.713L180.6,156.771L181.2,156.18L181.8,153.579L182.4,153.579L183,158.048L183.6,161.089L184.2,156.616L184.8,156.109L185.4,158.048L186,162.53L186.6,159.999L187.2,156.629L187.8,154.095L188.4,154.69L189,154.69L189.6,154.69L190.2,154.69L190.8,154.69L191.4,154.69L192,155.351L192.6,155.351L193.2,155.197L193.8,155.197L194.4,155.859L195,155.859L195.6,158.832L196.2,158.324L196.8,158.324L197.4,161.366L198,160.263L198.6,158.832L199.2,157.663L199.8,158.17L200.4,160.263L201,160.263L201.6,160.263L202.2,162.133L202.8,162.133L203.4,162.133L204,162.133L204.6,162.133L205.2,162.133L205.8,162.133L206.4,162.133L207,161.625L207.6,161.625L208.2,161.625L208.8,162.133L209.4,162.133L210,162.641L210.6,162.641L211.2,162.641L211.8,162.641L212.4,162.133L213,161.625L213.6,161.625L214.2,162.133L214.8,162.133L215.4,160.702L216,162.133L216.6,161.625L217.2,161.625L217.8,164.072L218.4,160.194L219,160.702L219.6,159.271L220.2,159.271L220.8,158.255L221.4,158.763L222,158.763L222.6,158.763L223.2,158.763L223.8,158.255L224.4,158.763L225,158.763L225.6,158.763L226.2,158.763L226.8,158.763L227.4,158.763L228,160.702L228.6,160.702L229.2,161.21L229.8,160.702L230.4,158.101L231,156.162L231.6,156.162L232.2,156.824L232.8,158.184L233.4,158.184L234,160.04L234.6,162.571L235.2,165.172L235.8,160.194L236.4,162.725L237,162.725L237.6,160.699L238.2,163.232L238.8,163.232L239.4,162.725L240,164.156L240.6,164.156L241.2,163.649L241.8,163.649L242.4,163.649L243,163.649L243.6,161.709L244.2,161.709L244.8,161.709L245.4,163.649L246,163.649L246.6,161.554L247.2,161.554L247.8,161.554L248.4,161.554L249,161.554L249.6,161.554L250.2,161.554L250.8,161.554L251.4,161.554L252,161.554L252.6,161.554L253.2,162.985L253.8,162.985L254.4,163.649L255,163.649L255.6,163.649L256.2,163.649L256.8,166.696L257.4,165.265L258,163.326L258.6,165.265L259.2,163.326L259.8,163.326L260.4,163.833L261,163.833L261.6,164.341L262.2,163.833L262.8,163.833L263.4,163.17L264,163.17L264.6,163.17L265.2,163.17L265.8,162.662L266.4,163.833L267,163.326L267.6,163.17L268.2,163.17L268.8,163.17L269.4,163.326L270,163.833L270.6,163.17L271.2,163.833L271.8,164.601L272.4,164.601L273,164.601L273.6,164.601L274.2,164.601L274.8,164.601L275.4,164.601L276,164.601L276.6,161.553L277.2,161.553L277.8,161.553L278.4,161.553L279,161.553L279.6,161.553L280.2,161.553L280.8,161.553L281.4,161.553L282,163.419L282.6,163.419L283.2,161.48L283.8,161.48L284.4,161.48L285,161.48L285.6,161.48L286.2,163.419L286.8,163.419L287.4,160.885L288,160.885L288.6,160.885L289.2,160.885L289.8,160.885L290.4,160.885L291,160.94L291.6,163.474L292.2,163.474L292.8,163.419L293.4,163.474L294,162.043L294.6,162.81L295.2,162.81L295.8,162.81L296.4,162.81L297,162.81L297.6,162.81L298.2,162.81L298.8,162.81L299.4,162.81L300,162.81L300.6,162.81L301.2,162.81L301.8,162.81L302.4,162.81L303,162.81L303.6,162.81L304.2,162.81L304.8,162.81L305.4,160.871L306,162.81L306.6,161.38L307.2,163.318L307.8,162.81L308.4,162.81L309,163.318L309.6,162.81L310.2,162.81L310.8,162.81L311.4,165.328L312,162.81L312.6,165.328L313.2,163.389L313.8,163.389L314.4,160.855L315,160.855L315.6,160.855L316.2,160.348L316.8,163.389L317.4,160.855L318,163.389L318.6,163.389L319.2,163.389L319.8,163.389L320.4,163.389L321,159.425L321.6,160.855L322.2,160.855L322.8,160.855L323.4,160.855L324,160.855L324.6,159.425L325.2,158.917L325.8,155.944L326.4,158.917L327,158.917L327.6,158.917L328.2,158.917L328.8,158.917L329.4,155.944L330,155.944L330.6,155.944L331.2,155.944L331.8,158.917L332.4,160.348L333,161.779L333.6,161.779L334.2,158.806L334.8,161.271L335.4,161.271L336,158.298L336.6,158.298L337.2,158.298L337.8,158.298L338.4,158.298L339,158.298L339.6,158.298L340.2,158.298L340.8,158.298L341.4,161.34L342,160.832L342.6,161.34L343.2,156.711L343.8,158.146L344.4,161.782L345,161.782L345.6,161.782L346.2,159.843L346.8,161.275L347.4,159.843L348,161.275L348.6,161.275L349.2,161.275L349.8,158.757L350.4,158.757L351,158.757L351.6,159.42L352.2,159.42L352.8,157.989L353.4,159.42L354,157.989L354.6,157.989L355.2,157.989L355.8,157.989L356.4,157.989L357,157.326L357.6,155.894L358.2,155.894L358.8,155.894L359.4,155.894L360,155.894L360.6,155.894L361.2,155.894L361.8,155.894L362.4,155.894L363,157.833L363.6,157.833L364.2,157.833L364.8,157.833L365.4,159.265L366,159.265L366.6,159.265L367.2,158.757L367.8,158.757L368.4,159.421L369,159.421L369.6,159.421L370.2,159.421L370.8,159.421L371.4,158.757L372,159.421L372.6,158.757L373.2,158.757L373.8,158.757L374.4,158.194L375,156.652L375.6,156.652L376.2,159.625L376.8,157.686L377.4,159.625L378,155.221L378.6,155.221L379.2,155.221L379.8,155.221L380.4,156.652L381,156.652L381.6,156.652L382.2,156.652L382.8,156.652L383.4,156.652L384,155.989L384.6,156.496L385.2,156.513L385.8,156.513L386.4,156.513L387,156.513L387.6,156.513L388.2,159.561L388.8,160.732L389.4,160.068L390,160.068L390.6,160.732L391.2,160.732L391.8,160.732L392.4,160.732L393,162.164L393.6,162.164L394.2,162.164L394.8,162.164L395.4,162.164L396,162.654L396.6,162.147L397.2,162.654L397.8,160.784L398.4,160.784L399,161.465L399.6,161.465L400.2,161.972L400.8,161.465L401.4,162.636L402,162.128L402.6,162.128L403.2,160.189L403.8,158.758L404.4,158.758L405,158.758L405.6,158.758L406.2,158.758L406.8,158.758L407.4,158.758L408,158.758L408.6,158.758L409.2,158.758L409.8,158.758L410.4,158.758L411,158.758L411.6,158.758L412.2,158.758L412.8,160.697L413.4,160.697L414,160.697L414.6,160.697L415.2,160.697L415.8,157.649L416.4,156.986L417,156.478L417.6,155.046L418.2,155.046L418.8,156.986L419.4,156.461L420,159.509L420.6,159.509L421.2,159.509L421.8,160.172L422.4,160.172L423,160.172L423.6,162.111L424.2,160.68L424.8,162.042L425.4,161.379L426,162.042L426.6,162.042L427.2,162.55L427.8,159.948L428.4,159.948L429,159.44L429.6,159.948L430.2,159.948L430.8,159.948L431.4,159.948L432,159.948L432.6,159.948L433.2,159.44L433.8,159.948L434.4,159.948L435,159.948L435.6,159.44L436.2,159.44L436.8,159.44L437.4,160.611L438,160.611L438.6,160.103L439.2,158.741L439.8,160.628L440.4,158.758L441,157.57L441.6,155.544L442.2,158.586L442.8,158.741L443.4,159.249L444,158.741L444.6,158.741L445.2,158.741L445.8,158.741L446.4,156.208L447,160.611L447.6,161.119L448.2,161.119L448.8,161.119L449.4,161.119L450,161.119L450.6,158.585L451.2,161.119L451.8,161.119L452.4,161.119L453,161.119L453.6,159.18L454.2,159.18L454.8,159.18L455.4,159.18L456,159.18L456.6,161.119L457.2,161.119L457.8,159.18L458.4,159.18L459,159.18L459.6,159.18L460.2,159.18L460.8,159.18L461.4,157.24L462,157.804L462.6,158.311L463.2,159.673L463.8,160.181L464.4,158.311L465,160.25L465.6,158.311L466.2,160.25L466.8,159.742L467.4,159.742L468,160.25L468.6,160.25L469.2,159.742L469.8,159.742L470.4,159.742L471,159.742L471.6,159.742L472.2,159.742L472.8,159.742L473.4,159.742L474,159.742L474.6,159.742L475.2,157.873L475.8,159.742L476.4,155.934L477,155.934L477.6,155.934L478.2,155.934L478.8,155.934L479.4,155.934L480,155.934L480.6,155.934L481.2,155.934L481.8,155.934L482.4,155.426L483,155.426L483.6,155.934L484.2,155.934L484.8,157.873L485.4,155.934L486,155.934L486.6,155.934L487.2,157.873L487.8,158.381L488.4,157.873L489,157.873L489.6,157.873L490.2,157.873L490.8,157.873L491.4,160.406L492,154.823L492.6,154.823L493.2,156.693L493.8,154.823L494.4,154.823L495,154.767L495.6,154.767L496.2,154.767L496.8,154.767L497.4,154.767L498,157.301L498.6,154.767L499.2,154.767L499.8,154.767L500.4,154.767L501,154.767L501.6,154.767L502.2,154.823L502.8,154.823L503.4,157.356L504,157.356L504.6,157.356L505.2,154.823L505.8,154.823L506.4,152.884L507,153.391L507.6,154.823L508.2,152.884L508.8,152.884L509.4,154.823L510,152.376L510.6,152.884L511.2,151.452L511.8,152.884L512.4,152.884L513,152.884L513.6,152.884L514.2,152.884L514.8,152.22L515.4,152.884L516,152.376L516.6,151.712L517.2,151.712L517.8,151.712L518.4,151.712L519,151.657L519.6,152.165L520.2,152.165L520.8,152.165L521.4,152.165L522,150.734L522.6,151.241L523.2,151.241L523.8,151.241L524.4,151.296L525,151.296L525.6,150.789L526.2,150.789L526.8,150.789L527.4,150.789L528,150.789L528.6,150.789L529.2,150.789L529.8,150.789L530.4,150.789L531,150.789L531.6,150.789L532.2,150.789L532.8,150.789L533.4,151.296L534,150.789L534.6,150.281L535.2,150.281L535.8,150.281L536.4,150.281L537,152.151L537.6,150.789L538.2,152.659L538.8,152.659L539.4,152.659L540,152.151L540.6,152.151L541.2,152.151L541.8,152.151L542.4,152.151L543,152.151L543.6,152.151L544.2,152.151L544.8,152.151L545.4,152.151L546,152.151L546.6,152.151L547.2,152.151L547.8,152.659L548.4,152.659L549,152.659L549.6,152.659L550.2,152.659L550.8,152.659L551.4,152.659L552,152.659L552.6,152.659L553.2,152.659L553.8,152.659L554.4,152.659L555,155.632L555.6,155.632L556.2,155.632L556.8,155.632L557.4,155.632L558,155.632L558.6,155.632L559.2,155.632L559.8,155.632L560.4,157.571L561,157.571L561.6,155.632L562.2,155.632L562.8,155.632L563.4,155.632L564,155.632L564.6,155.632L565.2,155.632L565.8,155.632L566.4,155.632L567,155.632L567.6,156.295L568.2,155.632L568.8,155.632L569.4,154.968L570,154.968L570.6,156.908L571.2,156.908L571.8,156.908L572.4,156.908L573,156.908L573.6,156.908L574.2,156.908L574.8,156.908L575.4,156.908L576,156.908L576.6,156.908L577.2,156.908L577.8,154.374L578.4,154.374L579,152.508L579.6,152.508L580.2,152.508L580.8,152.508L581.4,151.845L582,151.845L582.6,151.845L583.2,151.845L583.8,151.845L584.4,151.845L585,151.845L585.6,151.845L586.2,151.845L586.8,151.845L587.4,151.845L588,151.845L588.6,151.845L589.2,151.845L589.8,151.845L590.4,151.845L591,151.845L591.6,151.337L592.2,151.337L592.8,151.337L593.4,151.845L594,151.845L594.6,151.845L595.2,151.845L595.8,151.845L596.4,151.845L597,151.845L597.6,151.845L598.2,151.838L598.8,151.845L599.4,151.845" stroke="#000000" stroke-width="2"/></g></g><path class="foreground" aria-hidden="true" d="" display="none"/></g><g transform="translate(0,0)"><path class="background" aria-hidden="true" d="M0,0h600v300h-600Z"/><g><g class="mark-line role-mark marks" role="graphics-object" aria-roledescription="line mark container"><path aria-label="Model Iterations: 0; Normalized Discounted Cumulative Gain: 0.869026651843; Truncation Level: 4" role="graphics-symbol" aria-roledescription="line mark" d="M0,130.973L0.6,151.567L1.2,138.508L1.8,134.928L2.4,133.2L3,132.831L3.6,130.179L4.2,127.745L4.8,122.442L5.4,125.376L6,131.328L6.6,129.725L7.2,131.461L7.8,129.178L8.4,125.657L9,124.316L9.6,119.656L10.2,115.473L10.8,115.829L11.4,117.206L12,117.779L12.6,118.145L13.2,116.73L13.8,123.266L14.4,119.016L15,118.655L15.6,114.492L16.2,112.2L16.8,109.031L17.4,119.78L18,118.966L18.6,121.363L19.2,119.974L19.8,123.806L20.4,123.737L21,123.836L21.6,124.066L22.2,122.971L22.8,126.099L23.4,124.733L24,125.241L24.6,125.328L25.2,124.195L25.8,125.15L26.4,121.088L27,122.459L27.6,121.404L28.2,120.839L28.8,118.657L29.4,117.962L30,119.632L30.6,119.632L31.2,122.683L31.8,124.537L32.4,120.132L33,120.356L33.6,122.825L34.2,125.631L34.8,125.631L35.4,126.295L36,126.295L36.6,124.112L37.2,124.113L37.8,123.604L38.4,122.413L39,122.764L39.6,120.231L40.2,120.231L40.8,122.532L41.4,122.532L42,121.17L42.6,120.507L43.2,120.507L43.8,122.688L44.4,125.221L45,124.207L45.6,124.475L46.2,124.646L46.8,124.646L47.4,123.326L48,123.639L48.6,123.639L49.2,121.457L49.8,125.493L50.4,122.888L51,121.769L51.6,119.669L52.2,121.101L52.8,121.37L53.4,123.283L54,121.101L54.6,121.37L55.2,122.499L55.8,124.681L56.4,124.681L57,124.681L57.6,126.551L58.2,126.553L58.8,126.553L59.4,122.854L60,124.372L60.6,120.864L61.2,120.513L61.8,120.514L62.4,121.944L63,121.066L63.6,121.768L64.2,122.959L64.8,122.959L65.4,122.7L66,123.095L66.6,122.7L67.2,121.357L67.8,121.357L68.4,122.021L69,120.83L69.6,120.83L70.2,121.909L70.8,121.909L71.4,121.726L72,123.115L72.6,121.685L73.2,122.875L73.8,130.095L74.4,129.432L75,128.482L75.6,126.964L76.2,126.964L76.8,124.119L77.4,122.929L78,123.16L78.6,124.351L79.2,126.532L79.8,126.532L80.4,126.532L81,125.997L81.6,126.221L82.2,125.997L82.8,124.384L83.4,125.591L84,125.59L84.6,124.927L85.2,124.927L85.8,124.927L86.4,123.029L87,123.925L87.6,123.925L88.2,123.92L88.8,124.076L89.4,124.076L90,123.92L90.6,122.912L91.2,124.965L91.8,120.772L92.4,120.772L93,122.636L93.6,122.912L94.2,120.647L94.8,118.929L95.4,116.6L96,120.311L96.6,119.648L97.2,121.314L97.8,121.582L98.4,120.962L99,120.962L99.6,124.062L100.2,122.392L100.8,121.821L101.4,123.181L102,123.957L102.6,124.839L103.2,123.449L103.8,125.786L104.4,125.02L105,124.629L105.6,125.137L106.2,126.295L106.8,126.026L107.4,127.896L108,128.828L108.6,128.559L109.2,128.559L109.8,126.89L110.4,126.457L111,126.457L111.6,126.457L112.2,126.457L112.8,127.847L113.4,127.847L114,126.457L114.6,123.86L115.2,123.509L115.8,122.783L116.4,125.604L117,121.991L117.6,120.023L118.2,120.023L118.8,123.071L119.4,123.071L120,121.64L120.6,121.64L121.2,120.976L121.8,119.587L122.4,119.587L123,117.619L123.6,117.619L124.2,118.283L124.8,118.283L125.4,118.855L126,118.193L126.6,118.856L127.2,118.193L127.8,118.193L128.4,118.193L129,118.462L129.6,118.462L130.2,120.08L130.8,120.08L131.4,121.512L132,119.329L132.6,121.512L133.2,119.329L133.8,119.993L134.4,119.993L135,119.993L135.6,119.724L136.2,119.724L136.8,119.724L137.4,119.152L138,119.152L138.6,119.503L139.2,119.503L139.8,118.072L140.4,117.762L141,118.423L141.6,117.762L142.2,118.423L142.8,118.423L143.4,119.855L144,118.423L144.6,119.944L145.2,120.606L145.8,119.944L146.4,119.944L147,119.944L147.6,119.944L148.2,119.506L148.8,119.506L149.4,119.506L150,119.506L150.6,119.506L151.2,118.713L151.8,118.05L152.4,119.439L153,118.008L153.6,120.19L154.2,119.439L154.8,118.05L155.4,119.439L156,118.008L156.6,116.267L157.2,117.657L157.8,119.312L158.4,119.663L159,119.663L159.6,119.663L160.2,119.932L160.8,119.581L161.4,118.191L162,118.191L162.6,118.191L163.2,118.853L163.8,118.852L164.4,119.203L165,117.543L165.6,115.802L166.2,120.242L166.8,118.852L167.4,118.584L168,117.109L168.6,114.288L169.2,115.678L169.8,117.109L170.4,116.885L171,115.567L171.6,115.567L172.2,114.906L172.8,115.129L173.4,114.897L174,113.269L174.6,113.269L175.2,114.939L175.8,114.857L176.4,116.239L177,113.418L177.6,117.858L178.2,118.25L178.8,116.803L179.4,116.58L180,117.378L180.6,117.154L181.2,117.027L181.8,116.142L182.4,117.813L183,118.387L183.6,119.245L184.2,118.67L184.8,119.832L185.4,120.101L186,124.583L186.6,124.232L187.2,122.577L187.8,120.555L188.4,120.638L189,120.638L189.6,120.638L190.2,119.248L190.8,120.638L191.4,119.248L192,119.909L192.6,119.909L193.2,119.756L193.8,119.756L194.4,120.417L195,120.417L195.6,123.39L196.2,122.882L196.8,122.882L197.4,123.741L198,124.821L198.6,123.39L199.2,122.221L199.8,122.729L200.4,123.152L201,123.152L201.6,123.152L202.2,125.021L202.8,125.021L203.4,125.021L204,126.411L204.6,126.411L205.2,126.411L205.8,126.411L206.4,126.69L207,126.183L207.6,126.183L208.2,126.183L208.8,126.69L209.4,126.69L210,127.198L210.6,127.198L211.2,127.198L211.8,127.198L212.4,126.69L213,126.183L213.6,126.183L214.2,126.69L214.8,128.08L215.4,126.649L216,128.08L216.6,127.572L217.2,127.572L217.8,128.349L218.4,126.142L219,126.649L219.6,125.218L220.2,125.218L220.8,124.203L221.4,126.893L222,126.893L222.6,126.893L223.2,126.893L223.8,126.385L224.4,126.893L225,124.71L225.6,124.71L226.2,125.503L226.8,123.321L227.4,123.321L228,123.59L228.6,123.59L229.2,124.097L229.8,123.59L230.4,122.66L231,122.391L231.6,122.391L232.2,123.137L232.8,123.702L233.4,123.709L234,124.358L234.6,124.709L235.2,125.639L235.8,124.505L236.4,124.856L237,124.856L237.6,125.012L238.2,125.364L238.8,125.37L239.4,124.863L240,126.294L240.6,126.294L241.2,125.786L241.8,125.786L242.4,125.786L243,125.786L243.6,125.563L244.2,125.563L244.8,125.563L245.4,125.786L246,125.786L246.6,122.021L247.2,122.021L247.8,125.874L248.4,122.021L249,122.021L249.6,122.021L250.2,122.021L250.8,122.021L251.4,122.021L252,122.021L252.6,122.021L253.2,123.452L253.8,123.452L254.4,125.786L255,125.786L255.6,125.786L256.2,125.786L256.8,128.834L257.4,127.402L258,127.179L258.6,126.013L259.2,125.789L259.8,126.301L260.4,124.626L261,128.479L261.6,128.987L262.2,126.809L262.8,126.809L263.4,126.146L264,123.963L264.6,123.963L265.2,123.963L265.8,123.456L266.4,124.626L267,124.119L267.6,123.963L268.2,123.963L268.8,123.963L269.4,124.119L270,124.626L270.6,123.963L271.2,124.626L271.8,125.394L272.4,125.394L273,126.783L273.6,126.783L274.2,126.783L274.8,125.394L275.4,126.783L276,126.783L276.6,123.736L277.2,123.736L277.8,123.736L278.4,123.736L279,123.736L279.6,120.185L280.2,123.736L280.8,123.736L281.4,120.185L282,125.599L282.6,125.599L283.2,123.941L283.8,123.941L284.4,120.391L285,121.78L285.6,121.78L286.2,122.004L286.8,122.004L287.4,121.652L288,121.652L288.6,121.653L289.2,121.653L289.8,121.653L290.4,120.263L291,121.66L291.6,122.012L292.2,122.012L292.8,122.004L293.4,122.012L294,120.581L294.6,121.348L295.2,121.348L295.8,121.348L296.4,121.348L297,121.348L297.6,121.348L298.2,121.348L298.8,124.899L299.4,124.899L300,124.898L300.6,124.898L301.2,124.899L301.8,124.899L302.4,124.898L303,124.898L303.6,124.898L304.2,124.898L304.8,124.899L305.4,122.469L306,122.692L306.6,121.262L307.2,123.115L307.8,122.692L308.4,122.692L309,123.115L309.6,122.692L310.2,122.692L310.8,122.692L311.4,123.041L312,122.692L312.6,123.041L313.2,122.772L313.8,122.772L314.4,122.421L315,122.421L315.6,122.421L316.2,121.913L316.8,124.357L317.4,124.006L318,124.357L318.6,124.357L319.2,124.357L319.8,124.357L320.4,124.357L321,122.575L321.6,124.006L322.2,124.006L322.8,122.337L323.4,124.006L324,124.006L324.6,122.575L325.2,122.068L325.8,119.094L326.4,122.068L327,122.068L327.6,122.068L328.2,122.068L328.8,122.068L329.4,119.094L330,119.094L330.6,119.094L331.2,119.094L331.8,120.399L332.4,121.83L333,123.26L333.6,123.26L334.2,120.287L334.8,122.753L335.4,122.753L336,119.78L336.6,119.78L337.2,123.631L337.8,121.449L338.4,121.449L339,121.449L339.6,121.449L340.2,121.449L340.8,121.449L341.4,122.308L342,121.8L342.6,122.308L343.2,119.862L343.8,121.293L344.4,124.93L345,127.112L345.6,127.112L346.2,125.259L346.8,126.69L347.4,125.259L348,126.69L348.6,126.69L349.2,126.69L349.8,126.341L350.4,126.341L351,126.341L351.6,125.615L352.2,125.615L352.8,125.573L353.4,127.005L354,124.184L354.6,122.794L355.2,122.794L355.8,122.794L356.4,122.794L357,122.131L357.6,120.94L358.2,120.94L358.8,120.94L359.4,120.94L360,120.94L360.6,120.94L361.2,120.94L361.8,120.94L362.4,120.94L363,121.209L363.6,121.209L364.2,121.209L364.8,122.599L365.4,124.03L366,124.03L366.6,124.03L367.2,121.853L367.8,121.853L368.4,122.517L369,122.517L369.6,122.517L370.2,122.517L370.8,122.517L371.4,121.853L372,122.517L372.6,121.853L373.2,120.464L373.8,122.133L374.4,121.617L375,119.835L375.6,119.835L376.2,122.808L376.8,122.584L377.4,122.808L378,118.644L378.6,118.644L379.2,118.644L379.8,118.644L380.4,119.835L381,119.835L381.6,119.835L382.2,119.835L382.8,118.166L383.4,119.835L384,117.502L384.6,116.255L385.2,116.271L385.8,116.271L386.4,116.271L387,116.271L387.6,116.271L388.2,119.319L388.8,120.49L389.4,119.827L390,119.827L390.6,120.49L391.2,120.49L391.8,120.49L392.4,120.49L393,120.251L393.6,122.434L394.2,122.434L394.8,122.434L395.4,122.434L396,122.925L396.6,122.417L397.2,122.925L397.8,121.055L398.4,121.055L399,121.735L399.6,121.735L400.2,122.242L400.8,121.735L401.4,122.906L402,122.398L402.6,122.398L403.2,122.129L403.8,122.328L404.4,122.328L405,120.939L405.6,120.939L406.2,120.939L406.8,122.328L407.4,122.328L408,122.328L408.6,122.328L409.2,122.328L409.8,122.328L410.4,122.328L411,122.328L411.6,122.328L412.2,122.328L412.8,122.597L413.4,122.591L414,124.254L414.6,122.87L415.2,124.54L415.8,122.882L416.4,122.219L417,123.14L417.6,121.95L418.2,121.95L418.8,122.213L419.4,123.118L420,126.166L420.6,126.166L421.2,126.166L421.8,126.829L422.4,126.829L423,126.829L423.6,127.098L424.2,127.297L424.8,128.744L425.4,126.692L426,128.744L426.6,127.355L427.2,127.777L427.8,126.845L428.4,126.845L429,126.423L429.6,126.845L430.2,126.845L430.8,126.845L431.4,126.845L432,126.845L432.6,126.845L433.2,126.423L433.8,126.845L434.4,126.845L435,126.845L435.6,126.423L436.2,126.423L436.8,126.423L437.4,127.508L438,127.508L438.6,127.086L439.2,125.639L439.8,127.525L440.4,125.656L441,124.553L441.6,124.71L442.2,125.483L442.8,125.724L443.4,126.147L444,125.724L444.6,125.724L445.2,125.724L445.8,125.724L446.4,125.373L447,127.594L447.6,128.016L448.2,128.016L448.8,128.016L449.4,128.016L450,128.016L450.6,127.665L451.2,128.016L451.8,128.016L452.4,128.016L453,128.016L453.6,127.793L454.2,127.793L454.8,127.793L455.4,127.793L456,127.793L456.6,128.016L457.2,128.016L457.8,127.793L458.4,127.793L459,127.793L459.6,127.793L460.2,127.793L460.8,127.793L461.4,127.524L462,128.045L462.6,128.553L463.2,129.915L463.8,130.422L464.4,128.553L465,128.821L465.6,128.555L466.2,128.821L466.8,128.316L467.4,128.316L468,128.821L468.6,128.821L469.2,128.314L469.8,128.314L470.4,128.314L471,128.316L471.6,128.314L472.2,128.316L472.8,128.316L473.4,128.316L474,128.316L474.6,128.316L475.2,126.446L475.8,128.316L476.4,126.177L477,126.177L477.6,126.177L478.2,126.177L478.8,126.177L479.4,126.177L480,126.177L480.6,126.177L481.2,126.177L481.8,126.177L482.4,125.669L483,125.669L483.6,126.177L484.2,126.177L484.8,126.446L485.4,126.177L486,124.788L486.6,124.788L487.2,125.057L487.8,125.564L488.4,125.057L489,125.057L489.6,125.057L490.2,125.057L490.8,125.057L491.4,125.408L492,122.006L492.6,122.006L493.2,121.694L493.8,122.006L494.4,122.006L495,121.999L495.6,121.999L496.2,121.999L496.8,121.999L497.4,121.997L498,122.348L498.6,121.997L499.2,121.997L499.8,121.997L500.4,121.999L501,121.999L501.6,121.997L502.2,122.004L502.8,122.007L503.4,122.358L504,122.358L504.6,122.358L505.2,122.007L505.8,122.007L506.4,121.738L507,120.816L507.6,122.007L508.2,121.738L508.8,121.738L509.4,122.007L510,121.23L510.6,121.738L511.2,120.547L511.8,121.738L512.4,121.738L513,121.738L513.6,121.738L514.2,121.738L514.8,121.074L515.4,121.738L516,121.23L516.6,120.567L517.2,120.567L517.8,120.567L518.4,120.567L519,120.559L519.6,121.067L520.2,121.067L520.8,121.067L521.4,121.067L522,119.876L522.6,120.383L523.2,120.383L523.8,120.383L524.4,120.391L525,120.391L525.6,119.883L526.2,119.883L526.8,119.883L527.4,119.883L528,119.883L528.6,119.883L529.2,119.883L529.8,119.883L530.4,119.883L531,119.883L531.6,119.883L532.2,119.883L532.8,119.883L533.4,120.391L534,119.883L534.6,119.376L535.2,117.986L535.8,117.986L536.4,117.986L537,119.856L537.6,118.494L538.2,121.753L538.8,121.753L539.4,121.753L540,121.246L540.6,121.246L541.2,121.246L541.8,119.856L542.4,119.856L543,121.246L543.6,121.246L544.2,121.246L544.8,121.246L545.4,121.246L546,121.246L546.6,121.246L547.2,121.246L547.8,121.753L548.4,121.753L549,121.753L549.6,121.753L550.2,121.753L550.8,121.753L551.4,121.753L552,121.753L552.6,121.753L553.2,121.753L553.8,121.753L554.4,121.753L555,124.726L555.6,124.726L556.2,124.726L556.8,124.726L557.4,124.726L558,124.726L558.6,124.726L559.2,124.726L559.8,124.726L560.4,124.995L561,124.995L561.6,124.726L562.2,124.726L562.8,124.726L563.4,124.768L564,124.768L564.6,124.768L565.2,124.768L565.8,124.768L566.4,124.768L567,124.768L567.6,125.432L568.2,124.768L568.8,124.768L569.4,124.105L570,124.105L570.6,124.374L571.2,124.374L571.8,124.374L572.4,124.374L573,124.374L573.6,124.374L574.2,124.374L574.8,124.374L575.4,124.374L576,124.374L576.6,124.374L577.2,124.374L577.8,124.022L578.4,124.022L579,122.158L579.6,122.158L580.2,122.158L580.8,122.158L581.4,121.495L582,121.495L582.6,121.495L583.2,121.495L583.8,121.495L584.4,121.453L585,121.453L585.6,121.495L586.2,121.495L586.8,121.495L587.4,121.495L588,121.495L588.6,121.453L589.2,121.453L589.8,121.453L590.4,121.453L591,121.453L591.6,120.946L592.2,120.946L592.8,120.946L593.4,121.453L594,121.453L594.6,121.453L595.2,121.453L595.8,121.495L596.4,121.495L597,121.495L597.6,121.495L598.2,121.494L598.8,121.495L599.4,121.495" stroke="#0C0A3E" stroke-width="2"/></g></g><path class="foreground" aria-hidden="true" d="" display="none"/></g><g transform="translate(0,0)"><path class="background" aria-hidden="true" d="M0,0h600v300h-600Z"/><g><g class="mark-line role-mark marks" role="graphics-object" aria-roledescription="line mark container"><path aria-label="Model Iterations: 0; Normalized Discounted Cumulative Gain: 0.884260691776; Truncation Level: 5" role="graphics-symbol" aria-roledescription="line mark" d="M0,115.739L0.6,134.486L1.2,126.964L1.8,120.257L2.4,118.699L3,118.325L3.6,117.223L4.2,110.058L4.8,108.935L5.4,110.629L6,118.026L6.6,115.482L7.2,117.219L7.8,113.406L8.4,109.173L9,107.316L9.6,104.461L10.2,99.031L10.8,98.676L11.4,98.579L12,99.125L12.6,98.147L13.2,98.244L13.8,104.556L14.4,102.564L15,101.952L15.6,101.25L16.2,99.013L16.8,96.899L17.4,102.939L18,102.126L18.6,104.396L19.2,104.248L19.8,105.333L20.4,105.011L21,103.868L21.6,104.068L22.2,102.967L22.8,107.596L23.4,104.729L24,105.237L24.6,105.168L25.2,107.481L25.8,105.139L26.4,104.53L27,104.259L27.6,101.4L28.2,102.781L28.8,102.558L29.4,103.358L30,105.033L30.6,105.028L31.2,109.584L31.8,111.276L32.4,106.885L33,107.108L33.6,109.564L34.2,112.37L34.8,112.37L35.4,113.034L36,113.035L36.6,112.812L37.2,112.813L37.8,112.304L38.4,111.269L39,111.62L39.6,109.087L40.2,109.092L40.8,111.394L41.4,111.394L42,110.032L42.6,109.368L43.2,109.368L43.8,109.59L44.4,112.123L45,111.106L45.6,111.374L46.2,111.574L46.8,111.574L47.4,111.756L48,112.068L48.6,112.071L49.2,111.846L49.8,113.925L50.4,113.277L51,110.198L51.6,110.058L52.2,111.49L52.8,111.759L53.4,111.712L54,111.49L54.6,111.759L55.2,110.928L55.8,111.15L56.4,111.15L57,111.15L57.6,113.02L58.2,113.022L58.8,113.022L59.4,113.242L60,112.8L60.6,111.252L61.2,110.901L61.8,110.901L62.4,112.332L63,111.61L63.6,112.312L64.2,113.347L64.8,113.347L65.4,113.244L66,113.639L66.6,113.244L67.2,111.745L67.8,111.745L68.4,112.409L69,111.374L69.6,111.374L70.2,112.453L70.8,112.453L71.4,113.518L72,112.159L72.6,110.736L73.2,111.763L73.8,113.567L74.4,112.904L75,111.242L75.6,111.691L76.2,111.691L76.8,110.798L77.4,109.772L78,110.004L78.6,111.038L79.2,111.26L79.8,111.26L80.4,111.26L81,112.684L81.6,112.908L82.2,112.684L82.8,111.071L83.4,112.278L84,112.277L84.6,111.614L85.2,111.614L85.8,111.614L86.4,111.212L87,113.192L87.6,113.192L88.2,113.191L88.8,113.348L89.4,113.348L90,113.191L90.6,112.184L91.2,112.988L91.8,110.292L92.4,110.292L93,112.155L93.6,112.184L94.2,109.919L94.8,106.953L95.4,106.12L96,109.831L96.6,109.168L97.2,109.337L97.8,109.606L98.4,108.978L99,108.978L99.6,110.592L100.2,110.408L100.8,109.837L101.4,110.962L102,110.669L102.6,111.369L103.2,111.231L103.8,111.609L104.4,112.341L105,108.771L105.6,109.278L106.2,108.94L106.8,108.672L107.4,110.542L108,111.474L108.6,111.205L109.2,111.205L109.8,109.951L110.4,109.103L111,109.103L111.6,109.103L112.2,109.103L112.8,109.226L113.4,109.226L114,109.103L114.6,105.239L115.2,104.903L115.8,105.429L116.4,106.998L117,105.345L117.6,103.377L118.2,103.377L118.8,106.425L119.4,106.425L120,104.993L120.6,104.994L121.2,104.33L121.8,104.208L122.4,104.208L123,102.24L123.6,102.24L124.2,102.903L124.8,102.903L125.4,103.476L126,102.814L126.6,103.477L127.2,102.814L127.8,102.814L128.4,102.814L129,103.082L129.6,103.082L130.2,104.701L130.8,104.701L131.4,106.132L132,105.91L132.6,106.132L133.2,105.91L133.8,106.574L134.4,106.574L135,106.574L135.6,106.305L136.2,106.305L136.8,106.305L137.4,105.733L138,105.733L138.6,106.084L139.2,106.084L139.8,104.653L140.4,104.343L141,105.004L141.6,104.343L142.2,105.004L142.8,105.004L143.4,106.435L144,105.004L144.6,104.565L145.2,105.226L145.8,104.565L146.4,104.565L147,104.565L147.6,104.565L148.2,104.126L148.8,104.126L149.4,104.126L150,104.126L150.6,104.111L151.2,104.027L151.8,103.363L152.4,103.486L153,102.055L153.6,102.277L154.2,103.486L154.8,103.348L155.4,103.471L156,102.055L156.6,101.566L157.2,101.689L157.8,103.315L158.4,103.666L159,102.166L159.6,102.166L160.2,102.434L160.8,102.084L161.4,101.961L162,101.976L162.6,101.976L163.2,102.637L163.8,102.637L164.4,102.988L165,100.06L165.6,99.586L166.2,102.752L166.8,102.63L167.4,102.361L168,99.62L168.6,98.065L169.2,98.188L169.8,99.619L170.4,99.425L171,99.606L171.6,99.606L172.2,98.945L172.8,99.139L173.4,98.944L174,100.082L174.6,100.082L175.2,100.252L175.8,100.17L176.4,100.286L177,98.731L177.6,101.904L178.2,102.297L178.8,102.321L179.4,102.127L180,102.866L180.6,102.672L181.2,102.515L181.8,101.66L182.4,101.83L183,102.375L183.6,103.232L184.2,102.687L184.8,102.35L185.4,102.619L186,107.101L186.6,106.75L187.2,105.095L187.8,104.574L188.4,104.656L189,104.656L189.6,104.656L190.2,104.515L190.8,104.656L191.4,104.515L192,105.176L192.6,105.176L193.2,105.022L193.8,105.022L194.4,105.683L195,105.683L195.6,108.656L196.2,108.149L196.8,108.149L197.4,109.008L198,110.087L198.6,108.656L199.2,107.488L199.8,107.995L200.4,109.917L201,109.917L201.6,109.917L202.2,111.787L202.8,111.787L203.4,111.787L204,111.928L204.6,111.928L205.2,111.928L205.8,111.928L206.4,111.957L207,111.449L207.6,111.449L208.2,112.533L208.8,111.957L209.4,111.957L210,112.464L210.6,112.464L211.2,112.464L211.8,112.464L212.4,113.041L213,112.533L213.6,112.533L214.2,113.041L214.8,113.182L215.4,111.752L216,113.182L216.6,112.675L217.2,112.675L217.8,113.451L218.4,111.244L219,111.752L219.6,110.321L220.2,110.321L220.8,109.305L221.4,110.035L222,110.035L222.6,110.035L223.2,110.035L223.8,109.527L224.4,110.035L225,109.813L225.6,109.813L226.2,109.893L226.8,109.671L227.4,109.671L228,109.94L228.6,109.94L229.2,110.448L229.8,109.94L230.4,109.01L231,108.741L231.6,108.741L232.2,111.036L232.8,110.34L233.4,110.341L234,110.99L234.6,111.341L235.2,112.271L235.8,111.143L236.4,111.494L237,111.494L237.6,111.65L238.2,112.002L238.8,112.002L239.4,111.495L240,112.926L240.6,112.926L241.2,112.418L241.8,112.418L242.4,112.418L243,112.418L243.6,112.224L244.2,112.224L244.8,112.224L245.4,112.418L246,112.418L246.6,110.154L247.2,110.154L247.8,110.545L248.4,110.153L249,110.153L249.6,110.153L250.2,110.153L250.8,110.138L251.4,110.138L252,110.138L252.6,110.138L253.2,111.57L253.8,111.57L254.4,112.403L255,112.403L255.6,112.403L256.2,112.403L256.8,115.451L257.4,114.019L258,113.825L258.6,113.897L259.2,113.702L259.8,113.754L260.4,114.04L261,114.432L261.6,114.94L262.2,114.262L262.8,112.769L263.4,112.106L264,111.884L264.6,113.377L265.2,113.377L265.8,112.869L266.4,114.04L267,113.532L267.6,113.377L268.2,113.377L268.8,113.377L269.4,113.532L270,114.04L270.6,113.377L271.2,114.04L271.8,114.807L272.4,114.807L273,114.93L273.6,114.93L274.2,114.93L274.8,114.807L275.4,114.93L276,114.93L276.6,111.882L277.2,111.882L277.8,111.882L278.4,111.882L279,111.882L279.6,111.521L280.2,111.882L280.8,111.882L281.4,111.521L282,113.746L282.6,113.746L283.2,113.354L283.8,113.354L284.4,112.993L285,113.116L285.6,113.116L286.2,113.31L286.8,113.31L287.4,112.959L288,112.959L288.6,112.959L289.2,111.466L289.8,112.959L290.4,112.836L291,112.985L291.6,113.336L292.2,111.844L292.8,111.836L293.4,111.844L294,110.413L294.6,111.18L295.2,111.18L295.8,111.18L296.4,111.18L297,111.18L297.6,111.18L298.2,111.18L298.8,111.541L299.4,111.541L300,111.541L300.6,111.541L301.2,111.541L301.8,111.541L302.4,111.541L303,111.541L303.6,111.541L304.2,111.541L304.8,111.541L305.4,111.034L306,111.229L306.6,109.798L307.2,111.595L307.8,111.229L308.4,111.229L309,111.595L309.6,111.229L310.2,111.229L310.8,111.229L311.4,111.577L312,111.229L312.6,111.577L313.2,111.308L313.8,111.308L314.4,110.957L315,110.957L315.6,110.957L316.2,110.449L316.8,111.338L317.4,110.986L318,111.338L318.6,111.338L319.2,111.338L319.8,111.338L320.4,111.338L321,109.556L321.6,110.986L322.2,110.986L322.8,110.816L323.4,110.986L324,110.986L324.6,109.556L325.2,110.548L325.8,107.575L326.4,110.548L327,110.548L327.6,110.548L328.2,109.048L328.8,109.048L329.4,106.075L330,106.075L330.6,107.575L331.2,107.575L331.8,110.378L332.4,111.81L333,113.24L333.6,113.24L334.2,110.267L334.8,112.733L335.4,112.733L336,109.76L336.6,109.759L337.2,110.151L337.8,109.929L338.4,109.929L339,109.929L339.6,109.929L340.2,109.929L340.8,109.929L341.4,110.788L342,110.281L342.6,110.788L343.2,108.342L343.8,109.774L344.4,113.411L345,113.633L345.6,113.633L346.2,111.834L346.8,113.266L347.4,111.834L348,113.266L348.6,113.266L349.2,113.266L349.8,112.917L350.4,112.917L351,112.917L351.6,113.439L352.2,113.458L352.8,112.149L353.4,113.581L354,112.008L354.6,111.885L355.2,111.885L355.8,111.885L356.4,111.885L357,111.222L357.6,110.187L358.2,110.187L358.8,110.187L359.4,110.187L360,110.187L360.6,110.187L361.2,110.187L361.8,110.187L362.4,110.187L363,110.456L363.6,110.456L364.2,110.456L364.8,110.597L365.4,112.029L366,112.029L366.6,112.029L367.2,111.351L367.8,111.351L368.4,112.015L369,112.015L369.6,112.015L370.2,112.015L370.8,112.015L371.4,111.351L372,112.015L372.6,111.351L373.2,111.21L373.8,111.38L374.4,110.864L375,108.926L375.6,108.926L376.2,111.899L376.8,111.675L377.4,111.899L378,107.891L378.6,107.891L379.2,107.891L379.8,107.891L380.4,108.926L381,108.926L381.6,108.926L382.2,108.926L382.8,108.756L383.4,108.926L384,108.092L384.6,108.289L385.2,108.306L385.8,108.306L386.4,108.306L387,108.306L387.6,108.306L388.2,111.354L388.8,112.525L389.4,111.861L390,111.861L390.6,112.525L391.2,112.525L391.8,112.525L392.4,112.525L393,112.286L393.6,112.508L394.2,112.508L394.8,112.508L395.4,112.508L396,112.999L396.6,112.491L397.2,112.999L397.8,111.129L398.4,111.129L399,111.809L399.6,111.809L400.2,112.317L400.8,111.809L401.4,112.98L402,112.473L402.6,112.473L403.2,112.204L403.8,111.136L404.4,111.136L405,111.013L405.6,111.007L406.2,111.007L406.8,111.13L407.4,111.13L408,111.13L408.6,111.13L409.2,111.13L409.8,111.13L410.4,111.13L411,111.13L411.6,111.13L412.2,111.13L412.8,111.399L413.4,111.398L414,111.567L414.6,111.445L415.2,111.615L415.8,108.709L416.4,108.045L417,108.967L417.6,107.777L418.2,107.777L418.8,108.045L419.4,108.95L420,111.998L420.6,111.998L421.2,111.998L421.8,112.661L422.4,112.661L423,112.661L423.6,112.93L424.2,111.862L424.8,113.31L425.4,112.524L426,113.31L426.6,113.187L427.2,113.609L427.8,112.677L428.4,112.677L429,112.255L429.6,112.677L430.2,112.677L430.8,112.677L431.4,112.677L432,112.677L432.6,112.677L433.2,112.255L433.8,112.677L434.4,112.677L435,112.677L435.6,112.255L436.2,112.255L436.8,112.255L437.4,113.341L438,113.341L438.6,112.918L439.2,111.416L439.8,113.302L440.4,111.432L441,110.385L441.6,110.542L442.2,111.315L442.8,111.556L443.4,111.979L444,111.556L444.6,111.556L445.2,111.556L445.8,111.556L446.4,111.205L447,113.426L447.6,113.793L448.2,113.793L448.8,113.793L449.4,113.793L450,113.793L450.6,113.442L451.2,113.793L451.8,113.793L452.4,113.793L453,113.793L453.6,113.599L454.2,113.599L454.8,113.599L455.4,113.599L456,113.599L456.6,113.793L457.2,113.793L457.8,113.599L458.4,113.599L459,113.599L459.6,113.599L460.2,113.599L460.8,113.599L461.4,113.33L462,113.846L462.6,114.353L463.2,115.716L463.8,116.223L464.4,114.353L465,114.622L465.6,114.353L466.2,114.622L466.8,114.115L467.4,114.115L468,114.622L468.6,114.622L469.2,114.114L469.8,114.114L470.4,114.114L471,114.115L471.6,114.114L472.2,114.115L472.8,114.115L473.4,114.115L474,114.115L474.6,114.115L475.2,112.245L475.8,114.115L476.4,111.976L477,111.976L477.6,111.976L478.2,111.976L478.8,111.976L479.4,111.976L480,111.976L480.6,111.976L481.2,111.976L481.8,111.976L482.4,111.468L483,111.468L483.6,111.976L484.2,111.976L484.8,112.245L485.4,111.976L486,111.835L486.6,111.835L487.2,112.104L487.8,112.611L488.4,112.104L489,112.104L489.6,112.104L490.2,112.104L490.8,112.104L491.4,112.455L492,109.053L492.6,109.053L493.2,108.741L493.8,109.053L494.4,109.053L495,109.046L495.6,109.046L496.2,109.046L496.8,109.046L497.4,109.046L498,109.397L498.6,109.046L499.2,109.046L499.8,109.046L500.4,109.046L501,109.046L501.6,109.046L502.2,109.053L502.8,109.054L503.4,109.405L504,109.405L504.6,109.405L505.2,109.054L505.8,109.054L506.4,108.785L507,108.019L507.6,109.054L508.2,108.785L508.8,108.785L509.4,109.054L510,108.277L510.6,108.785L511.2,107.75L511.8,108.785L512.4,108.785L513,108.785L513.6,108.785L514.2,108.785L514.8,108.121L515.4,108.785L516,108.277L516.6,107.614L517.2,107.614L517.8,107.614L518.4,107.614L519,107.606L519.6,108.114L520.2,108.114L520.8,108.114L521.4,108.114L522,107.079L522.6,107.587L523.2,107.587L523.8,107.587L524.4,107.594L525,107.594L525.6,107.087L526.2,107.087L526.8,107.087L527.4,107.087L528,107.087L528.6,107.087L529.2,107.087L529.8,107.087L530.4,107.087L531,107.087L531.6,107.087L532.2,107.087L532.8,107.087L533.4,107.594L534,107.087L534.6,106.579L535.2,106.437L535.8,106.437L536.4,106.437L537,108.307L537.6,106.945L538.2,108.956L538.8,108.956L539.4,108.956L540,108.449L540.6,108.449L541.2,108.449L541.8,108.307L542.4,108.307L543,108.449L543.6,108.449L544.2,108.449L544.8,108.449L545.4,108.449L546,108.449L546.6,108.449L547.2,108.449L547.8,108.957L548.4,108.957L549,108.957L549.6,108.957L550.2,108.957L550.8,108.957L551.4,108.957L552,108.957L552.6,108.957L553.2,108.957L553.8,108.957L554.4,108.957L555,111.93L555.6,111.93L556.2,111.93L556.8,111.93L557.4,111.93L558,111.93L558.6,111.93L559.2,111.93L559.8,111.93L560.4,112.198L561,112.199L561.6,111.93L562.2,111.93L562.8,111.93L563.4,111.934L564,111.934L564.6,111.934L565.2,111.934L565.8,111.934L566.4,111.934L567,111.934L567.6,112.597L568.2,111.934L568.8,111.934L569.4,111.27L570,111.27L570.6,111.539L571.2,111.539L571.8,111.539L572.4,111.539L573,111.539L573.6,111.539L574.2,111.539L574.8,111.539L575.4,111.539L576,111.539L576.6,111.539L577.2,111.539L577.8,111.188L578.4,111.188L579,109.324L579.6,109.324L580.2,109.324L580.8,109.324L581.4,108.661L582,108.661L582.6,108.661L583.2,108.661L583.8,108.661L584.4,108.657L585,108.657L585.6,108.661L586.2,108.661L586.8,108.661L587.4,108.661L588,108.661L588.6,108.657L589.2,108.657L589.8,108.657L590.4,108.657L591,108.657L591.6,108.149L592.2,108.149L592.8,108.149L593.4,108.657L594,108.657L594.6,108.657L595.2,108.657L595.8,108.661L596.4,108.661L597,108.661L597.6,108.661L598.2,108.66L598.8,108.661L599.4,108.661" stroke="#8A2BE2" stroke-width="2"/></g></g><path class="foreground" aria-hidden="true" d="" display="none"/></g></g><g class="mark-group role-legend" role="graphics-symbol" aria-roledescription="legend" aria-label="Symbol legend titled 'Truncation Level' for stroke color with 5 values: 1, 2, 3, 4, 5"><g transform="translate(620,0)"><path class="background" aria-hidden="true" d="M0,0h88v79h-88Z" pointer-events="none"/><g><g class="mark-group role-legend-entry"><g transform="translate(0,16)"><path class="background" aria-hidden="true" d="M0,0h0v0h0Z" pointer-events="none"/><g><g class="mark-group role-scope" role="graphics-object" aria-roledescription="group mark container"><g transform="translate(0,0)"><path class="background" aria-hidden="true" d="M0,0h21.5615234375v11h-21.5615234375Z" pointer-events="none" opacity="1"/><g><g class="mark-symbol role-legend-symbol" pointer-events="none"><path transform="translate(6,6)" d="M-5,0L5,0" stroke="#3bd47c" stroke-width="1.5" opacity="1"/></g><g class="mark-text role-legend-label" pointer-events="none"><text text-anchor="start" transform="translate(16,9)" font-family="sans-serif" font-size="10px" fill="#000" opacity="1">1</text></g></g><path class="foreground" aria-hidden="true" d="" pointer-events="none" display="none"/></g><g transform="translate(0,13)"><path class="background" aria-hidden="true" d="M0,0h21.5615234375v11h-21.5615234375Z" pointer-events="none" opacity="1"/><g><g class="mark-symbol role-legend-symbol" pointer-events="none"><path transform="translate(6,6)" d="M-5,0L5,0" stroke="#3C91E6" stroke-width="1.5" opacity="1"/></g><g class="mark-text role-legend-label" pointer-events="none"><text text-anchor="start" transform="translate(16,9)" font-family="sans-serif" font-size="10px" fill="#000" opacity="1">2</text></g></g><path class="foreground" aria-hidden="true" d="" pointer-events="none" display="none"/></g><g transform="translate(0,26)"><path class="background" aria-hidden="true" d="M0,0h21.5615234375v11h-21.5615234375Z" pointer-events="none" opacity="1"/><g><g class="mark-symbol role-legend-symbol" pointer-events="none"><path transform="translate(6,6)" d="M-5,0L5,0" stroke="#000000" stroke-width="1.5" opacity="1"/></g><g class="mark-text role-legend-label" pointer-events="none"><text text-anchor="start" transform="translate(16,9)" font-family="sans-serif" font-size="10px" fill="#000" opacity="1">3</text></g></g><path class="foreground" aria-hidden="true" d="" pointer-events="none" display="none"/></g><g transform="translate(0,39)"><path class="background" aria-hidden="true" d="M0,0h21.5615234375v11h-21.5615234375Z" pointer-events="none" opacity="1"/><g><g class="mark-symbol role-legend-symbol" pointer-events="none"><path transform="translate(6,6)" d="M-5,0L5,0" stroke="#0C0A3E" stroke-width="1.5" opacity="1"/></g><g class="mark-text role-legend-label" pointer-events="none"><text text-anchor="start" transform="translate(16,9)" font-family="sans-serif" font-size="10px" fill="#000" opacity="1">4</text></g></g><path class="foreground" aria-hidden="true" d="" pointer-events="none" display="none"/></g><g transform="translate(0,52)"><path class="background" aria-hidden="true" d="M0,0h21.5615234375v11h-21.5615234375Z" pointer-events="none" opacity="1"/><g><g class="mark-symbol role-legend-symbol" pointer-events="none"><path transform="translate(6,6)" d="M-5,0L5,0" stroke="#8A2BE2" stroke-width="1.5" opacity="1"/></g><g class="mark-text role-legend-label" pointer-events="none"><text text-anchor="start" transform="translate(16,9)" font-family="sans-serif" font-size="10px" fill="#000" opacity="1">5</text></g></g><path class="foreground" aria-hidden="true" d="" pointer-events="none" display="none"/></g></g></g><path class="foreground" aria-hidden="true" d="" pointer-events="none" display="none"/></g></g><g class="mark-text role-legend-title" pointer-events="none"><text text-anchor="start" transform="translate(0,9)" font-family="sans-serif" font-size="11px" font-weight="bold" fill="#000" opacity="1">Truncation Level</text></g></g><path class="foreground" aria-hidden="true" d="" pointer-events="none" display="none"/></g></g><g class="mark-group role-title"><g transform="translate(300,-22)"><path class="background" aria-hidden="true" d="M0,0h0v0h0Z" pointer-events="none"/><g><g class="mark-text role-title-text" role="graphics-symbol" aria-roledescription="title" aria-label="Title text 'LambdaRank Model Results'" pointer-events="none"><text text-anchor="middle" transform="translate(0,10)" font-family="sans-serif" font-size="13px" font-weight="bold" fill="#000" opacity="1">LambdaRank Model Results</text></g></g><path class="foreground" aria-hidden="true" d="" pointer-events="none" display="none"/></g></g></g><path class="foreground" aria-hidden="true" d="" display="none"/></g></g></g></svg>