<?xml version="1.0" encoding="UTF-8"?>
<svg id="Layer_1" data-name="Layer 1" xmlns="http://www.w3.org/2000/svg" viewBox="0 0 360 510.37">
  <defs>
    <style>
      .cls-1 {
        fill: none;
      }

      .cls-1, .cls-2, .cls-3, .cls-4, .cls-5, .cls-6, .cls-7, .cls-8, .cls-9 {
        stroke-width: 0px;
      }

      .cls-2 {
        fill: #7750a1;
      }

      .cls-3 {
        fill: #4e8dcb;
      }

      .cls-4 {
        fill: #9c2e2d;
      }

      .cls-5 {
        fill: #1d4e3f;
      }

      .cls-6 {
        fill: #12113e;
      }

      .cls-7 {
        fill: #b8d545;
      }

      .cls-8 {
        fill: #999788;
      }

      .cls-9 {
        fill: #010101;
      }
    </style>
  </defs>
  <path class="cls-1" d="m0,0h360v510.37H0V0Z"/>
  <g>
    <g>
      <path class="cls-4" d="m40,32.86h280v1.29H40v-1.29Z"/>
      <path class="cls-8" d="m40,48.33h120v1.29H40v-1.29Z"/>
      <path class="cls-8" d="m40,53.49h120v1.29H40v-1.29Z"/>
      <path class="cls-8" d="m160,58.64h160v1.29h-160v-1.29Z"/>
      <path class="cls-8" d="m40,58.64h120v1.29H40v-1.29Z"/>
      <path class="cls-9" d="m40,58.64h280v1.29H40v-1.29Z"/>
      <path class="cls-8" d="m40,63.8h120v1.29H40v-1.29Z"/>
      <path class="cls-6" d="m40,68.95h40v1.29h-40v-1.29Z"/>
      <path class="cls-6" d="m80,68.95h160v1.29H80v-1.29Z"/>
      <path class="cls-4" d="m40,68.95h200v1.29H40v-1.29Z"/>
      <path class="cls-2" d="m40,74.11h200v1.29H40v-1.29Z"/>
      <path class="cls-2" d="m80,74.11h160v1.29H80v-1.29Z"/>
      <path class="cls-2" d="m200,74.11h40v1.29h-40v-1.29Z"/>
      <path class="cls-2" d="m160,74.11h80v1.29h-80v-1.29Z"/>
      <path class="cls-4" d="m40,74.11h40v1.29h-40v-1.29Z"/>
      <path class="cls-4" d="m40,74.11h160v1.29H40v-1.29Z"/>
      <path class="cls-4" d="m40,74.11h120v1.29H40v-1.29Z"/>
      <path class="cls-6" d="m80,74.11h120v1.29h-120v-1.29Z"/>
      <path class="cls-6" d="m80,74.11h80v1.29h-80v-1.29Z"/>
      <path class="cls-5" d="m160,74.11h40v1.29h-40v-1.29Z"/>
      <path class="cls-4" d="m40,84.42h160v1.29H40v-1.29Z"/>
      <path class="cls-4" d="m40,84.42h200v1.29H40v-1.29Z"/>
      <path class="cls-5" d="m200,84.42h40v1.29h-40v-1.29Z"/>
      <path class="cls-4" d="m40,89.57h40v1.29h-40v-1.29Z"/>
      <path class="cls-9" d="m40,115.35h280v1.29H40v-1.29Z"/>
      <path class="cls-9" d="m80,115.35h240v1.29H80v-1.29Z"/>
      <path class="cls-4" d="m40,115.35h40v1.29h-40v-1.29Z"/>
      <path class="cls-5" d="m40,120.5h160v1.29H40v-1.29Z"/>
      <path class="cls-6" d="m40,130.81h40v1.29h-40v-1.29Z"/>
      <path class="cls-6" d="m80,130.81h40v1.29h-40v-1.29Z"/>
      <path class="cls-6" d="m80,130.81h200v1.29H80v-1.29Z"/>
      <path class="cls-4" d="m40,130.81h80v1.29H40v-1.29Z"/>
      <path class="cls-4" d="m40,130.81h240v1.29H40v-1.29Z"/>
      <path class="cls-7" d="m120,130.81h160v1.29H120v-1.29Z"/>
      <path class="cls-6" d="m80,135.97h40v1.29h-40v-1.29Z"/>
      <path class="cls-4" d="m40,141.12h240v1.29H40v-1.29Z"/>
      <path class="cls-6" d="m40,161.75h40v1.29h-40v-1.29Z"/>
      <path class="cls-8" d="m80,166.9h80v1.29h-80v-1.29Z"/>
      <path class="cls-8" d="m40,166.9h120v1.29H40v-1.29Z"/>
      <path class="cls-6" d="m40,166.9h40v1.29h-40v-1.29Z"/>
      <path class="cls-3" d="m40,177.21h240v1.29H40v-1.29Z"/>
      <path class="cls-6" d="m80,182.37h120v1.29h-120v-1.29Z"/>
      <path class="cls-6" d="m80,182.37h80v1.29h-80v-1.29Z"/>
      <path class="cls-5" d="m160,182.37h40v1.29h-40v-1.29Z"/>
      <path class="cls-4" d="m40,187.52h40v1.29h-40v-1.29Z"/>
      <path class="cls-8" d="m80,192.68h80v1.29h-80v-1.29Z"/>
      <path class="cls-8" d="m40,192.68h120v1.29H40v-1.29Z"/>
      <path class="cls-6" d="m40,192.68h40v1.29h-40v-1.29Z"/>
      <path class="cls-6" d="m40,197.83h40v1.29h-40v-1.29Z"/>
      <path class="cls-6" d="m80,208.14h80v1.29h-80v-1.29Z"/>
      <path class="cls-3" d="m40,213.3h240v1.29H40v-1.29Z"/>
      <path class="cls-3" d="m40,218.45h240v1.29H40v-1.29Z"/>
      <path class="cls-4" d="m40,228.76h240v1.29H40v-1.29Z"/>
      <path class="cls-8" d="m80,233.92h80v1.29h-80v-1.29Z"/>
      <path class="cls-4" d="m40,239.07h240v1.29H40v-1.29Z"/>
      <path class="cls-4" d="m40,244.23h240v1.29H40v-1.29Z"/>
      <path class="cls-3" d="m40,249.38h240v1.29H40v-1.29Z"/>
      <path class="cls-3" d="m40,254.54h240v1.29H40v-1.29Z"/>
      <path class="cls-3" d="m40,259.69h240v1.29H40v-1.29Z"/>
      <path class="cls-8" d="m80,264.85h80v1.29h-80v-1.29Z"/>
      <path class="cls-8" d="m40,264.85h120v1.29H40v-1.29Z"/>
      <path class="cls-6" d="m40,264.85h40v1.29h-40v-1.29Z"/>
      <path class="cls-3" d="m120,285.47h160v1.29H120v-1.29Z"/>
      <path class="cls-3" d="m160,285.47h120v1.29h-120v-1.29Z"/>
      <path class="cls-3" d="m80,285.47h200v1.29H80v-1.29Z"/>
      <path class="cls-7" d="m120,285.47h40v1.29h-40v-1.29Z"/>
      <path class="cls-7" d="m80,285.47h40v1.29h-40v-1.29Z"/>
      <path class="cls-8" d="m80,285.47h80v1.29h-80v-1.29Z"/>
      <path class="cls-6" d="m80,290.63h160v1.29H80v-1.29Z"/>
      <path class="cls-3" d="m80,342.18h200v1.29H80v-1.29Z"/>
      <path class="cls-3" d="m120,342.18h160v1.29H120v-1.29Z"/>
      <path class="cls-3" d="m240,342.18h40v1.29h-40v-1.29Z"/>
      <path class="cls-6" d="m80,342.18h40v1.29h-40v-1.29Z"/>
      <path class="cls-6" d="m80,342.18h160v1.29H80v-1.29Z"/>
      <path class="cls-7" d="m120,342.18h120v1.29h-120v-1.29Z"/>
      <path class="cls-3" d="m80,357.64h200v1.29H80v-1.29Z"/>
      <path class="cls-8" d="m160,362.8h120v1.29h-120v-1.29Z"/>
      <path class="cls-6" d="m80,367.95h80v1.29h-80v-1.29Z"/>
      <path class="cls-6" d="m80,367.95h160v1.29H80v-1.29Z"/>
      <path class="cls-8" d="m160,367.95h80v1.29h-80v-1.29Z"/>
      <path class="cls-6" d="m80,409.2h80v1.29h-80v-1.29Z"/>
      <path class="cls-6" d="m80,409.2h200v1.29H80v-1.29Z"/>
      <path class="cls-8" d="m160,409.2h120v1.29h-120v-1.29Z"/>
      <path class="cls-8" d="m80,414.35h80v1.29h-80v-1.29Z"/>
      <path class="cls-8" d="m160,414.35h120v1.29h-120v-1.29Z"/>
      <path class="cls-8" d="m120,414.35h40v1.29h-40v-1.29Z"/>
      <path class="cls-6" d="m80,414.35h200v1.29H80v-1.29Z"/>
      <path class="cls-6" d="m80,414.35h40v1.29h-40v-1.29Z"/>
      <path class="cls-3" d="m120,414.35h160v1.29H120v-1.29Z"/>
      <path class="cls-3" d="m80,424.66h200v1.29H80v-1.29Z"/>
      <path class="cls-3" d="m160,424.66h120v1.29h-120v-1.29Z"/>
      <path class="cls-6" d="m80,424.66h80v1.29h-80v-1.29Z"/>
      <path class="cls-8" d="m120,429.82h40v1.29h-40v-1.29Z"/>
      <path class="cls-8" d="m80,429.82h80v1.29h-80v-1.29Z"/>
      <path class="cls-7" d="m80,429.82h40v1.29h-40v-1.29Z"/>
      <path class="cls-3" d="m120,434.97h160v1.29H120v-1.29Z"/>
      <path class="cls-3" d="m80,434.97h200v1.29H80v-1.29Z"/>
      <path class="cls-3" d="m160,434.97h120v1.29h-120v-1.29Z"/>
      <path class="cls-7" d="m80,434.97h40v1.29h-40v-1.29Z"/>
      <path class="cls-7" d="m120,434.97h40v1.29h-40v-1.29Z"/>
      <path class="cls-6" d="m80,434.97h80v1.29h-80v-1.29Z"/>
      <path class="cls-8" d="m80,440.13h80v1.29h-80v-1.29Z"/>
      <path class="cls-6" d="m80,445.28h80v1.29h-80v-1.29Z"/>
      <path class="cls-6" d="m80,445.28h200v1.29H80v-1.29Z"/>
      <path class="cls-8" d="m160,445.28h120v1.29h-120v-1.29Z"/>
      <path class="cls-3" d="m80,450.44h200v1.29H80v-1.29Z"/>
      <path class="cls-3" d="m160,450.44h120v1.29h-120v-1.29Z"/>
      <path class="cls-3" d="m240,450.44h40v1.29h-40v-1.29Z"/>
      <path class="cls-6" d="m80,450.44h80v1.29h-80v-1.29Z"/>
      <path class="cls-6" d="m80,450.44h160v1.29H80v-1.29Z"/>
      <path class="cls-8" d="m160,450.44h80v1.29h-80v-1.29Z"/>
      <path class="cls-7" d="m120,460.75h40v1.29h-40v-1.29Z"/>
      <path class="cls-7" d="m120,465.9h120v1.29h-120v-1.29Z"/>
      <path class="cls-8" d="m160,471.06h120v1.29h-120v-1.29Z"/>
      <path class="cls-8" d="m80,471.06h80v1.29h-80v-1.29Z"/>
      <path class="cls-3" d="m80,471.06h200v1.29H80v-1.29Z"/>
      <path class="cls-4" d="m40,481.37h40v1.29h-40v-1.29Z"/>
      <path class="cls-4" d="m40,481.37h120v1.29H40v-1.29Z"/>
      <path class="cls-6" d="m80,481.37h80v1.29h-80v-1.29Z"/>
      <path class="cls-4" d="m40,486.52h80v1.29H40v-1.29Z"/>
      <path class="cls-7" d="m120,507.15h80v1.29h-80v-1.29Z"/>
      <path class="cls-7" d="m80,507.15h40v1.29h-40v-1.29Z"/>
      <path class="cls-7" d="m120,507.15h160v1.29H120v-1.29Z"/>
      <path class="cls-7" d="m120,507.15h40v1.29h-40v-1.29Z"/>
      <path class="cls-5" d="m80,507.15h120v1.29h-120v-1.29Z"/>
      <path class="cls-5" d="m200,507.15h80v1.29h-80v-1.29Z"/>
      <path class="cls-5" d="m160,507.15h40v1.29h-40v-1.29Z"/>
      <path class="cls-6" d="m80,507.15h200v1.29H80v-1.29Z"/>
      <path class="cls-6" d="m80,507.15h80v1.29h-80v-1.29Z"/>
      <path class="cls-3" d="m160,507.15h120v1.29h-120v-1.29Z"/>
    </g>
    <g>
      <path class="cls-4" d="m40,0h0c1.1,0,2,.71,2,1.59v507.18c0,.88-.9,1.59-2,1.59h0c-1.1,0-2-.71-2-1.59V1.59c0-.88.9-1.59,2-1.59Z"/>
      <path class="cls-4" d="m40,0h0c1.1,0,2,.71,2,1.59v507.18c0,.88-.9,1.59-2,1.59h0c-1.1,0-2-.71-2-1.59V1.59c0-.88.9-1.59,2-1.59Z"/>
      <path class="cls-4" d="m40,0h0c1.1,0,2,.71,2,1.59v507.18c0,.88-.9,1.59-2,1.59h0c-1.1,0-2-.71-2-1.59V1.59c0-.88.9-1.59,2-1.59Z"/>
      <path class="cls-4" d="m40,0h0c1.1,0,2,.71,2,1.59v507.18c0,.88-.9,1.59-2,1.59h0c-1.1,0-2-.71-2-1.59V1.59c0-.88.9-1.59,2-1.59Z"/>
      <path class="cls-4" d="m40,0h0c1.1,0,2,.71,2,1.59v507.18c0,.88-.9,1.59-2,1.59h0c-1.1,0-2-.71-2-1.59V1.59c0-.88.9-1.59,2-1.59Z"/>
      <path class="cls-4" d="m40,0h0c1.1,0,2,.71,2,1.59v507.18c0,.88-.9,1.59-2,1.59h0c-1.1,0-2-.71-2-1.59V1.59c0-.88.9-1.59,2-1.59Z"/>
      <path class="cls-9" d="m320,0h0c1.1,0,2,.71,2,1.59v507.18c0,.88-.9,1.59-2,1.59h0c-1.1,0-2-.71-2-1.59V1.59c0-.88.9-1.59,2-1.59Z"/>
      <path class="cls-9" d="m320,0h0c1.1,0,2,.71,2,1.59v507.18c0,.88-.9,1.59-2,1.59h0c-1.1,0-2-.71-2-1.59V1.59c0-.88.9-1.59,2-1.59Z"/>
      <path class="cls-4" d="m40,0h0c1.1,0,2,.71,2,1.59v507.18c0,.88-.9,1.59-2,1.59h0c-1.1,0-2-.71-2-1.59V1.59c0-.88.9-1.59,2-1.59Z"/>
      <path class="cls-8" d="m160,0h0c1.1,0,2,.71,2,1.59v507.18c0,.88-.9,1.59-2,1.59h0c-1.1,0-2-.71-2-1.59V1.59c0-.88.9-1.59,2-1.59Z"/>
      <path class="cls-4" d="m40,0h0c1.1,0,2,.71,2,1.59v507.18c0,.88-.9,1.59-2,1.59h0c-1.1,0-2-.71-2-1.59V1.59c0-.88.9-1.59,2-1.59Z"/>
      <path class="cls-8" d="m160,0h0c1.1,0,2,.71,2,1.59v507.18c0,.88-.9,1.59-2,1.59h0c-1.1,0-2-.71-2-1.59V1.59c0-.88.9-1.59,2-1.59Z"/>
      <path class="cls-4" d="m40,0h0c1.1,0,2,.71,2,1.59v507.18c0,.88-.9,1.59-2,1.59h0c-1.1,0-2-.71-2-1.59V1.59c0-.88.9-1.59,2-1.59Z"/>
      <path class="cls-8" d="m160,0h0c1.1,0,2,.71,2,1.59v507.18c0,.88-.9,1.59-2,1.59h0c-1.1,0-2-.71-2-1.59V1.59c0-.88.9-1.59,2-1.59Z"/>
      <path class="cls-9" d="m320,0h0c1.1,0,2,.71,2,1.59v507.18c0,.88-.9,1.59-2,1.59h0c-1.1,0-2-.71-2-1.59V1.59c0-.88.9-1.59,2-1.59Z"/>
      <path class="cls-4" d="m40,0h0c1.1,0,2,.71,2,1.59v507.18c0,.88-.9,1.59-2,1.59h0c-1.1,0-2-.71-2-1.59V1.59c0-.88.9-1.59,2-1.59Z"/>
      <path class="cls-8" d="m160,0h0c1.1,0,2,.71,2,1.59v507.18c0,.88-.9,1.59-2,1.59h0c-1.1,0-2-.71-2-1.59V1.59c0-.88.9-1.59,2-1.59Z"/>
      <path class="cls-4" d="m40,0h0c1.1,0,2,.71,2,1.59v507.18c0,.88-.9,1.59-2,1.59h0c-1.1,0-2-.71-2-1.59V1.59c0-.88.9-1.59,2-1.59Z"/>
      <path class="cls-6" d="m80,0h0c1.1,0,2,.71,2,1.59v507.18c0,.88-.9,1.59-2,1.59h0c-1.1,0-2-.71-2-1.59V1.59c0-.88.9-1.59,2-1.59Z"/>
      <path class="cls-4" d="m40,0h0c1.1,0,2,.71,2,1.59v507.18c0,.88-.9,1.59-2,1.59h0c-1.1,0-2-.71-2-1.59V1.59c0-.88.9-1.59,2-1.59Z"/>
      <path class="cls-2" d="m240,0h0c1.1,0,2,.71,2,1.59v507.18c0,.88-.9,1.59-2,1.59h0c-1.1,0-2-.71-2-1.59V1.59c0-.88.9-1.59,2-1.59Z"/>
      <path class="cls-2" d="m240,0h0c1.1,0,2,.71,2,1.59v507.18c0,.88-.9,1.59-2,1.59h0c-1.1,0-2-.71-2-1.59V1.59c0-.88.9-1.59,2-1.59Z"/>
      <path class="cls-4" d="m40,0h0c1.1,0,2,.71,2,1.59v507.18c0,.88-.9,1.59-2,1.59h0c-1.1,0-2-.71-2-1.59V1.59c0-.88.9-1.59,2-1.59Z"/>
      <path class="cls-6" d="m80,0h0c1.1,0,2,.71,2,1.59v507.18c0,.88-.9,1.59-2,1.59h0c-1.1,0-2-.71-2-1.59V1.59c0-.88.9-1.59,2-1.59Z"/>
      <path class="cls-5" d="m200,0h0c1.1,0,2,.71,2,1.59v507.18c0,.88-.9,1.59-2,1.59h0c-1.1,0-2-.71-2-1.59V1.59c0-.88.9-1.59,2-1.59Z"/>
      <path class="cls-8" d="m160,0h0c1.1,0,2,.71,2,1.59v507.18c0,.88-.9,1.59-2,1.59h0c-1.1,0-2-.71-2-1.59V1.59c0-.88.9-1.59,2-1.59Z"/>
      <path class="cls-4" d="m40,0h0c1.1,0,2,.71,2,1.59v507.18c0,.88-.9,1.59-2,1.59h0c-1.1,0-2-.71-2-1.59V1.59c0-.88.9-1.59,2-1.59Z"/>
      <path class="cls-4" d="m40,0h0c1.1,0,2,.71,2,1.59v507.18c0,.88-.9,1.59-2,1.59h0c-1.1,0-2-.71-2-1.59V1.59c0-.88.9-1.59,2-1.59Z"/>
      <path class="cls-5" d="m200,0h0c1.1,0,2,.71,2,1.59v507.18c0,.88-.9,1.59-2,1.59h0c-1.1,0-2-.71-2-1.59V1.59c0-.88.9-1.59,2-1.59Z"/>
      <path class="cls-2" d="m240,0h0c1.1,0,2,.71,2,1.59v507.18c0,.88-.9,1.59-2,1.59h0c-1.1,0-2-.71-2-1.59V1.59c0-.88.9-1.59,2-1.59Z"/>
      <path class="cls-4" d="m40,0h0c1.1,0,2,.71,2,1.59v507.18c0,.88-.9,1.59-2,1.59h0c-1.1,0-2-.71-2-1.59V1.59c0-.88.9-1.59,2-1.59Z"/>
      <path class="cls-6" d="m80,0h0c1.1,0,2,.71,2,1.59v507.18c0,.88-.9,1.59-2,1.59h0c-1.1,0-2-.71-2-1.59V1.59c0-.88.9-1.59,2-1.59Z"/>
      <path class="cls-4" d="m40,0h0c1.1,0,2,.71,2,1.59v507.18c0,.88-.9,1.59-2,1.59h0c-1.1,0-2-.71-2-1.59V1.59c0-.88.9-1.59,2-1.59Z"/>
      <path class="cls-4" d="m40,0h0c1.1,0,2,.71,2,1.59v507.18c0,.88-.9,1.59-2,1.59h0c-1.1,0-2-.71-2-1.59V1.59c0-.88.9-1.59,2-1.59Z"/>
      <path class="cls-4" d="m40,0h0c1.1,0,2,.71,2,1.59v507.18c0,.88-.9,1.59-2,1.59h0c-1.1,0-2-.71-2-1.59V1.59c0-.88.9-1.59,2-1.59Z"/>
      <path class="cls-4" d="m40,0h0c1.1,0,2,.71,2,1.59v507.18c0,.88-.9,1.59-2,1.59h0c-1.1,0-2-.71-2-1.59V1.59c0-.88.9-1.59,2-1.59Z"/>
      <path class="cls-9" d="m320,0h0c1.1,0,2,.71,2,1.59v507.18c0,.88-.9,1.59-2,1.59h0c-1.1,0-2-.71-2-1.59V1.59c0-.88.9-1.59,2-1.59Z"/>
      <path class="cls-4" d="m40,0h0c1.1,0,2,.71,2,1.59v507.18c0,.88-.9,1.59-2,1.59h0c-1.1,0-2-.71-2-1.59V1.59c0-.88.9-1.59,2-1.59Z"/>
      <path class="cls-6" d="m80,0h0c1.1,0,2,.71,2,1.59v507.18c0,.88-.9,1.59-2,1.59h0c-1.1,0-2-.71-2-1.59V1.59c0-.88.9-1.59,2-1.59Z"/>
      <path class="cls-5" d="m200,0h0c1.1,0,2,.71,2,1.59v507.18c0,.88-.9,1.59-2,1.59h0c-1.1,0-2-.71-2-1.59V1.59c0-.88.9-1.59,2-1.59Z"/>
      <path class="cls-4" d="m40,0h0c1.1,0,2,.71,2,1.59v507.18c0,.88-.9,1.59-2,1.59h0c-1.1,0-2-.71-2-1.59V1.59c0-.88.9-1.59,2-1.59Z"/>
      <path class="cls-4" d="m40,0h0c1.1,0,2,.71,2,1.59v507.18c0,.88-.9,1.59-2,1.59h0c-1.1,0-2-.71-2-1.59V1.59c0-.88.9-1.59,2-1.59Z"/>
      <path class="cls-6" d="m80,0h0c1.1,0,2,.71,2,1.59v507.18c0,.88-.9,1.59-2,1.59h0c-1.1,0-2-.71-2-1.59V1.59c0-.88.9-1.59,2-1.59Z"/>
      <path class="cls-4" d="m40,0h0c1.1,0,2,.71,2,1.59v507.18c0,.88-.9,1.59-2,1.59h0c-1.1,0-2-.71-2-1.59V1.59c0-.88.9-1.59,2-1.59Z"/>
      <path class="cls-7" d="m120,0h0c1.1,0,2,.71,2,1.59v507.18c0,.88-.9,1.59-2,1.59h0c-1.1,0-2-.71-2-1.59V1.59c0-.88.9-1.59,2-1.59Z"/>
      <path class="cls-3" d="m280,0h0c1.1,0,2,.71,2,1.59v507.18c0,.88-.9,1.59-2,1.59h0c-1.1,0-2-.71-2-1.59V1.59c0-.88.9-1.59,2-1.59Z"/>
      <path class="cls-6" d="m80,0h0c1.1,0,2,.71,2,1.59v507.18c0,.88-.9,1.59-2,1.59h0c-1.1,0-2-.71-2-1.59V1.59c0-.88.9-1.59,2-1.59Z"/>
      <path class="cls-7" d="m120,0h0c1.1,0,2,.71,2,1.59v507.18c0,.88-.9,1.59-2,1.59h0c-1.1,0-2-.71-2-1.59V1.59c0-.88.9-1.59,2-1.59Z"/>
      <path class="cls-4" d="m40,0h0c1.1,0,2,.71,2,1.59v507.18c0,.88-.9,1.59-2,1.59h0c-1.1,0-2-.71-2-1.59V1.59c0-.88.9-1.59,2-1.59Z"/>
      <path class="cls-3" d="m280,0h0c1.1,0,2,.71,2,1.59v507.18c0,.88-.9,1.59-2,1.59h0c-1.1,0-2-.71-2-1.59V1.59c0-.88.9-1.59,2-1.59Z"/>
      <path class="cls-3" d="m280,0h0c1.1,0,2,.71,2,1.59v507.18c0,.88-.9,1.59-2,1.59h0c-1.1,0-2-.71-2-1.59V1.59c0-.88.9-1.59,2-1.59Z"/>
      <path class="cls-8" d="m160,0h0c1.1,0,2,.71,2,1.59v507.18c0,.88-.9,1.59-2,1.59h0c-1.1,0-2-.71-2-1.59V1.59c0-.88.9-1.59,2-1.59Z"/>
      <path class="cls-8" d="m160,0h0c1.1,0,2,.71,2,1.59v507.18c0,.88-.9,1.59-2,1.59h0c-1.1,0-2-.71-2-1.59V1.59c0-.88.9-1.59,2-1.59Z"/>
      <path class="cls-6" d="m80,0h0c1.1,0,2,.71,2,1.59v507.18c0,.88-.9,1.59-2,1.59h0c-1.1,0-2-.71-2-1.59V1.59c0-.88.9-1.59,2-1.59Z"/>
      <path class="cls-4" d="m40,0h0c1.1,0,2,.71,2,1.59v507.18c0,.88-.9,1.59-2,1.59h0c-1.1,0-2-.71-2-1.59V1.59c0-.88.9-1.59,2-1.59Z"/>
      <path class="cls-8" d="m160,0h0c1.1,0,2,.71,2,1.59v507.18c0,.88-.9,1.59-2,1.59h0c-1.1,0-2-.71-2-1.59V1.59c0-.88.9-1.59,2-1.59Z"/>
      <path class="cls-6" d="m80,0h0c1.1,0,2,.71,2,1.59v507.18c0,.88-.9,1.59-2,1.59h0c-1.1,0-2-.71-2-1.59V1.59c0-.88.9-1.59,2-1.59Z"/>
      <path class="cls-4" d="m40,0h0c1.1,0,2,.71,2,1.59v507.18c0,.88-.9,1.59-2,1.59h0c-1.1,0-2-.71-2-1.59V1.59c0-.88.9-1.59,2-1.59Z"/>
      <path class="cls-4" d="m40,0h0c1.1,0,2,.71,2,1.59v507.18c0,.88-.9,1.59-2,1.59h0c-1.1,0-2-.71-2-1.59V1.59c0-.88.9-1.59,2-1.59Z"/>
      <path class="cls-3" d="m280,0h0c1.1,0,2,.71,2,1.59v507.18c0,.88-.9,1.59-2,1.59h0c-1.1,0-2-.71-2-1.59V1.59c0-.88.9-1.59,2-1.59Z"/>
      <path class="cls-4" d="m40,0h0c1.1,0,2,.71,2,1.59v507.18c0,.88-.9,1.59-2,1.59h0c-1.1,0-2-.71-2-1.59V1.59c0-.88.9-1.59,2-1.59Z"/>
      <path class="cls-6" d="m80,0h0c1.1,0,2,.71,2,1.59v507.18c0,.88-.9,1.59-2,1.59h0c-1.1,0-2-.71-2-1.59V1.59c0-.88.9-1.59,2-1.59Z"/>
      <path class="cls-5" d="m200,0h0c1.1,0,2,.71,2,1.59v507.18c0,.88-.9,1.59-2,1.59h0c-1.1,0-2-.71-2-1.59V1.59c0-.88.9-1.59,2-1.59Z"/>
      <path class="cls-8" d="m160,0h0c1.1,0,2,.71,2,1.59v507.18c0,.88-.9,1.59-2,1.59h0c-1.1,0-2-.71-2-1.59V1.59c0-.88.9-1.59,2-1.59Z"/>
      <path class="cls-4" d="m40,0h0c1.1,0,2,.71,2,1.59v507.18c0,.88-.9,1.59-2,1.59h0c-1.1,0-2-.71-2-1.59V1.59c0-.88.9-1.59,2-1.59Z"/>
      <path class="cls-6" d="m80,0h0c1.1,0,2,.71,2,1.59v507.18c0,.88-.9,1.59-2,1.59h0c-1.1,0-2-.71-2-1.59V1.59c0-.88.9-1.59,2-1.59Z"/>
      <path class="cls-8" d="m160,0h0c1.1,0,2,.71,2,1.59v507.18c0,.88-.9,1.59-2,1.59h0c-1.1,0-2-.71-2-1.59V1.59c0-.88.9-1.59,2-1.59Z"/>
      <path class="cls-6" d="m80,0h0c1.1,0,2,.71,2,1.59v507.18c0,.88-.9,1.59-2,1.59h0c-1.1,0-2-.71-2-1.59V1.59c0-.88.9-1.59,2-1.59Z"/>
      <path class="cls-4" d="m40,0h0c1.1,0,2,.71,2,1.59v507.18c0,.88-.9,1.59-2,1.59h0c-1.1,0-2-.71-2-1.59V1.59c0-.88.9-1.59,2-1.59Z"/>
      <path class="cls-6" d="m80,0h0c1.1,0,2,.71,2,1.59v507.18c0,.88-.9,1.59-2,1.59h0c-1.1,0-2-.71-2-1.59V1.59c0-.88.9-1.59,2-1.59Z"/>
      <path class="cls-4" d="m40,0h0c1.1,0,2,.71,2,1.59v507.18c0,.88-.9,1.59-2,1.59h0c-1.1,0-2-.71-2-1.59V1.59c0-.88.9-1.59,2-1.59Z"/>
      <path class="cls-6" d="m80,0h0c1.1,0,2,.71,2,1.59v507.18c0,.88-.9,1.59-2,1.59h0c-1.1,0-2-.71-2-1.59V1.59c0-.88.9-1.59,2-1.59Z"/>
      <path class="cls-6" d="m80,0h0c1.1,0,2,.71,2,1.59v507.18c0,.88-.9,1.59-2,1.59h0c-1.1,0-2-.71-2-1.59V1.59c0-.88.9-1.59,2-1.59Z"/>
      <path class="cls-8" d="m160,0h0c1.1,0,2,.71,2,1.59v507.18c0,.88-.9,1.59-2,1.59h0c-1.1,0-2-.71-2-1.59V1.59c0-.88.9-1.59,2-1.59Z"/>
      <path class="cls-3" d="m280,0h0c1.1,0,2,.71,2,1.59v507.18c0,.88-.9,1.59-2,1.59h0c-1.1,0-2-.71-2-1.59V1.59c0-.88.9-1.59,2-1.59Z"/>
      <path class="cls-4" d="m40,0h0c1.1,0,2,.71,2,1.59v507.18c0,.88-.9,1.59-2,1.59h0c-1.1,0-2-.71-2-1.59V1.59c0-.88.9-1.59,2-1.59Z"/>
      <path class="cls-3" d="m280,0h0c1.1,0,2,.71,2,1.59v507.18c0,.88-.9,1.59-2,1.59h0c-1.1,0-2-.71-2-1.59V1.59c0-.88.9-1.59,2-1.59Z"/>
      <path class="cls-4" d="m40,0h0c1.1,0,2,.71,2,1.59v507.18c0,.88-.9,1.59-2,1.59h0c-1.1,0-2-.71-2-1.59V1.59c0-.88.9-1.59,2-1.59Z"/>
      <path class="cls-3" d="m280,0h0c1.1,0,2,.71,2,1.59v507.18c0,.88-.9,1.59-2,1.59h0c-1.1,0-2-.71-2-1.59V1.59c0-.88.9-1.59,2-1.59Z"/>
      <path class="cls-4" d="m40,0h0c1.1,0,2,.71,2,1.59v507.18c0,.88-.9,1.59-2,1.59h0c-1.1,0-2-.71-2-1.59V1.59c0-.88.9-1.59,2-1.59Z"/>
      <path class="cls-3" d="m280,0h0c1.1,0,2,.71,2,1.59v507.18c0,.88-.9,1.59-2,1.59h0c-1.1,0-2-.71-2-1.59V1.59c0-.88.9-1.59,2-1.59Z"/>
      <path class="cls-8" d="m160,0h0c1.1,0,2,.71,2,1.59v507.18c0,.88-.9,1.59-2,1.59h0c-1.1,0-2-.71-2-1.59V1.59c0-.88.9-1.59,2-1.59Z"/>
      <path class="cls-6" d="m80,0h0c1.1,0,2,.71,2,1.59v507.18c0,.88-.9,1.59-2,1.59h0c-1.1,0-2-.71-2-1.59V1.59c0-.88.9-1.59,2-1.59Z"/>
      <path class="cls-4" d="m40,0h0c1.1,0,2,.71,2,1.59v507.18c0,.88-.9,1.59-2,1.59h0c-1.1,0-2-.71-2-1.59V1.59c0-.88.9-1.59,2-1.59Z"/>
      <path class="cls-3" d="m280,0h0c1.1,0,2,.71,2,1.59v507.18c0,.88-.9,1.59-2,1.59h0c-1.1,0-2-.71-2-1.59V1.59c0-.88.9-1.59,2-1.59Z"/>
      <path class="cls-4" d="m40,0h0c1.1,0,2,.71,2,1.59v507.18c0,.88-.9,1.59-2,1.59h0c-1.1,0-2-.71-2-1.59V1.59c0-.88.9-1.59,2-1.59Z"/>
      <path class="cls-3" d="m280,0h0c1.1,0,2,.71,2,1.59v507.18c0,.88-.9,1.59-2,1.59h0c-1.1,0-2-.71-2-1.59V1.59c0-.88.9-1.59,2-1.59Z"/>
      <path class="cls-3" d="m280,0h0c1.1,0,2,.71,2,1.59v507.18c0,.88-.9,1.59-2,1.59h0c-1.1,0-2-.71-2-1.59V1.59c0-.88.9-1.59,2-1.59Z"/>
      <path class="cls-4" d="m40,0h0c1.1,0,2,.71,2,1.59v507.18c0,.88-.9,1.59-2,1.59h0c-1.1,0-2-.71-2-1.59V1.59c0-.88.9-1.59,2-1.59Z"/>
      <path class="cls-3" d="m280,0h0c1.1,0,2,.71,2,1.59v507.18c0,.88-.9,1.59-2,1.59h0c-1.1,0-2-.71-2-1.59V1.59c0-.88.9-1.59,2-1.59Z"/>
      <path class="cls-4" d="m40,0h0c1.1,0,2,.71,2,1.59v507.18c0,.88-.9,1.59-2,1.59h0c-1.1,0-2-.71-2-1.59V1.59c0-.88.9-1.59,2-1.59Z"/>
      <path class="cls-3" d="m280,0h0c1.1,0,2,.71,2,1.59v507.18c0,.88-.9,1.59-2,1.59h0c-1.1,0-2-.71-2-1.59V1.59c0-.88.9-1.59,2-1.59Z"/>
      <path class="cls-4" d="m40,0h0c1.1,0,2,.71,2,1.59v507.18c0,.88-.9,1.59-2,1.59h0c-1.1,0-2-.71-2-1.59V1.59c0-.88.9-1.59,2-1.59Z"/>
      <path class="cls-8" d="m160,0h0c1.1,0,2,.71,2,1.59v507.18c0,.88-.9,1.59-2,1.59h0c-1.1,0-2-.71-2-1.59V1.59c0-.88.9-1.59,2-1.59Z"/>
      <path class="cls-6" d="m80,0h0c1.1,0,2,.71,2,1.59v507.18c0,.88-.9,1.59-2,1.59h0c-1.1,0-2-.71-2-1.59V1.59c0-.88.9-1.59,2-1.59Z"/>
      <path class="cls-4" d="m40,0h0c1.1,0,2,.71,2,1.59v507.18c0,.88-.9,1.59-2,1.59h0c-1.1,0-2-.71-2-1.59V1.59c0-.88.9-1.59,2-1.59Z"/>
      <path class="cls-4" d="m40,0h0c1.1,0,2,.71,2,1.59v507.18c0,.88-.9,1.59-2,1.59h0c-1.1,0-2-.71-2-1.59V1.59c0-.88.9-1.59,2-1.59Z"/>
      <path class="cls-4" d="m40,0h0c1.1,0,2,.71,2,1.59v507.18c0,.88-.9,1.59-2,1.59h0c-1.1,0-2-.71-2-1.59V1.59c0-.88.9-1.59,2-1.59Z"/>
      <path class="cls-4" d="m40,0h0c1.1,0,2,.71,2,1.59v507.18c0,.88-.9,1.59-2,1.59h0c-1.1,0-2-.71-2-1.59V1.59c0-.88.9-1.59,2-1.59Z"/>
      <path class="cls-3" d="m280,0h0c1.1,0,2,.71,2,1.59v507.18c0,.88-.9,1.59-2,1.59h0c-1.1,0-2-.71-2-1.59V1.59c0-.88.9-1.59,2-1.59Z"/>
      <path class="cls-7" d="m120,0h0c1.1,0,2,.71,2,1.59v507.18c0,.88-.9,1.59-2,1.59h0c-1.1,0-2-.71-2-1.59V1.59c0-.88.9-1.59,2-1.59Z"/>
      <path class="cls-8" d="m160,0h0c1.1,0,2,.71,2,1.59v507.18c0,.88-.9,1.59-2,1.59h0c-1.1,0-2-.71-2-1.59V1.59c0-.88.9-1.59,2-1.59Z"/>
      <path class="cls-6" d="m80,0h0c1.1,0,2,.71,2,1.59v507.18c0,.88-.9,1.59-2,1.59h0c-1.1,0-2-.71-2-1.59V1.59c0-.88.9-1.59,2-1.59Z"/>
      <path class="cls-6" d="m80,0h0c1.1,0,2,.71,2,1.59v507.18c0,.88-.9,1.59-2,1.59h0c-1.1,0-2-.71-2-1.59V1.59c0-.88.9-1.59,2-1.59Z"/>
      <path class="cls-2" d="m240,0h0c1.1,0,2,.71,2,1.59v507.18c0,.88-.9,1.59-2,1.59h0c-1.1,0-2-.71-2-1.59V1.59c0-.88.9-1.59,2-1.59Z"/>
      <path class="cls-4" d="m40,0h0c1.1,0,2,.71,2,1.59v507.18c0,.88-.9,1.59-2,1.59h0c-1.1,0-2-.71-2-1.59V1.59c0-.88.9-1.59,2-1.59Z"/>
      <path class="cls-4" d="m40,0h0c1.1,0,2,.71,2,1.59v507.18c0,.88-.9,1.59-2,1.59h0c-1.1,0-2-.71-2-1.59V1.59c0-.88.9-1.59,2-1.59Z"/>
      <path class="cls-4" d="m40,0h0c1.1,0,2,.71,2,1.59v507.18c0,.88-.9,1.59-2,1.59h0c-1.1,0-2-.71-2-1.59V1.59c0-.88.9-1.59,2-1.59Z"/>
      <path class="cls-4" d="m40,0h0c1.1,0,2,.71,2,1.59v507.18c0,.88-.9,1.59-2,1.59h0c-1.1,0-2-.71-2-1.59V1.59c0-.88.9-1.59,2-1.59Z"/>
      <path class="cls-4" d="m40,0h0c1.1,0,2,.71,2,1.59v507.18c0,.88-.9,1.59-2,1.59h0c-1.1,0-2-.71-2-1.59V1.59c0-.88.9-1.59,2-1.59Z"/>
      <path class="cls-8" d="m160,0h0c1.1,0,2,.71,2,1.59v507.18c0,.88-.9,1.59-2,1.59h0c-1.1,0-2-.71-2-1.59V1.59c0-.88.9-1.59,2-1.59Z"/>
      <path class="cls-8" d="m160,0h0c1.1,0,2,.71,2,1.59v507.18c0,.88-.9,1.59-2,1.59h0c-1.1,0-2-.71-2-1.59V1.59c0-.88.9-1.59,2-1.59Z"/>
      <path class="cls-8" d="m160,0h0c1.1,0,2,.71,2,1.59v507.18c0,.88-.9,1.59-2,1.59h0c-1.1,0-2-.71-2-1.59V1.59c0-.88.9-1.59,2-1.59Z"/>
      <path class="cls-8" d="m160,0h0c1.1,0,2,.71,2,1.59v507.18c0,.88-.9,1.59-2,1.59h0c-1.1,0-2-.71-2-1.59V1.59c0-.88.9-1.59,2-1.59Z"/>
      <path class="cls-3" d="m280,0h0c1.1,0,2,.71,2,1.59v507.18c0,.88-.9,1.59-2,1.59h0c-1.1,0-2-.71-2-1.59V1.59c0-.88.9-1.59,2-1.59Z"/>
      <path class="cls-6" d="m80,0h0c1.1,0,2,.71,2,1.59v507.18c0,.88-.9,1.59-2,1.59h0c-1.1,0-2-.71-2-1.59V1.59c0-.88.9-1.59,2-1.59Z"/>
      <path class="cls-7" d="m120,0h0c1.1,0,2,.71,2,1.59v507.18c0,.88-.9,1.59-2,1.59h0c-1.1,0-2-.71-2-1.59V1.59c0-.88.9-1.59,2-1.59Z"/>
      <path class="cls-2" d="m240,0h0c1.1,0,2,.71,2,1.59v507.18c0,.88-.9,1.59-2,1.59h0c-1.1,0-2-.71-2-1.59V1.59c0-.88.9-1.59,2-1.59Z"/>
      <path class="cls-4" d="m40,0h0c1.1,0,2,.71,2,1.59v507.18c0,.88-.9,1.59-2,1.59h0c-1.1,0-2-.71-2-1.59V1.59c0-.88.9-1.59,2-1.59Z"/>
      <path class="cls-4" d="m40,0h0c1.1,0,2,.71,2,1.59v507.18c0,.88-.9,1.59-2,1.59h0c-1.1,0-2-.71-2-1.59V1.59c0-.88.9-1.59,2-1.59Z"/>
      <path class="cls-3" d="m280,0h0c1.1,0,2,.71,2,1.59v507.18c0,.88-.9,1.59-2,1.59h0c-1.1,0-2-.71-2-1.59V1.59c0-.88.9-1.59,2-1.59Z"/>
      <path class="cls-6" d="m80,0h0c1.1,0,2,.71,2,1.59v507.18c0,.88-.9,1.59-2,1.59h0c-1.1,0-2-.71-2-1.59V1.59c0-.88.9-1.59,2-1.59Z"/>
      <path class="cls-8" d="m160,0h0c1.1,0,2,.71,2,1.59v507.18c0,.88-.9,1.59-2,1.59h0c-1.1,0-2-.71-2-1.59V1.59c0-.88.9-1.59,2-1.59Z"/>
      <path class="cls-3" d="m280,0h0c1.1,0,2,.71,2,1.59v507.18c0,.88-.9,1.59-2,1.59h0c-1.1,0-2-.71-2-1.59V1.59c0-.88.9-1.59,2-1.59Z"/>
      <path class="cls-6" d="m80,0h0c1.1,0,2,.71,2,1.59v507.18c0,.88-.9,1.59-2,1.59h0c-1.1,0-2-.71-2-1.59V1.59c0-.88.9-1.59,2-1.59Z"/>
      <path class="cls-8" d="m160,0h0c1.1,0,2,.71,2,1.59v507.18c0,.88-.9,1.59-2,1.59h0c-1.1,0-2-.71-2-1.59V1.59c0-.88.9-1.59,2-1.59Z"/>
      <path class="cls-2" d="m240,0h0c1.1,0,2,.71,2,1.59v507.18c0,.88-.9,1.59-2,1.59h0c-1.1,0-2-.71-2-1.59V1.59c0-.88.9-1.59,2-1.59Z"/>
      <path class="cls-4" d="m40,0h0c1.1,0,2,.71,2,1.59v507.18c0,.88-.9,1.59-2,1.59h0c-1.1,0-2-.71-2-1.59V1.59c0-.88.9-1.59,2-1.59Z"/>
      <path class="cls-4" d="m40,0h0c1.1,0,2,.71,2,1.59v507.18c0,.88-.9,1.59-2,1.59h0c-1.1,0-2-.71-2-1.59V1.59c0-.88.9-1.59,2-1.59Z"/>
      <path class="cls-4" d="m40,0h0c1.1,0,2,.71,2,1.59v507.18c0,.88-.9,1.59-2,1.59h0c-1.1,0-2-.71-2-1.59V1.59c0-.88.9-1.59,2-1.59Z"/>
      <path class="cls-4" d="m40,0h0c1.1,0,2,.71,2,1.59v507.18c0,.88-.9,1.59-2,1.59h0c-1.1,0-2-.71-2-1.59V1.59c0-.88.9-1.59,2-1.59Z"/>
      <path class="cls-4" d="m40,0h0c1.1,0,2,.71,2,1.59v507.18c0,.88-.9,1.59-2,1.59h0c-1.1,0-2-.71-2-1.59V1.59c0-.88.9-1.59,2-1.59Z"/>
      <path class="cls-4" d="m40,0h0c1.1,0,2,.71,2,1.59v507.18c0,.88-.9,1.59-2,1.59h0c-1.1,0-2-.71-2-1.59V1.59c0-.88.9-1.59,2-1.59Z"/>
      <path class="cls-4" d="m40,0h0c1.1,0,2,.71,2,1.59v507.18c0,.88-.9,1.59-2,1.59h0c-1.1,0-2-.71-2-1.59V1.59c0-.88.9-1.59,2-1.59Z"/>
      <path class="cls-6" d="m80,0h0c1.1,0,2,.71,2,1.59v507.18c0,.88-.9,1.59-2,1.59h0c-1.1,0-2-.71-2-1.59V1.59c0-.88.9-1.59,2-1.59Z"/>
      <path class="cls-8" d="m160,0h0c1.1,0,2,.71,2,1.59v507.18c0,.88-.9,1.59-2,1.59h0c-1.1,0-2-.71-2-1.59V1.59c0-.88.9-1.59,2-1.59Z"/>
      <path class="cls-3" d="m280,0h0c1.1,0,2,.71,2,1.59v507.18c0,.88-.9,1.59-2,1.59h0c-1.1,0-2-.71-2-1.59V1.59c0-.88.9-1.59,2-1.59Z"/>
      <path class="cls-8" d="m160,0h0c1.1,0,2,.71,2,1.59v507.18c0,.88-.9,1.59-2,1.59h0c-1.1,0-2-.71-2-1.59V1.59c0-.88.9-1.59,2-1.59Z"/>
      <path class="cls-6" d="m80,0h0c1.1,0,2,.71,2,1.59v507.18c0,.88-.9,1.59-2,1.59h0c-1.1,0-2-.71-2-1.59V1.59c0-.88.9-1.59,2-1.59Z"/>
      <path class="cls-3" d="m280,0h0c1.1,0,2,.71,2,1.59v507.18c0,.88-.9,1.59-2,1.59h0c-1.1,0-2-.71-2-1.59V1.59c0-.88.9-1.59,2-1.59Z"/>
      <path class="cls-7" d="m120,0h0c1.1,0,2,.71,2,1.59v507.18c0,.88-.9,1.59-2,1.59h0c-1.1,0-2-.71-2-1.59V1.59c0-.88.9-1.59,2-1.59Z"/>
      <path class="cls-4" d="m40,0h0c1.1,0,2,.71,2,1.59v507.18c0,.88-.9,1.59-2,1.59h0c-1.1,0-2-.71-2-1.59V1.59c0-.88.9-1.59,2-1.59Z"/>
      <path class="cls-3" d="m280,0h0c1.1,0,2,.71,2,1.59v507.18c0,.88-.9,1.59-2,1.59h0c-1.1,0-2-.71-2-1.59V1.59c0-.88.9-1.59,2-1.59Z"/>
      <path class="cls-6" d="m80,0h0c1.1,0,2,.71,2,1.59v507.18c0,.88-.9,1.59-2,1.59h0c-1.1,0-2-.71-2-1.59V1.59c0-.88.9-1.59,2-1.59Z"/>
      <path class="cls-8" d="m160,0h0c1.1,0,2,.71,2,1.59v507.18c0,.88-.9,1.59-2,1.59h0c-1.1,0-2-.71-2-1.59V1.59c0-.88.9-1.59,2-1.59Z"/>
      <path class="cls-8" d="m160,0h0c1.1,0,2,.71,2,1.59v507.18c0,.88-.9,1.59-2,1.59h0c-1.1,0-2-.71-2-1.59V1.59c0-.88.9-1.59,2-1.59Z"/>
      <path class="cls-7" d="m120,0h0c1.1,0,2,.71,2,1.59v507.18c0,.88-.9,1.59-2,1.59h0c-1.1,0-2-.71-2-1.59V1.59c0-.88.9-1.59,2-1.59Z"/>
      <path class="cls-6" d="m80,0h0c1.1,0,2,.71,2,1.59v507.18c0,.88-.9,1.59-2,1.59h0c-1.1,0-2-.71-2-1.59V1.59c0-.88.9-1.59,2-1.59Z"/>
      <path class="cls-3" d="m280,0h0c1.1,0,2,.71,2,1.59v507.18c0,.88-.9,1.59-2,1.59h0c-1.1,0-2-.71-2-1.59V1.59c0-.88.9-1.59,2-1.59Z"/>
      <path class="cls-7" d="m120,0h0c1.1,0,2,.71,2,1.59v507.18c0,.88-.9,1.59-2,1.59h0c-1.1,0-2-.71-2-1.59V1.59c0-.88.9-1.59,2-1.59Z"/>
      <path class="cls-6" d="m80,0h0c1.1,0,2,.71,2,1.59v507.18c0,.88-.9,1.59-2,1.59h0c-1.1,0-2-.71-2-1.59V1.59c0-.88.9-1.59,2-1.59Z"/>
      <path class="cls-8" d="m160,0h0c1.1,0,2,.71,2,1.59v507.18c0,.88-.9,1.59-2,1.59h0c-1.1,0-2-.71-2-1.59V1.59c0-.88.9-1.59,2-1.59Z"/>
      <path class="cls-8" d="m160,0h0c1.1,0,2,.71,2,1.59v507.18c0,.88-.9,1.59-2,1.59h0c-1.1,0-2-.71-2-1.59V1.59c0-.88.9-1.59,2-1.59Z"/>
      <path class="cls-6" d="m80,0h0c1.1,0,2,.71,2,1.59v507.18c0,.88-.9,1.59-2,1.59h0c-1.1,0-2-.71-2-1.59V1.59c0-.88.9-1.59,2-1.59Z"/>
      <path class="cls-6" d="m80,0h0c1.1,0,2,.71,2,1.59v507.18c0,.88-.9,1.59-2,1.59h0c-1.1,0-2-.71-2-1.59V1.59c0-.88.9-1.59,2-1.59Z"/>
      <path class="cls-8" d="m160,0h0c1.1,0,2,.71,2,1.59v507.18c0,.88-.9,1.59-2,1.59h0c-1.1,0-2-.71-2-1.59V1.59c0-.88.9-1.59,2-1.59Z"/>
      <path class="cls-3" d="m280,0h0c1.1,0,2,.71,2,1.59v507.18c0,.88-.9,1.59-2,1.59h0c-1.1,0-2-.71-2-1.59V1.59c0-.88.9-1.59,2-1.59Z"/>
      <path class="cls-3" d="m280,0h0c1.1,0,2,.71,2,1.59v507.18c0,.88-.9,1.59-2,1.59h0c-1.1,0-2-.71-2-1.59V1.59c0-.88.9-1.59,2-1.59Z"/>
      <path class="cls-6" d="m80,0h0c1.1,0,2,.71,2,1.59v507.18c0,.88-.9,1.59-2,1.59h0c-1.1,0-2-.71-2-1.59V1.59c0-.88.9-1.59,2-1.59Z"/>
      <path class="cls-8" d="m160,0h0c1.1,0,2,.71,2,1.59v507.18c0,.88-.9,1.59-2,1.59h0c-1.1,0-2-.71-2-1.59V1.59c0-.88.9-1.59,2-1.59Z"/>
      <path class="cls-2" d="m240,0h0c1.1,0,2,.71,2,1.59v507.18c0,.88-.9,1.59-2,1.59h0c-1.1,0-2-.71-2-1.59V1.59c0-.88.9-1.59,2-1.59Z"/>
      <path class="cls-2" d="m240,0h0c1.1,0,2,.71,2,1.59v507.18c0,.88-.9,1.59-2,1.59h0c-1.1,0-2-.71-2-1.59V1.59c0-.88.9-1.59,2-1.59Z"/>
      <path class="cls-7" d="m120,0h0c1.1,0,2,.71,2,1.59v507.18c0,.88-.9,1.59-2,1.59h0c-1.1,0-2-.71-2-1.59V1.59c0-.88.9-1.59,2-1.59Z"/>
      <path class="cls-8" d="m160,0h0c1.1,0,2,.71,2,1.59v507.18c0,.88-.9,1.59-2,1.59h0c-1.1,0-2-.71-2-1.59V1.59c0-.88.9-1.59,2-1.59Z"/>
      <path class="cls-7" d="m120,0h0c1.1,0,2,.71,2,1.59v507.18c0,.88-.9,1.59-2,1.59h0c-1.1,0-2-.71-2-1.59V1.59c0-.88.9-1.59,2-1.59Z"/>
      <path class="cls-2" d="m240,0h0c1.1,0,2,.71,2,1.59v507.18c0,.88-.9,1.59-2,1.59h0c-1.1,0-2-.71-2-1.59V1.59c0-.88.9-1.59,2-1.59Z"/>
      <path class="cls-8" d="m160,0h0c1.1,0,2,.71,2,1.59v507.18c0,.88-.9,1.59-2,1.59h0c-1.1,0-2-.71-2-1.59V1.59c0-.88.9-1.59,2-1.59Z"/>
      <path class="cls-3" d="m280,0h0c1.1,0,2,.71,2,1.59v507.18c0,.88-.9,1.59-2,1.59h0c-1.1,0-2-.71-2-1.59V1.59c0-.88.9-1.59,2-1.59Z"/>
      <path class="cls-6" d="m80,0h0c1.1,0,2,.71,2,1.59v507.18c0,.88-.9,1.59-2,1.59h0c-1.1,0-2-.71-2-1.59V1.59c0-.88.9-1.59,2-1.59Z"/>
      <path class="cls-6" d="m80,0h0c1.1,0,2,.71,2,1.59v507.18c0,.88-.9,1.59-2,1.59h0c-1.1,0-2-.71-2-1.59V1.59c0-.88.9-1.59,2-1.59Z"/>
      <path class="cls-4" d="m40,0h0c1.1,0,2,.71,2,1.59v507.18c0,.88-.9,1.59-2,1.59h0c-1.1,0-2-.71-2-1.59V1.59c0-.88.9-1.59,2-1.59Z"/>
      <path class="cls-6" d="m80,0h0c1.1,0,2,.71,2,1.59v507.18c0,.88-.9,1.59-2,1.59h0c-1.1,0-2-.71-2-1.59V1.59c0-.88.9-1.59,2-1.59Z"/>
      <path class="cls-8" d="m160,0h0c1.1,0,2,.71,2,1.59v507.18c0,.88-.9,1.59-2,1.59h0c-1.1,0-2-.71-2-1.59V1.59c0-.88.9-1.59,2-1.59Z"/>
      <path class="cls-4" d="m40,0h0c1.1,0,2,.71,2,1.59v507.18c0,.88-.9,1.59-2,1.59h0c-1.1,0-2-.71-2-1.59V1.59c0-.88.9-1.59,2-1.59Z"/>
      <path class="cls-7" d="m120,0h0c1.1,0,2,.71,2,1.59v507.18c0,.88-.9,1.59-2,1.59h0c-1.1,0-2-.71-2-1.59V1.59c0-.88.9-1.59,2-1.59Z"/>
      <path class="cls-4" d="m40,0h0c1.1,0,2,.71,2,1.59v507.18c0,.88-.9,1.59-2,1.59h0c-1.1,0-2-.71-2-1.59V1.59c0-.88.9-1.59,2-1.59Z"/>
      <path class="cls-4" d="m40,0h0c1.1,0,2,.71,2,1.59v507.18c0,.88-.9,1.59-2,1.59h0c-1.1,0-2-.71-2-1.59V1.59c0-.88.9-1.59,2-1.59Z"/>
      <path class="cls-4" d="m40,0h0c1.1,0,2,.71,2,1.59v507.18c0,.88-.9,1.59-2,1.59h0c-1.1,0-2-.71-2-1.59V1.59c0-.88.9-1.59,2-1.59Z"/>
      <path class="cls-7" d="m120,0h0c1.1,0,2,.71,2,1.59v507.18c0,.88-.9,1.59-2,1.59h0c-1.1,0-2-.71-2-1.59V1.59c0-.88.9-1.59,2-1.59Z"/>
      <path class="cls-5" d="m200,0h0c1.1,0,2,.71,2,1.59v507.18c0,.88-.9,1.59-2,1.59h0c-1.1,0-2-.71-2-1.59V1.59c0-.88.9-1.59,2-1.59Z"/>
      <path class="cls-6" d="m80,0h0c1.1,0,2,.71,2,1.59v507.18c0,.88-.9,1.59-2,1.59h0c-1.1,0-2-.71-2-1.59V1.59c0-.88.9-1.59,2-1.59Z"/>
      <path class="cls-3" d="m280,0h0c1.1,0,2,.71,2,1.59v507.18c0,.88-.9,1.59-2,1.59h0c-1.1,0-2-.71-2-1.59V1.59c0-.88.9-1.59,2-1.59Z"/>
      <path class="cls-8" d="m160,0h0c1.1,0,2,.71,2,1.59v507.18c0,.88-.9,1.59-2,1.59h0c-1.1,0-2-.71-2-1.59V1.59c0-.88.9-1.59,2-1.59Z"/>
    </g>
    <g>
      <path class="cls-4" d="m24.4,5.8h31.2c1.32,0,2.4.86,2.4,1.91v.04c0,1.06-1.08,1.91-2.4,1.91h-31.2c-1.32,0-2.4-.86-2.4-1.91v-.04c0-1.06,1.08-1.91,2.4-1.91Z"/>
      <path class="cls-4" d="m24.4,10.95h31.2c1.32,0,2.4.86,2.4,1.91v.04c0,1.06-1.08,1.91-2.4,1.91h-31.2c-1.32,0-2.4-.86-2.4-1.91v-.04c0-1.06,1.08-1.91,2.4-1.91Z"/>
      <path class="cls-4" d="m24.4,16.11h31.2c1.32,0,2.4.86,2.4,1.91v.04c0,1.06-1.08,1.91-2.4,1.91h-31.2c-1.32,0-2.4-.86-2.4-1.91v-.04c0-1.06,1.08-1.91,2.4-1.91Z"/>
      <path class="cls-4" d="m24.4,21.27h31.2c1.32,0,2.4.86,2.4,1.91v.04c0,1.06-1.08,1.91-2.4,1.91h-31.2c-1.32,0-2.4-.86-2.4-1.91v-.04c0-1.06,1.08-1.91,2.4-1.91Z"/>
      <path class="cls-4" d="m24.4,26.42h31.2c1.32,0,2.4.86,2.4,1.91v.04c0,1.06-1.08,1.91-2.4,1.91h-31.2c-1.32,0-2.4-.86-2.4-1.91v-.04c0-1.06,1.08-1.91,2.4-1.91Z"/>
      <path class="cls-4" d="m24.4,31.58h31.2c1.32,0,2.4.86,2.4,1.91v.04c0,1.06-1.08,1.91-2.4,1.91h-31.2c-1.32,0-2.4-.86-2.4-1.91v-.04c0-1.06,1.08-1.91,2.4-1.91Z"/>
      <path class="cls-9" d="m304.4,31.58h31.2c1.32,0,2.4.86,2.4,1.91v.04c0,1.06-1.08,1.91-2.4,1.91h-31.2c-1.32,0-2.4-.86-2.4-1.91v-.04c0-1.06,1.08-1.91,2.4-1.91Z"/>
      <path class="cls-9" d="m304.4,36.73h31.2c1.32,0,2.4.86,2.4,1.91v.04c0,1.06-1.08,1.91-2.4,1.91h-31.2c-1.32,0-2.4-.86-2.4-1.91v-.04c0-1.06,1.08-1.91,2.4-1.91Z"/>
      <path class="cls-4" d="m24.4,41.89h31.2c1.32,0,2.4.86,2.4,1.91v.04c0,1.06-1.08,1.91-2.4,1.91h-31.2c-1.32,0-2.4-.86-2.4-1.91v-.04c0-1.06,1.08-1.91,2.4-1.91Z"/>
      <path class="cls-8" d="m144.4,47.04h31.2c1.32,0,2.4.86,2.4,1.91v.04c0,1.06-1.08,1.91-2.4,1.91h-31.2c-1.32,0-2.4-.86-2.4-1.91v-.04c0-1.06,1.08-1.91,2.4-1.91Z"/>
      <path class="cls-4" d="m24.4,47.04h31.2c1.32,0,2.4.86,2.4,1.91v.04c0,1.06-1.08,1.91-2.4,1.91h-31.2c-1.32,0-2.4-.86-2.4-1.91v-.04c0-1.06,1.08-1.91,2.4-1.91Z"/>
      <path class="cls-8" d="m144.4,52.2h31.2c1.32,0,2.4.86,2.4,1.91v.04c0,1.06-1.08,1.91-2.4,1.91h-31.2c-1.32,0-2.4-.86-2.4-1.91v-.04c0-1.06,1.08-1.91,2.4-1.91Z"/>
      <path class="cls-4" d="m24.4,52.2h31.2c1.32,0,2.4.86,2.4,1.91v.04c0,1.06-1.08,1.91-2.4,1.91h-31.2c-1.32,0-2.4-.86-2.4-1.91v-.04c0-1.06,1.08-1.91,2.4-1.91Z"/>
      <path class="cls-8" d="m144.4,57.35h31.2c1.32,0,2.4.86,2.4,1.91v.04c0,1.06-1.08,1.91-2.4,1.91h-31.2c-1.32,0-2.4-.86-2.4-1.91v-.04c0-1.06,1.08-1.91,2.4-1.91Z"/>
      <path class="cls-9" d="m304.4,57.35h31.2c1.32,0,2.4.86,2.4,1.91v.04c0,1.06-1.08,1.91-2.4,1.91h-31.2c-1.32,0-2.4-.86-2.4-1.91v-.04c0-1.06,1.08-1.91,2.4-1.91Z"/>
      <path class="cls-4" d="m24.4,57.35h31.2c1.32,0,2.4.86,2.4,1.91v.04c0,1.06-1.08,1.91-2.4,1.91h-31.2c-1.32,0-2.4-.86-2.4-1.91v-.04c0-1.06,1.08-1.91,2.4-1.91Z"/>
      <path class="cls-8" d="m144.4,62.51h31.2c1.32,0,2.4.86,2.4,1.91v.04c0,1.06-1.08,1.91-2.4,1.91h-31.2c-1.32,0-2.4-.86-2.4-1.91v-.04c0-1.06,1.08-1.91,2.4-1.91Z"/>
      <path class="cls-4" d="m24.4,62.51h31.2c1.32,0,2.4.86,2.4,1.91v.04c0,1.06-1.08,1.91-2.4,1.91h-31.2c-1.32,0-2.4-.86-2.4-1.91v-.04c0-1.06,1.08-1.91,2.4-1.91Z"/>
      <path class="cls-6" d="m64.4,67.66h31.2c1.32,0,2.4.86,2.4,1.91v.04c0,1.06-1.08,1.91-2.4,1.91h-31.2c-1.32,0-2.4-.86-2.4-1.91v-.04c0-1.06,1.08-1.91,2.4-1.91Z"/>
      <path class="cls-4" d="m24.4,67.66h31.2c1.32,0,2.4.86,2.4,1.91v.04c0,1.06-1.08,1.91-2.4,1.91h-31.2c-1.32,0-2.4-.86-2.4-1.91v-.04c0-1.06,1.08-1.91,2.4-1.91Z"/>
      <path class="cls-2" d="m224.4,67.66h31.2c1.32,0,2.4.86,2.4,1.91v.04c0,1.06-1.08,1.91-2.4,1.91h-31.2c-1.32,0-2.4-.86-2.4-1.91v-.04c0-1.06,1.08-1.91,2.4-1.91Z"/>
      <path class="cls-2" d="m224.4,72.82h31.2c1.32,0,2.4.86,2.4,1.91v.04c0,1.06-1.08,1.91-2.4,1.91h-31.2c-1.32,0-2.4-.86-2.4-1.91v-.04c0-1.06,1.08-1.91,2.4-1.91Z"/>
      <path class="cls-4" d="m24.4,72.82h31.2c1.32,0,2.4.86,2.4,1.91v.04c0,1.06-1.08,1.91-2.4,1.91h-31.2c-1.32,0-2.4-.86-2.4-1.91v-.04c0-1.06,1.08-1.91,2.4-1.91Z"/>
      <path class="cls-6" d="m64.4,72.82h31.2c1.32,0,2.4.86,2.4,1.91v.04c0,1.06-1.08,1.91-2.4,1.91h-31.2c-1.32,0-2.4-.86-2.4-1.91v-.04c0-1.06,1.08-1.91,2.4-1.91Z"/>
      <path class="cls-5" d="m184.4,72.82h31.2c1.32,0,2.4.86,2.4,1.91v.04c0,1.06-1.08,1.91-2.4,1.91h-31.2c-1.32,0-2.4-.86-2.4-1.91v-.04c0-1.06,1.08-1.91,2.4-1.91Z"/>
      <path class="cls-8" d="m144.4,72.82h31.2c1.32,0,2.4.86,2.4,1.91v.04c0,1.06-1.08,1.91-2.4,1.91h-31.2c-1.32,0-2.4-.86-2.4-1.91v-.04c0-1.06,1.08-1.91,2.4-1.91Z"/>
      <path class="cls-4" d="m24.4,77.97h31.2c1.32,0,2.4.86,2.4,1.91v.04c0,1.06-1.08,1.91-2.4,1.91h-31.2c-1.32,0-2.4-.86-2.4-1.91v-.04c0-1.06,1.08-1.91,2.4-1.91Z"/>
      <path class="cls-4" d="m24.4,83.13h31.2c1.32,0,2.4.86,2.4,1.91v.04c0,1.06-1.08,1.91-2.4,1.91h-31.2c-1.32,0-2.4-.86-2.4-1.91v-.04c0-1.06,1.08-1.91,2.4-1.91Z"/>
      <path class="cls-5" d="m184.4,83.13h31.2c1.32,0,2.4.86,2.4,1.91v.04c0,1.06-1.08,1.91-2.4,1.91h-31.2c-1.32,0-2.4-.86-2.4-1.91v-.04c0-1.06,1.08-1.91,2.4-1.91Z"/>
      <path class="cls-2" d="m224.4,83.13h31.2c1.32,0,2.4.86,2.4,1.91v.04c0,1.06-1.08,1.91-2.4,1.91h-31.2c-1.32,0-2.4-.86-2.4-1.91v-.04c0-1.06,1.08-1.91,2.4-1.91Z"/>
      <path class="cls-4" d="m24.4,88.28h31.2c1.32,0,2.4.86,2.4,1.91v.04c0,1.06-1.08,1.91-2.4,1.91h-31.2c-1.32,0-2.4-.86-2.4-1.91v-.04c0-1.06,1.08-1.91,2.4-1.91Z"/>
      <path class="cls-6" d="m64.4,88.28h31.2c1.32,0,2.4.86,2.4,1.91v.04c0,1.06-1.08,1.91-2.4,1.91h-31.2c-1.32,0-2.4-.86-2.4-1.91v-.04c0-1.06,1.08-1.91,2.4-1.91Z"/>
      <path class="cls-4" d="m24.4,93.44h31.2c1.32,0,2.4.86,2.4,1.91v.04c0,1.06-1.08,1.91-2.4,1.91h-31.2c-1.32,0-2.4-.86-2.4-1.91v-.04c0-1.06,1.08-1.91,2.4-1.91Z"/>
      <path class="cls-4" d="m24.4,98.59h31.2c1.32,0,2.4.86,2.4,1.91v.04c0,1.06-1.08,1.91-2.4,1.91h-31.2c-1.32,0-2.4-.86-2.4-1.91v-.04c0-1.06,1.08-1.91,2.4-1.91Z"/>
      <path class="cls-4" d="m24.4,103.75h31.2c1.32,0,2.4.86,2.4,1.91v.04c0,1.06-1.08,1.91-2.4,1.91h-31.2c-1.32,0-2.4-.86-2.4-1.91v-.04c0-1.06,1.08-1.91,2.4-1.91Z"/>
      <path class="cls-4" d="m24.4,108.9h31.2c1.32,0,2.4.86,2.4,1.91v.04c0,1.06-1.08,1.91-2.4,1.91h-31.2c-1.32,0-2.4-.86-2.4-1.91v-.04c0-1.06,1.08-1.91,2.4-1.91Z"/>
      <path class="cls-9" d="m304.4,114.06h31.2c1.32,0,2.4.86,2.4,1.91v.04c0,1.06-1.08,1.91-2.4,1.91h-31.2c-1.32,0-2.4-.86-2.4-1.91v-.04c0-1.06,1.08-1.91,2.4-1.91Z"/>
      <path class="cls-4" d="m24.4,114.06h31.2c1.32,0,2.4.86,2.4,1.91v.04c0,1.06-1.08,1.91-2.4,1.91h-31.2c-1.32,0-2.4-.86-2.4-1.91v-.04c0-1.06,1.08-1.91,2.4-1.91Z"/>
      <path class="cls-6" d="m64.4,114.06h31.2c1.32,0,2.4.86,2.4,1.91v.04c0,1.06-1.08,1.91-2.4,1.91h-31.2c-1.32,0-2.4-.86-2.4-1.91v-.04c0-1.06,1.08-1.91,2.4-1.91Z"/>
      <path class="cls-5" d="m184.4,119.21h31.2c1.32,0,2.4.86,2.4,1.91v.04c0,1.06-1.08,1.91-2.4,1.91h-31.2c-1.32,0-2.4-.86-2.4-1.91v-.04c0-1.06,1.08-1.91,2.4-1.91Z"/>
      <path class="cls-4" d="m24.4,119.21h31.2c1.32,0,2.4.86,2.4,1.91v.04c0,1.06-1.08,1.91-2.4,1.91h-31.2c-1.32,0-2.4-.86-2.4-1.91v-.04c0-1.06,1.08-1.91,2.4-1.91Z"/>
      <path class="cls-4" d="m24.4,124.37h31.2c1.32,0,2.4.86,2.4,1.91v.04c0,1.06-1.08,1.91-2.4,1.91h-31.2c-1.32,0-2.4-.86-2.4-1.91v-.04c0-1.06,1.08-1.91,2.4-1.91Z"/>
      <path class="cls-6" d="m64.4,129.53h31.2c1.32,0,2.4.86,2.4,1.91v.04c0,1.06-1.08,1.91-2.4,1.91h-31.2c-1.32,0-2.4-.86-2.4-1.91v-.04c0-1.06,1.08-1.91,2.4-1.91Z"/>
      <path class="cls-4" d="m24.4,129.53h31.2c1.32,0,2.4.86,2.4,1.91v.04c0,1.06-1.08,1.91-2.4,1.91h-31.2c-1.32,0-2.4-.86-2.4-1.91v-.04c0-1.06,1.08-1.91,2.4-1.91Z"/>
      <path class="cls-7" d="m104.4,129.53h31.2c1.32,0,2.4.86,2.4,1.91v.04c0,1.06-1.08,1.91-2.4,1.91h-31.2c-1.32,0-2.4-.86-2.4-1.91v-.04c0-1.06,1.08-1.91,2.4-1.91Z"/>
      <path class="cls-3" d="m264.4,129.53h31.2c1.32,0,2.4.86,2.4,1.91v.04c0,1.06-1.08,1.91-2.4,1.91h-31.2c-1.32,0-2.4-.86-2.4-1.91v-.04c0-1.06,1.08-1.91,2.4-1.91Z"/>
      <path class="cls-6" d="m64.4,134.68h31.2c1.32,0,2.4.86,2.4,1.91v.04c0,1.06-1.08,1.91-2.4,1.91h-31.2c-1.32,0-2.4-.86-2.4-1.91v-.04c0-1.06,1.08-1.91,2.4-1.91Z"/>
      <path class="cls-7" d="m104.4,134.68h31.2c1.32,0,2.4.86,2.4,1.91v.04c0,1.06-1.08,1.91-2.4,1.91h-31.2c-1.32,0-2.4-.86-2.4-1.91v-.04c0-1.06,1.08-1.91,2.4-1.91Z"/>
      <path class="cls-4" d="m24.4,139.84h31.2c1.32,0,2.4.86,2.4,1.91v.04c0,1.06-1.08,1.91-2.4,1.91h-31.2c-1.32,0-2.4-.86-2.4-1.91v-.04c0-1.06,1.08-1.91,2.4-1.91Z"/>
      <path class="cls-3" d="m264.4,139.84h31.2c1.32,0,2.4.86,2.4,1.91v.04c0,1.06-1.08,1.91-2.4,1.91h-31.2c-1.32,0-2.4-.86-2.4-1.91v-.04c0-1.06,1.08-1.91,2.4-1.91Z"/>
      <path class="cls-3" d="m264.4,144.99h31.2c1.32,0,2.4.86,2.4,1.91v.04c0,1.06-1.08,1.91-2.4,1.91h-31.2c-1.32,0-2.4-.86-2.4-1.91v-.04c0-1.06,1.08-1.91,2.4-1.91Z"/>
      <path class="cls-8" d="m144.4,150.15h31.2c1.32,0,2.4.86,2.4,1.91v.04c0,1.06-1.08,1.91-2.4,1.91h-31.2c-1.32,0-2.4-.86-2.4-1.91v-.04c0-1.06,1.08-1.91,2.4-1.91Z"/>
      <path class="cls-8" d="m144.4,155.3h31.2c1.32,0,2.4.86,2.4,1.91v.04c0,1.06-1.08,1.91-2.4,1.91h-31.2c-1.32,0-2.4-.86-2.4-1.91v-.04c0-1.06,1.08-1.91,2.4-1.91Z"/>
      <path class="cls-6" d="m64.4,160.46h31.2c1.32,0,2.4.86,2.4,1.91v.04c0,1.06-1.08,1.91-2.4,1.91h-31.2c-1.32,0-2.4-.86-2.4-1.91v-.04c0-1.06,1.08-1.91,2.4-1.91Z"/>
      <path class="cls-4" d="m24.4,160.46h31.2c1.32,0,2.4.86,2.4,1.91v.04c0,1.06-1.08,1.91-2.4,1.91h-31.2c-1.32,0-2.4-.86-2.4-1.91v-.04c0-1.06,1.08-1.91,2.4-1.91Z"/>
      <path class="cls-8" d="m144.4,165.61h31.2c1.32,0,2.4.86,2.4,1.91v.04c0,1.06-1.08,1.91-2.4,1.91h-31.2c-1.32,0-2.4-.86-2.4-1.91v-.04c0-1.06,1.08-1.91,2.4-1.91Z"/>
      <path class="cls-6" d="m64.4,165.61h31.2c1.32,0,2.4.86,2.4,1.91v.04c0,1.06-1.08,1.91-2.4,1.91h-31.2c-1.32,0-2.4-.86-2.4-1.91v-.04c0-1.06,1.08-1.91,2.4-1.91Z"/>
      <path class="cls-4" d="m24.4,165.61h31.2c1.32,0,2.4.86,2.4,1.91v.04c0,1.06-1.08,1.91-2.4,1.91h-31.2c-1.32,0-2.4-.86-2.4-1.91v-.04c0-1.06,1.08-1.91,2.4-1.91Z"/>
      <path class="cls-4" d="m24.4,170.77h31.2c1.32,0,2.4.86,2.4,1.91v.04c0,1.06-1.08,1.91-2.4,1.91h-31.2c-1.32,0-2.4-.86-2.4-1.91v-.04c0-1.06,1.08-1.91,2.4-1.91Z"/>
      <path class="cls-3" d="m264.4,175.92h31.2c1.32,0,2.4.86,2.4,1.91v.04c0,1.06-1.08,1.91-2.4,1.91h-31.2c-1.32,0-2.4-.86-2.4-1.91v-.04c0-1.06,1.08-1.91,2.4-1.91Z"/>
      <path class="cls-4" d="m24.4,175.92h31.2c1.32,0,2.4.86,2.4,1.91v.04c0,1.06-1.08,1.91-2.4,1.91h-31.2c-1.32,0-2.4-.86-2.4-1.91v-.04c0-1.06,1.08-1.91,2.4-1.91Z"/>
      <path class="cls-6" d="m64.4,181.08h31.2c1.32,0,2.4.86,2.4,1.91v.04c0,1.06-1.08,1.91-2.4,1.91h-31.2c-1.32,0-2.4-.86-2.4-1.91v-.04c0-1.06,1.08-1.91,2.4-1.91Z"/>
      <path class="cls-5" d="m184.4,181.08h31.2c1.32,0,2.4.86,2.4,1.91v.04c0,1.06-1.08,1.91-2.4,1.91h-31.2c-1.32,0-2.4-.86-2.4-1.91v-.04c0-1.06,1.08-1.91,2.4-1.91Z"/>
      <path class="cls-8" d="m144.4,181.08h31.2c1.32,0,2.4.86,2.4,1.91v.04c0,1.06-1.08,1.91-2.4,1.91h-31.2c-1.32,0-2.4-.86-2.4-1.91v-.04c0-1.06,1.08-1.91,2.4-1.91Z"/>
      <path class="cls-4" d="m24.4,186.23h31.2c1.32,0,2.4.86,2.4,1.91v.04c0,1.06-1.08,1.91-2.4,1.91h-31.2c-1.32,0-2.4-.86-2.4-1.91v-.04c0-1.06,1.08-1.91,2.4-1.91Z"/>
      <path class="cls-6" d="m64.4,186.23h31.2c1.32,0,2.4.86,2.4,1.91v.04c0,1.06-1.08,1.91-2.4,1.91h-31.2c-1.32,0-2.4-.86-2.4-1.91v-.04c0-1.06,1.08-1.91,2.4-1.91Z"/>
      <path class="cls-8" d="m144.4,191.39h31.2c1.32,0,2.4.86,2.4,1.91v.04c0,1.06-1.08,1.91-2.4,1.91h-31.2c-1.32,0-2.4-.86-2.4-1.91v-.04c0-1.06,1.08-1.91,2.4-1.91Z"/>
      <path class="cls-6" d="m64.4,191.39h31.2c1.32,0,2.4.86,2.4,1.91v.04c0,1.06-1.08,1.91-2.4,1.91h-31.2c-1.32,0-2.4-.86-2.4-1.91v-.04c0-1.06,1.08-1.91,2.4-1.91Z"/>
      <path class="cls-4" d="m24.4,191.39h31.2c1.32,0,2.4.86,2.4,1.91v.04c0,1.06-1.08,1.91-2.4,1.91h-31.2c-1.32,0-2.4-.86-2.4-1.91v-.04c0-1.06,1.08-1.91,2.4-1.91Z"/>
      <path class="cls-6" d="m64.4,196.54h31.2c1.32,0,2.4.86,2.4,1.91v.04c0,1.06-1.08,1.91-2.4,1.91h-31.2c-1.32,0-2.4-.86-2.4-1.91v-.04c0-1.06,1.08-1.91,2.4-1.91Z"/>
      <path class="cls-4" d="m24.4,196.54h31.2c1.32,0,2.4.86,2.4,1.91v.04c0,1.06-1.08,1.91-2.4,1.91h-31.2c-1.32,0-2.4-.86-2.4-1.91v-.04c0-1.06,1.08-1.91,2.4-1.91Z"/>
      <path class="cls-6" d="m64.4,201.7h31.2c1.32,0,2.4.86,2.4,1.91v.04c0,1.06-1.08,1.91-2.4,1.91h-31.2c-1.32,0-2.4-.86-2.4-1.91v-.04c0-1.06,1.08-1.91,2.4-1.91Z"/>
      <path class="cls-6" d="m64.4,206.85h31.2c1.32,0,2.4.86,2.4,1.91v.04c0,1.06-1.08,1.91-2.4,1.91h-31.2c-1.32,0-2.4-.86-2.4-1.91v-.04c0-1.06,1.08-1.91,2.4-1.91Z"/>
      <path class="cls-8" d="m144.4,206.85h31.2c1.32,0,2.4.86,2.4,1.91v.04c0,1.06-1.08,1.91-2.4,1.91h-31.2c-1.32,0-2.4-.86-2.4-1.91v-.04c0-1.06,1.08-1.91,2.4-1.91Z"/>
      <path class="cls-3" d="m264.4,212.01h31.2c1.32,0,2.4.86,2.4,1.91v.04c0,1.06-1.08,1.91-2.4,1.91h-31.2c-1.32,0-2.4-.86-2.4-1.91v-.04c0-1.06,1.08-1.91,2.4-1.91Z"/>
      <path class="cls-4" d="m24.4,212.01h31.2c1.32,0,2.4.86,2.4,1.91v.04c0,1.06-1.08,1.91-2.4,1.91h-31.2c-1.32,0-2.4-.86-2.4-1.91v-.04c0-1.06,1.08-1.91,2.4-1.91Z"/>
      <path class="cls-3" d="m264.4,217.16h31.2c1.32,0,2.4.86,2.4,1.91v.04c0,1.06-1.08,1.91-2.4,1.91h-31.2c-1.32,0-2.4-.86-2.4-1.91v-.04c0-1.06,1.08-1.91,2.4-1.91Z"/>
      <path class="cls-4" d="m24.4,217.16h31.2c1.32,0,2.4.86,2.4,1.91v.04c0,1.06-1.08,1.91-2.4,1.91h-31.2c-1.32,0-2.4-.86-2.4-1.91v-.04c0-1.06,1.08-1.91,2.4-1.91Z"/>
      <path class="cls-3" d="m264.4,222.32h31.2c1.32,0,2.4.86,2.4,1.91v.04c0,1.06-1.08,1.91-2.4,1.91h-31.2c-1.32,0-2.4-.86-2.4-1.91v-.04c0-1.06,1.08-1.91,2.4-1.91Z"/>
      <path class="cls-4" d="m24.4,227.47h31.2c1.32,0,2.4.86,2.4,1.91v.04c0,1.06-1.08,1.91-2.4,1.91h-31.2c-1.32,0-2.4-.86-2.4-1.91v-.04c0-1.06,1.08-1.91,2.4-1.91Z"/>
      <path class="cls-3" d="m264.4,227.47h31.2c1.32,0,2.4.86,2.4,1.91v.04c0,1.06-1.08,1.91-2.4,1.91h-31.2c-1.32,0-2.4-.86-2.4-1.91v-.04c0-1.06,1.08-1.91,2.4-1.91Z"/>
      <path class="cls-8" d="m144.4,232.63h31.2c1.32,0,2.4.86,2.4,1.91v.04c0,1.06-1.08,1.91-2.4,1.91h-31.2c-1.32,0-2.4-.86-2.4-1.91v-.04c0-1.06,1.08-1.91,2.4-1.91Z"/>
      <path class="cls-6" d="m64.4,232.63h31.2c1.32,0,2.4.86,2.4,1.91v.04c0,1.06-1.08,1.91-2.4,1.91h-31.2c-1.32,0-2.4-.86-2.4-1.91v-.04c0-1.06,1.08-1.91,2.4-1.91Z"/>
      <path class="cls-4" d="m24.4,237.79h31.2c1.32,0,2.4.86,2.4,1.91v.04c0,1.06-1.08,1.91-2.4,1.91h-31.2c-1.32,0-2.4-.86-2.4-1.91v-.04c0-1.06,1.08-1.91,2.4-1.91Z"/>
      <path class="cls-3" d="m264.4,237.79h31.2c1.32,0,2.4.86,2.4,1.91v.04c0,1.06-1.08,1.91-2.4,1.91h-31.2c-1.32,0-2.4-.86-2.4-1.91v-.04c0-1.06,1.08-1.91,2.4-1.91Z"/>
      <path class="cls-4" d="m24.4,242.94h31.2c1.32,0,2.4.86,2.4,1.91v.04c0,1.06-1.08,1.91-2.4,1.91h-31.2c-1.32,0-2.4-.86-2.4-1.91v-.04c0-1.06,1.08-1.91,2.4-1.91Z"/>
      <path class="cls-3" d="m264.4,242.94h31.2c1.32,0,2.4.86,2.4,1.91v.04c0,1.06-1.08,1.91-2.4,1.91h-31.2c-1.32,0-2.4-.86-2.4-1.91v-.04c0-1.06,1.08-1.91,2.4-1.91Z"/>
      <path class="cls-3" d="m264.4,248.1h31.2c1.32,0,2.4.86,2.4,1.91v.04c0,1.06-1.08,1.91-2.4,1.91h-31.2c-1.32,0-2.4-.86-2.4-1.91v-.04c0-1.06,1.08-1.91,2.4-1.91Z"/>
      <path class="cls-4" d="m24.4,248.1h31.2c1.32,0,2.4.86,2.4,1.91v.04c0,1.06-1.08,1.91-2.4,1.91h-31.2c-1.32,0-2.4-.86-2.4-1.91v-.04c0-1.06,1.08-1.91,2.4-1.91Z"/>
      <path class="cls-3" d="m264.4,253.25h31.2c1.32,0,2.4.86,2.4,1.91v.04c0,1.06-1.08,1.91-2.4,1.91h-31.2c-1.32,0-2.4-.86-2.4-1.91v-.04c0-1.06,1.08-1.91,2.4-1.91Z"/>
      <path class="cls-4" d="m24.4,253.25h31.2c1.32,0,2.4.86,2.4,1.91v.04c0,1.06-1.08,1.91-2.4,1.91h-31.2c-1.32,0-2.4-.86-2.4-1.91v-.04c0-1.06,1.08-1.91,2.4-1.91Z"/>
      <path class="cls-3" d="m264.4,258.41h31.2c1.32,0,2.4.86,2.4,1.91v.04c0,1.06-1.08,1.91-2.4,1.91h-31.2c-1.32,0-2.4-.86-2.4-1.91v-.04c0-1.06,1.08-1.91,2.4-1.91Z"/>
      <path class="cls-4" d="m24.4,258.41h31.2c1.32,0,2.4.86,2.4,1.91v.04c0,1.06-1.08,1.91-2.4,1.91h-31.2c-1.32,0-2.4-.86-2.4-1.91v-.04c0-1.06,1.08-1.91,2.4-1.91Z"/>
      <path class="cls-8" d="m144.4,263.56h31.2c1.32,0,2.4.86,2.4,1.91v.04c0,1.06-1.08,1.91-2.4,1.91h-31.2c-1.32,0-2.4-.86-2.4-1.91v-.04c0-1.06,1.08-1.91,2.4-1.91Z"/>
      <path class="cls-6" d="m64.4,263.56h31.2c1.32,0,2.4.86,2.4,1.91v.04c0,1.06-1.08,1.91-2.4,1.91h-31.2c-1.32,0-2.4-.86-2.4-1.91v-.04c0-1.06,1.08-1.91,2.4-1.91Z"/>
      <path class="cls-4" d="m24.4,263.56h31.2c1.32,0,2.4.86,2.4,1.91v.04c0,1.06-1.08,1.91-2.4,1.91h-31.2c-1.32,0-2.4-.86-2.4-1.91v-.04c0-1.06,1.08-1.91,2.4-1.91Z"/>
      <path class="cls-4" d="m24.4,268.72h31.2c1.32,0,2.4.86,2.4,1.91v.04c0,1.06-1.08,1.91-2.4,1.91h-31.2c-1.32,0-2.4-.86-2.4-1.91v-.04c0-1.06,1.08-1.91,2.4-1.91Z"/>
      <path class="cls-4" d="m24.4,273.87h31.2c1.32,0,2.4.86,2.4,1.91v.04c0,1.06-1.08,1.91-2.4,1.91h-31.2c-1.32,0-2.4-.86-2.4-1.91v-.04c0-1.06,1.08-1.91,2.4-1.91Z"/>
      <path class="cls-4" d="m24.4,279.03h31.2c1.32,0,2.4.86,2.4,1.91v.04c0,1.06-1.08,1.91-2.4,1.91h-31.2c-1.32,0-2.4-.86-2.4-1.91v-.04c0-1.06,1.08-1.91,2.4-1.91Z"/>
      <path class="cls-3" d="m264.4,284.18h31.2c1.32,0,2.4.86,2.4,1.91v.04c0,1.06-1.08,1.91-2.4,1.91h-31.2c-1.32,0-2.4-.86-2.4-1.91v-.04c0-1.06,1.08-1.91,2.4-1.91Z"/>
      <path class="cls-7" d="m104.4,284.18h31.2c1.32,0,2.4.86,2.4,1.91v.04c0,1.06-1.08,1.91-2.4,1.91h-31.2c-1.32,0-2.4-.86-2.4-1.91v-.04c0-1.06,1.08-1.91,2.4-1.91Z"/>
      <path class="cls-8" d="m144.4,284.18h31.2c1.32,0,2.4.86,2.4,1.91v.04c0,1.06-1.08,1.91-2.4,1.91h-31.2c-1.32,0-2.4-.86-2.4-1.91v-.04c0-1.06,1.08-1.91,2.4-1.91Z"/>
      <path class="cls-6" d="m64.4,284.18h31.2c1.32,0,2.4.86,2.4,1.91v.04c0,1.06-1.08,1.91-2.4,1.91h-31.2c-1.32,0-2.4-.86-2.4-1.91v-.04c0-1.06,1.08-1.91,2.4-1.91Z"/>
      <path class="cls-6" d="m64.4,289.34h31.2c1.32,0,2.4.86,2.4,1.91v.04c0,1.06-1.08,1.91-2.4,1.91h-31.2c-1.32,0-2.4-.86-2.4-1.91v-.04c0-1.06,1.08-1.91,2.4-1.91Z"/>
      <path class="cls-2" d="m224.4,289.34h31.2c1.32,0,2.4.86,2.4,1.91v.04c0,1.06-1.08,1.91-2.4,1.91h-31.2c-1.32,0-2.4-.86-2.4-1.91v-.04c0-1.06,1.08-1.91,2.4-1.91Z"/>
      <path class="cls-4" d="m24.4,294.49h31.2c1.32,0,2.4.86,2.4,1.91v.04c0,1.06-1.08,1.91-2.4,1.91h-31.2c-1.32,0-2.4-.86-2.4-1.91v-.04c0-1.06,1.08-1.91,2.4-1.91Z"/>
      <path class="cls-4" d="m24.4,299.65h31.2c1.32,0,2.4.86,2.4,1.91v.04c0,1.06-1.08,1.91-2.4,1.91h-31.2c-1.32,0-2.4-.86-2.4-1.91v-.04c0-1.06,1.08-1.91,2.4-1.91Z"/>
      <path class="cls-4" d="m24.4,304.8h31.2c1.32,0,2.4.86,2.4,1.91v.04c0,1.06-1.08,1.91-2.4,1.91h-31.2c-1.32,0-2.4-.86-2.4-1.91v-.04c0-1.06,1.08-1.91,2.4-1.91Z"/>
      <path class="cls-4" d="m24.4,309.96h31.2c1.32,0,2.4.86,2.4,1.91v.04c0,1.06-1.08,1.91-2.4,1.91h-31.2c-1.32,0-2.4-.86-2.4-1.91v-.04c0-1.06,1.08-1.91,2.4-1.91Z"/>
      <path class="cls-4" d="m24.4,315.11h31.2c1.32,0,2.4.86,2.4,1.91v.04c0,1.06-1.08,1.91-2.4,1.91h-31.2c-1.32,0-2.4-.86-2.4-1.91v-.04c0-1.06,1.08-1.91,2.4-1.91Z"/>
      <path class="cls-8" d="m144.4,320.27h31.2c1.32,0,2.4.86,2.4,1.91v.04c0,1.06-1.08,1.91-2.4,1.91h-31.2c-1.32,0-2.4-.86-2.4-1.91v-.04c0-1.06,1.08-1.91,2.4-1.91Z"/>
      <path class="cls-8" d="m144.4,325.42h31.2c1.32,0,2.4.86,2.4,1.91v.04c0,1.06-1.08,1.91-2.4,1.91h-31.2c-1.32,0-2.4-.86-2.4-1.91v-.04c0-1.06,1.08-1.91,2.4-1.91Z"/>
      <path class="cls-8" d="m144.4,330.58h31.2c1.32,0,2.4.86,2.4,1.91v.04c0,1.06-1.08,1.91-2.4,1.91h-31.2c-1.32,0-2.4-.86-2.4-1.91v-.04c0-1.06,1.08-1.91,2.4-1.91Z"/>
      <path class="cls-8" d="m144.4,335.73h31.2c1.32,0,2.4.86,2.4,1.91v.04c0,1.06-1.08,1.91-2.4,1.91h-31.2c-1.32,0-2.4-.86-2.4-1.91v-.04c0-1.06,1.08-1.91,2.4-1.91Z"/>
      <path class="cls-3" d="m264.4,340.89h31.2c1.32,0,2.4.86,2.4,1.91v.04c0,1.06-1.08,1.91-2.4,1.91h-31.2c-1.32,0-2.4-.86-2.4-1.91v-.04c0-1.06,1.08-1.91,2.4-1.91Z"/>
      <path class="cls-6" d="m64.4,340.89h31.2c1.32,0,2.4.86,2.4,1.91v.04c0,1.06-1.08,1.91-2.4,1.91h-31.2c-1.32,0-2.4-.86-2.4-1.91v-.04c0-1.06,1.08-1.91,2.4-1.91Z"/>
      <path class="cls-7" d="m104.4,340.89h31.2c1.32,0,2.4.86,2.4,1.91v.04c0,1.06-1.08,1.91-2.4,1.91h-31.2c-1.32,0-2.4-.86-2.4-1.91v-.04c0-1.06,1.08-1.91,2.4-1.91Z"/>
      <path class="cls-2" d="m224.4,340.89h31.2c1.32,0,2.4.86,2.4,1.91v.04c0,1.06-1.08,1.91-2.4,1.91h-31.2c-1.32,0-2.4-.86-2.4-1.91v-.04c0-1.06,1.08-1.91,2.4-1.91Z"/>
      <path class="cls-4" d="m24.4,346.04h31.2c1.32,0,2.4.86,2.4,1.91v.04c0,1.06-1.08,1.91-2.4,1.91h-31.2c-1.32,0-2.4-.86-2.4-1.91v-.04c0-1.06,1.08-1.91,2.4-1.91Z"/>
      <path class="cls-4" d="m24.4,351.2h31.2c1.32,0,2.4.86,2.4,1.91v.04c0,1.06-1.08,1.91-2.4,1.91h-31.2c-1.32,0-2.4-.86-2.4-1.91v-.04c0-1.06,1.08-1.91,2.4-1.91Z"/>
      <path class="cls-3" d="m264.4,356.36h31.2c1.32,0,2.4.86,2.4,1.91v.04c0,1.06-1.08,1.91-2.4,1.91h-31.2c-1.32,0-2.4-.86-2.4-1.91v-.04c0-1.06,1.08-1.91,2.4-1.91Z"/>
      <path class="cls-6" d="m64.4,356.36h31.2c1.32,0,2.4.86,2.4,1.91v.04c0,1.06-1.08,1.91-2.4,1.91h-31.2c-1.32,0-2.4-.86-2.4-1.91v-.04c0-1.06,1.08-1.91,2.4-1.91Z"/>
      <path class="cls-8" d="m144.4,361.51h31.2c1.32,0,2.4.86,2.4,1.91v.04c0,1.06-1.08,1.91-2.4,1.91h-31.2c-1.32,0-2.4-.86-2.4-1.91v-.04c0-1.06,1.08-1.91,2.4-1.91Z"/>
      <path class="cls-3" d="m264.4,361.51h31.2c1.32,0,2.4.86,2.4,1.91v.04c0,1.06-1.08,1.91-2.4,1.91h-31.2c-1.32,0-2.4-.86-2.4-1.91v-.04c0-1.06,1.08-1.91,2.4-1.91Z"/>
      <path class="cls-6" d="m64.4,366.67h31.2c1.32,0,2.4.86,2.4,1.91v.04c0,1.06-1.08,1.91-2.4,1.91h-31.2c-1.32,0-2.4-.86-2.4-1.91v-.04c0-1.06,1.08-1.91,2.4-1.91Z"/>
      <path class="cls-8" d="m144.4,366.67h31.2c1.32,0,2.4.86,2.4,1.91v.04c0,1.06-1.08,1.91-2.4,1.91h-31.2c-1.32,0-2.4-.86-2.4-1.91v-.04c0-1.06,1.08-1.91,2.4-1.91Z"/>
      <path class="cls-2" d="m224.4,366.67h31.2c1.32,0,2.4.86,2.4,1.91v.04c0,1.06-1.08,1.91-2.4,1.91h-31.2c-1.32,0-2.4-.86-2.4-1.91v-.04c0-1.06,1.08-1.91,2.4-1.91Z"/>
      <path class="cls-4" d="m24.4,371.82h31.2c1.32,0,2.4.86,2.4,1.91v.04c0,1.06-1.08,1.91-2.4,1.91h-31.2c-1.32,0-2.4-.86-2.4-1.91v-.04c0-1.06,1.08-1.91,2.4-1.91Z"/>
      <path class="cls-4" d="m24.4,376.98h31.2c1.32,0,2.4.86,2.4,1.91v.04c0,1.06-1.08,1.91-2.4,1.91h-31.2c-1.32,0-2.4-.86-2.4-1.91v-.04c0-1.06,1.08-1.91,2.4-1.91Z"/>
      <path class="cls-4" d="m24.4,382.13h31.2c1.32,0,2.4.86,2.4,1.91v.04c0,1.06-1.08,1.91-2.4,1.91h-31.2c-1.32,0-2.4-.86-2.4-1.91v-.04c0-1.06,1.08-1.91,2.4-1.91Z"/>
      <path class="cls-4" d="m24.4,387.29h31.2c1.32,0,2.4.86,2.4,1.91v.04c0,1.06-1.08,1.91-2.4,1.91h-31.2c-1.32,0-2.4-.86-2.4-1.91v-.04c0-1.06,1.08-1.91,2.4-1.91Z"/>
      <path class="cls-4" d="m24.4,392.44h31.2c1.32,0,2.4.86,2.4,1.91v.04c0,1.06-1.08,1.91-2.4,1.91h-31.2c-1.32,0-2.4-.86-2.4-1.91v-.04c0-1.06,1.08-1.91,2.4-1.91Z"/>
      <path class="cls-4" d="m24.4,397.6h31.2c1.32,0,2.4.86,2.4,1.91v.04c0,1.06-1.08,1.91-2.4,1.91h-31.2c-1.32,0-2.4-.86-2.4-1.91v-.04c0-1.06,1.08-1.91,2.4-1.91Z"/>
      <path class="cls-4" d="m24.4,402.75h31.2c1.32,0,2.4.86,2.4,1.91v.04c0,1.06-1.08,1.91-2.4,1.91h-31.2c-1.32,0-2.4-.86-2.4-1.91v-.04c0-1.06,1.08-1.91,2.4-1.91Z"/>
      <path class="cls-6" d="m64.4,407.91h31.2c1.32,0,2.4.86,2.4,1.91v.04c0,1.06-1.08,1.91-2.4,1.91h-31.2c-1.32,0-2.4-.86-2.4-1.91v-.04c0-1.06,1.08-1.91,2.4-1.91Z"/>
      <path class="cls-8" d="m144.4,407.91h31.2c1.32,0,2.4.86,2.4,1.91v.04c0,1.06-1.08,1.91-2.4,1.91h-31.2c-1.32,0-2.4-.86-2.4-1.91v-.04c0-1.06,1.08-1.91,2.4-1.91Z"/>
      <path class="cls-3" d="m264.4,407.91h31.2c1.32,0,2.4.86,2.4,1.91v.04c0,1.06-1.08,1.91-2.4,1.91h-31.2c-1.32,0-2.4-.86-2.4-1.91v-.04c0-1.06,1.08-1.91,2.4-1.91Z"/>
      <path class="cls-8" d="m144.4,413.06h31.2c1.32,0,2.4.86,2.4,1.91v.04c0,1.06-1.08,1.91-2.4,1.91h-31.2c-1.32,0-2.4-.86-2.4-1.91v-.04c0-1.06,1.08-1.91,2.4-1.91Z"/>
      <path class="cls-6" d="m64.4,413.06h31.2c1.32,0,2.4.86,2.4,1.91v.04c0,1.06-1.08,1.91-2.4,1.91h-31.2c-1.32,0-2.4-.86-2.4-1.91v-.04c0-1.06,1.08-1.91,2.4-1.91Z"/>
      <path class="cls-3" d="m264.4,413.06h31.2c1.32,0,2.4.86,2.4,1.91v.04c0,1.06-1.08,1.91-2.4,1.91h-31.2c-1.32,0-2.4-.86-2.4-1.91v-.04c0-1.06,1.08-1.91,2.4-1.91Z"/>
      <path class="cls-7" d="m104.4,413.06h31.2c1.32,0,2.4.86,2.4,1.91v.04c0,1.06-1.08,1.91-2.4,1.91h-31.2c-1.32,0-2.4-.86-2.4-1.91v-.04c0-1.06,1.08-1.91,2.4-1.91Z"/>
      <path class="cls-4" d="m24.4,418.22h31.2c1.32,0,2.4.86,2.4,1.91v.04c0,1.06-1.08,1.91-2.4,1.91h-31.2c-1.32,0-2.4-.86-2.4-1.91v-.04c0-1.06,1.08-1.91,2.4-1.91Z"/>
      <path class="cls-3" d="m264.4,423.37h31.2c1.32,0,2.4.86,2.4,1.91v.04c0,1.06-1.08,1.91-2.4,1.91h-31.2c-1.32,0-2.4-.86-2.4-1.91v-.04c0-1.06,1.08-1.91,2.4-1.91Z"/>
      <path class="cls-6" d="m64.4,423.37h31.2c1.32,0,2.4.86,2.4,1.91v.04c0,1.06-1.08,1.91-2.4,1.91h-31.2c-1.32,0-2.4-.86-2.4-1.91v-.04c0-1.06,1.08-1.91,2.4-1.91Z"/>
      <path class="cls-8" d="m144.4,423.37h31.2c1.32,0,2.4.86,2.4,1.91v.04c0,1.06-1.08,1.91-2.4,1.91h-31.2c-1.32,0-2.4-.86-2.4-1.91v-.04c0-1.06,1.08-1.91,2.4-1.91Z"/>
      <path class="cls-8" d="m144.4,428.53h31.2c1.32,0,2.4.86,2.4,1.91v.04c0,1.06-1.08,1.91-2.4,1.91h-31.2c-1.32,0-2.4-.86-2.4-1.91v-.04c0-1.06,1.08-1.91,2.4-1.91Z"/>
      <path class="cls-7" d="m104.4,428.53h31.2c1.32,0,2.4.86,2.4,1.91v.04c0,1.06-1.08,1.91-2.4,1.91h-31.2c-1.32,0-2.4-.86-2.4-1.91v-.04c0-1.06,1.08-1.91,2.4-1.91Z"/>
      <path class="cls-6" d="m64.4,428.53h31.2c1.32,0,2.4.86,2.4,1.91v.04c0,1.06-1.08,1.91-2.4,1.91h-31.2c-1.32,0-2.4-.86-2.4-1.91v-.04c0-1.06,1.08-1.91,2.4-1.91Z"/>
      <path class="cls-3" d="m264.4,433.68h31.2c1.32,0,2.4.86,2.4,1.91v.04c0,1.06-1.08,1.91-2.4,1.91h-31.2c-1.32,0-2.4-.86-2.4-1.91v-.04c0-1.06,1.08-1.91,2.4-1.91Z"/>
      <path class="cls-7" d="m104.4,433.68h31.2c1.32,0,2.4.86,2.4,1.91v.04c0,1.06-1.08,1.91-2.4,1.91h-31.2c-1.32,0-2.4-.86-2.4-1.91v-.04c0-1.06,1.08-1.91,2.4-1.91Z"/>
      <path class="cls-6" d="m64.4,433.68h31.2c1.32,0,2.4.86,2.4,1.91v.04c0,1.06-1.08,1.91-2.4,1.91h-31.2c-1.32,0-2.4-.86-2.4-1.91v-.04c0-1.06,1.08-1.91,2.4-1.91Z"/>
      <path class="cls-8" d="m144.4,433.68h31.2c1.32,0,2.4.86,2.4,1.91v.04c0,1.06-1.08,1.91-2.4,1.91h-31.2c-1.32,0-2.4-.86-2.4-1.91v-.04c0-1.06,1.08-1.91,2.4-1.91Z"/>
      <path class="cls-8" d="m144.4,438.84h31.2c1.32,0,2.4.86,2.4,1.91v.04c0,1.06-1.08,1.91-2.4,1.91h-31.2c-1.32,0-2.4-.86-2.4-1.91v-.04c0-1.06,1.08-1.91,2.4-1.91Z"/>
      <path class="cls-6" d="m64.4,438.84h31.2c1.32,0,2.4.86,2.4,1.91v.04c0,1.06-1.08,1.91-2.4,1.91h-31.2c-1.32,0-2.4-.86-2.4-1.91v-.04c0-1.06,1.08-1.91,2.4-1.91Z"/>
      <path class="cls-6" d="m64.4,443.99h31.2c1.32,0,2.4.86,2.4,1.91v.04c0,1.06-1.08,1.91-2.4,1.91h-31.2c-1.32,0-2.4-.86-2.4-1.91v-.04c0-1.06,1.08-1.91,2.4-1.91Z"/>
      <path class="cls-8" d="m144.4,443.99h31.2c1.32,0,2.4.86,2.4,1.91v.04c0,1.06-1.08,1.91-2.4,1.91h-31.2c-1.32,0-2.4-.86-2.4-1.91v-.04c0-1.06,1.08-1.91,2.4-1.91Z"/>
      <path class="cls-3" d="m264.4,443.99h31.2c1.32,0,2.4.86,2.4,1.91v.04c0,1.06-1.08,1.91-2.4,1.91h-31.2c-1.32,0-2.4-.86-2.4-1.91v-.04c0-1.06,1.08-1.91,2.4-1.91Z"/>
      <path class="cls-3" d="m264.4,449.15h31.2c1.32,0,2.4.86,2.4,1.91v.04c0,1.06-1.08,1.91-2.4,1.91h-31.2c-1.32,0-2.4-.86-2.4-1.91v-.04c0-1.06,1.08-1.91,2.4-1.91Z"/>
      <path class="cls-6" d="m64.4,449.15h31.2c1.32,0,2.4.86,2.4,1.91v.04c0,1.06-1.08,1.91-2.4,1.91h-31.2c-1.32,0-2.4-.86-2.4-1.91v-.04c0-1.06,1.08-1.91,2.4-1.91Z"/>
      <path class="cls-8" d="m144.4,449.15h31.2c1.32,0,2.4.86,2.4,1.91v.04c0,1.06-1.08,1.91-2.4,1.91h-31.2c-1.32,0-2.4-.86-2.4-1.91v-.04c0-1.06,1.08-1.91,2.4-1.91Z"/>
      <path class="cls-2" d="m224.4,449.15h31.2c1.32,0,2.4.86,2.4,1.91v.04c0,1.06-1.08,1.91-2.4,1.91h-31.2c-1.32,0-2.4-.86-2.4-1.91v-.04c0-1.06,1.08-1.91,2.4-1.91Z"/>
      <path class="cls-2" d="m224.4,454.3h31.2c1.32,0,2.4.86,2.4,1.91v.04c0,1.06-1.08,1.91-2.4,1.91h-31.2c-1.32,0-2.4-.86-2.4-1.91v-.04c0-1.06,1.08-1.91,2.4-1.91Z"/>
      <path class="cls-7" d="m104.4,459.46h31.2c1.32,0,2.4.86,2.4,1.91v.04c0,1.06-1.08,1.91-2.4,1.91h-31.2c-1.32,0-2.4-.86-2.4-1.91v-.04c0-1.06,1.08-1.91,2.4-1.91Z"/>
      <path class="cls-8" d="m144.4,459.46h31.2c1.32,0,2.4.86,2.4,1.91v.04c0,1.06-1.08,1.91-2.4,1.91h-31.2c-1.32,0-2.4-.86-2.4-1.91v-.04c0-1.06,1.08-1.91,2.4-1.91Z"/>
      <path class="cls-7" d="m104.4,464.62h31.2c1.32,0,2.4.86,2.4,1.91v.04c0,1.06-1.08,1.91-2.4,1.91h-31.2c-1.32,0-2.4-.86-2.4-1.91v-.04c0-1.06,1.08-1.91,2.4-1.91Z"/>
      <path class="cls-2" d="m224.4,464.62h31.2c1.32,0,2.4.86,2.4,1.91v.04c0,1.06-1.08,1.91-2.4,1.91h-31.2c-1.32,0-2.4-.86-2.4-1.91v-.04c0-1.06,1.08-1.91,2.4-1.91Z"/>
      <path class="cls-8" d="m144.4,469.77h31.2c1.32,0,2.4.86,2.4,1.91v.04c0,1.06-1.08,1.91-2.4,1.91h-31.2c-1.32,0-2.4-.86-2.4-1.91v-.04c0-1.06,1.08-1.91,2.4-1.91Z"/>
      <path class="cls-3" d="m264.4,469.77h31.2c1.32,0,2.4.86,2.4,1.91v.04c0,1.06-1.08,1.91-2.4,1.91h-31.2c-1.32,0-2.4-.86-2.4-1.91v-.04c0-1.06,1.08-1.91,2.4-1.91Z"/>
      <path class="cls-6" d="m64.4,469.77h31.2c1.32,0,2.4.86,2.4,1.91v.04c0,1.06-1.08,1.91-2.4,1.91h-31.2c-1.32,0-2.4-.86-2.4-1.91v-.04c0-1.06,1.08-1.91,2.4-1.91Z"/>
      <path class="cls-6" d="m64.4,474.93h31.2c1.32,0,2.4.86,2.4,1.91v.04c0,1.06-1.08,1.91-2.4,1.91h-31.2c-1.32,0-2.4-.86-2.4-1.91v-.04c0-1.06,1.08-1.91,2.4-1.91Z"/>
      <path class="cls-4" d="m24.4,480.08h31.2c1.32,0,2.4.86,2.4,1.91v.04c0,1.06-1.08,1.91-2.4,1.91h-31.2c-1.32,0-2.4-.86-2.4-1.91v-.04c0-1.06,1.08-1.91,2.4-1.91Z"/>
      <path class="cls-6" d="m64.4,480.08h31.2c1.32,0,2.4.86,2.4,1.91v.04c0,1.06-1.08,1.91-2.4,1.91h-31.2c-1.32,0-2.4-.86-2.4-1.91v-.04c0-1.06,1.08-1.91,2.4-1.91Z"/>
      <path class="cls-8" d="m144.4,480.08h31.2c1.32,0,2.4.86,2.4,1.91v.04c0,1.06-1.08,1.91-2.4,1.91h-31.2c-1.32,0-2.4-.86-2.4-1.91v-.04c0-1.06,1.08-1.91,2.4-1.91Z"/>
      <path class="cls-4" d="m24.4,485.24h31.2c1.32,0,2.4.86,2.4,1.91v.04c0,1.06-1.08,1.91-2.4,1.91h-31.2c-1.32,0-2.4-.86-2.4-1.91v-.04c0-1.06,1.08-1.91,2.4-1.91Z"/>
      <path class="cls-7" d="m104.4,485.24h31.2c1.32,0,2.4.86,2.4,1.91v.04c0,1.06-1.08,1.91-2.4,1.91h-31.2c-1.32,0-2.4-.86-2.4-1.91v-.04c0-1.06,1.08-1.91,2.4-1.91Z"/>
      <path class="cls-4" d="m24.4,490.39h31.2c1.32,0,2.4.86,2.4,1.91v.04c0,1.06-1.08,1.91-2.4,1.91h-31.2c-1.32,0-2.4-.86-2.4-1.91v-.04c0-1.06,1.08-1.91,2.4-1.91Z"/>
      <path class="cls-4" d="m24.4,495.55h31.2c1.32,0,2.4.86,2.4,1.91v.04c0,1.06-1.08,1.91-2.4,1.91h-31.2c-1.32,0-2.4-.86-2.4-1.91v-.04c0-1.06,1.08-1.91,2.4-1.91Z"/>
      <path class="cls-4" d="m24.4,500.7h31.2c1.32,0,2.4.86,2.4,1.91v.04c0,1.06-1.08,1.91-2.4,1.91h-31.2c-1.32,0-2.4-.86-2.4-1.91v-.04c0-1.06,1.08-1.91,2.4-1.91Z"/>
      <path class="cls-7" d="m104.4,505.86h31.2c1.32,0,2.4.86,2.4,1.91v.04c0,1.06-1.08,1.91-2.4,1.91h-31.2c-1.32,0-2.4-.86-2.4-1.91v-.04c0-1.06,1.08-1.91,2.4-1.91Z"/>
      <path class="cls-5" d="m184.4,505.86h31.2c1.32,0,2.4.86,2.4,1.91v.04c0,1.06-1.08,1.91-2.4,1.91h-31.2c-1.32,0-2.4-.86-2.4-1.91v-.04c0-1.06,1.08-1.91,2.4-1.91Z"/>
      <path class="cls-6" d="m64.4,505.86h31.2c1.32,0,2.4.86,2.4,1.91v.04c0,1.06-1.08,1.91-2.4,1.91h-31.2c-1.32,0-2.4-.86-2.4-1.91v-.04c0-1.06,1.08-1.91,2.4-1.91Z"/>
      <path class="cls-3" d="m264.4,505.86h31.2c1.32,0,2.4.86,2.4,1.91v.04c0,1.06-1.08,1.91-2.4,1.91h-31.2c-1.32,0-2.4-.86-2.4-1.91v-.04c0-1.06,1.08-1.91,2.4-1.91Z"/>
      <path class="cls-8" d="m144.4,505.86h31.2c1.32,0,2.4.86,2.4,1.91v.04c0,1.06-1.08,1.91-2.4,1.91h-31.2c-1.32,0-2.4-.86-2.4-1.91v-.04c0-1.06,1.08-1.91,2.4-1.91Z"/>
    </g>
  </g>
</svg>