<?xml version="1.0" encoding="utf-8"?>
<!-- Generator: Adobe Illustrator 27.8.1, SVG Export Plug-In . SVG Version: 6.00 Build 0)  -->
<svg version="1.1" id="Layer_1" xmlns="http://www.w3.org/2000/svg" xmlns:xlink="http://www.w3.org/1999/xlink" x="0px" y="0px"
	 viewBox="0 0 475 242" style="enable-background:new 0 0 475 242;" xml:space="preserve">
<style type="text/css">
	.st0{fill:#FFFFFF;}
	.st1{fill:none;stroke:#DDDDDD;stroke-miterlimit:10;}
	.st2{fill:none;}
	.st3{display:none;fill:none;stroke:#DDDDDD;stroke-miterlimit:10;}
	.st4{fill:none;stroke:#888888;stroke-miterlimit:10;}
	.st5{font-family:'Helvetica';}
	.st6{font-size:10px;}
	.st7{font-family:'Helvetica-Bold';}
	.st8{font-size:11px;}
	.st9{display:none;}
	.st10{fill:#9575C9;}
	.st11{display:none;fill:#4C78A8;}
</style>
<rect class="st0" width="475" height="242"/>
<path class="st1" d="M169.5,5.5h300v200h-300V5.5z"/>
<g>
	<g transform="translate(0.5,200.5)">
		<path pointer-events="none" class="st2" d="M169,5L169,5L169,5L169,5z"/>
		<g>
			<g pointer-events="none">
				<line class="st1" x1="169" y1="5" x2="169" y2="-195"/>
				<line class="st1" x1="219" y1="5" x2="219" y2="-195"/>
				<line class="st1" x1="269" y1="5" x2="269" y2="-195"/>
				<line class="st1" x1="319" y1="5" x2="319" y2="-195"/>
				<line class="st1" x1="369" y1="5" x2="369" y2="-195"/>
				<line class="st1" x1="419" y1="5" x2="419" y2="-195"/>
				<line class="st1" x1="469" y1="5" x2="469" y2="-195"/>
			</g>
		</g>
		<path pointer-events="none" class="st3" d="M169,5"/>
	</g>
</g>
<g>
	<g transform="translate(0.5,200.5)">
		<path pointer-events="none" class="st2" d="M169,5L169,5L169,5L169,5z"/>
		<g>
			<g pointer-events="none">
				<line class="st4" x1="169" y1="5" x2="169" y2="10"/>
				<line class="st4" x1="219" y1="5" x2="219" y2="10"/>
				<line class="st4" x1="269" y1="5" x2="269" y2="10"/>
				<line class="st4" x1="319" y1="5" x2="319" y2="10"/>
				<line class="st4" x1="369" y1="5" x2="369" y2="10"/>
				<line class="st4" x1="419" y1="5" x2="419" y2="10"/>
				<line class="st4" x1="469" y1="5" x2="469" y2="10"/>
			</g>
			<g pointer-events="none">
				<text transform="matrix(1 0 0 1 169 20)" class="st5 st6">0</text>
				<text transform="matrix(1 0 0 1 203.707 20)" class="st5 st6">10,000</text>
				<text transform="matrix(1 0 0 1 253.707 20)" class="st5 st6">20,000</text>
				<text transform="matrix(1 0 0 1 303.707 20)" class="st5 st6">30,000</text>
				<text transform="matrix(1 0 0 1 353.707 20)" class="st5 st6">40,000</text>
				<text transform="matrix(1 0 0 1 403.707 20)" class="st5 st6">50,000</text>
				<text transform="matrix(1 0 0 1 438.4141 20)" class="st5 st6">60,000</text>
			</g>
			<g pointer-events="none">
				<line class="st4" x1="169" y1="5" x2="469" y2="5"/>
			</g>
			<g pointer-events="none">
				<text transform="matrix(1 0 0 1 289.3542 35)" class="st7 st8">Importance</text>
			</g>
		</g>
		<path pointer-events="none" class="st9" d="M169,5"/>
	</g>
</g>
<path pointer-events="none" class="st2" d="M169.5,5.5L169.5,5.5L169.5,5.5L169.5,5.5z"/>
<g pointer-events="none">
	<line class="st4" x1="169.5" y1="15.5" x2="164.5" y2="15.5"/>
	<line class="st4" x1="169.5" y1="35.5" x2="164.5" y2="35.5"/>
	<line class="st4" x1="169.5" y1="55.5" x2="164.5" y2="55.5"/>
	<line class="st4" x1="169.5" y1="75.5" x2="164.5" y2="75.5"/>
	<line class="st4" x1="169.5" y1="95.5" x2="164.5" y2="95.5"/>
	<line class="st4" x1="169.5" y1="115.5" x2="164.5" y2="115.5"/>
	<line class="st4" x1="169.5" y1="135.5" x2="164.5" y2="135.5"/>
	<line class="st4" x1="169.5" y1="155.5" x2="164.5" y2="155.5"/>
	<line class="st4" x1="169.5" y1="175.5" x2="164.5" y2="175.5"/>
	<line class="st4" x1="169.5" y1="195.5" x2="164.5" y2="195.5"/>
</g>
<g pointer-events="none">
	<text transform="matrix(1 0 0 1 105.249 18)" class="st5 st6">Line Number</text>
	<text transform="matrix(1 0 0 1 20.7568 38)" class="st5 st6">Quotes by Character in Episode</text>
	<text transform="matrix(1 0 0 1 28.5498 58)" class="st5 st6">Quotes by Character in Series</text>
	<text transform="matrix(1 0 0 1 90.7764 78)" class="st5 st6">Length of Quote</text>
	<text transform="matrix(1 0 0 1 60.21 98)" class="st5 st6">Previous Quote Length</text>
	<text transform="matrix(1 0 0 1 78.5547 118)" class="st5 st6">Next Quote Length</text>
	<text transform="matrix(1 0 0 1 64.1162 138)" class="st5 st6">Next Quote Sentiment</text>
	<text transform="matrix(1 0 0 1 45.7715 158)" class="st5 st6">Previous Quote Sentiment</text>
	<text transform="matrix(1 0 0 1 126.3623 178)" class="st5 st6">Episode</text>
	<text transform="matrix(1 0 0 1 87.456 198)" class="st5 st6">Quote Sentiment</text>
</g>
<g pointer-events="none">
	<line class="st4" x1="169.5" y1="5.5" x2="169.5" y2="205.5"/>
</g>
<path pointer-events="none" class="st9" d="M169.5,5.5"/>
<path class="st10" d="M169,6h279.6v18H169V6z"/>
<path class="st10" d="M169,26h179.2v18H169V26z"/>
<path class="st10" d="M169,46h133.3v18H169V46z"/>
<path class="st10" d="M169,66h111.8v18H169V66z"/>
<path class="st10" d="M169,86h109.9v18H169V86z"/>
<path class="st10" d="M169,106h106.8v18H169V106z"/>
<path class="st10" d="M169,126h103.8v18H169V126z"/>
<path class="st10" d="M169,146h50.8v18H169V146z"/>
<path class="st10" d="M169,166h48.9v18H169V166z"/>
<path class="st10" d="M169,186h46.2v18H169V186z"/>
<path class="st11" d="M169,5"/>
</svg>
