<?xml version="1.0" encoding="UTF-8"?>
<svg id="Layer_1" data-name="Layer 1" xmlns="http://www.w3.org/2000/svg" viewBox="0 0 863.95 803.7">
  <defs>
    <style>
      .cls-1 {
        font-size: 13px;
      }

      .cls-1, .cls-2, .cls-3, .cls-4 {
        isolation: isolate;
      }

      .cls-1, .cls-3 {
        font-family: Helvetica-Bold, Helvetica;
        font-weight: 700;
      }

      .cls-5, .cls-6, .cls-7, .cls-8, .cls-9 {
        stroke-width: 1.5px;
      }

      .cls-5, .cls-6, .cls-7, .cls-8, .cls-9, .cls-10, .cls-11, .cls-12, .cls-13, .cls-14, .cls-15, .cls-16, .cls-17 {
        fill: none;
      }

      .cls-5, .cls-6, .cls-7, .cls-8, .cls-9, .cls-11, .cls-12, .cls-13, .cls-14, .cls-15, .cls-16, .cls-17 {
        stroke-miterlimit: 10;
      }

      .cls-5, .cls-11 {
        stroke: #3bd47c;
      }

      .cls-6, .cls-12 {
        stroke: #3c91e6;
      }

      .cls-7, .cls-13 {
        stroke: #0c0a3e;
      }

      .cls-8, .cls-14 {
        stroke: #000;
      }

      .cls-9, .cls-15 {
        stroke: #8a2be2;
      }

      .cls-2 {
        opacity: 0;
      }

      .cls-2, .cls-4 {
        font-family: Helvetica, Helvetica;
        font-size: 10px;
      }

      .cls-10, .cls-18 {
        stroke-width: 0px;
      }

      .cls-3 {
        font-size: 11px;
      }

      .cls-19 {
        letter-spacing: -.05em;
      }

      .cls-11, .cls-12, .cls-13, .cls-14, .cls-15 {
        stroke-width: 2px;
      }

      .cls-16 {
        stroke: #888;
      }

      .cls-17 {
        stroke: #ddd;
      }

      .cls-18 {
        fill: #fff;
      }
    </style>
  </defs>
  <rect class="cls-18" width="863.95" height="364"/>
  <path class="cls-17" d="m58.12,468.41h500v300H58.12v-300Z"/>
  <g>
    <line class="cls-17" x1="58.12" y1="468.41" x2="58.12" y2="768.41"/>
    <line class="cls-17" x1="125.12" y1="468.41" x2="125.12" y2="768.41"/>
    <line class="cls-17" x1="191.12" y1="468.41" x2="191.12" y2="768.41"/>
    <line class="cls-17" x1="258.12" y1="468.41" x2="258.12" y2="768.41"/>
    <line class="cls-17" x1="325.12" y1="468.41" x2="325.12" y2="768.41"/>
    <line class="cls-17" x1="391.12" y1="468.41" x2="391.12" y2="768.41"/>
    <line class="cls-17" x1="458.12" y1="468.41" x2="458.12" y2="768.41"/>
    <line class="cls-17" x1="525.12" y1="468.41" x2="525.12" y2="768.41"/>
  </g>
  <g pointer-events="none">
    <line class="cls-17" x1="58.12" y1="768.41" x2="558.12" y2="768.41"/>
    <line class="cls-17" x1="58.12" y1="730.41" x2="558.12" y2="730.41"/>
    <line class="cls-17" x1="58.12" y1="693.41" x2="558.12" y2="693.41"/>
    <line class="cls-17" x1="58.12" y1="656.41" x2="558.12" y2="656.41"/>
    <line class="cls-17" x1="58.12" y1="618.41" x2="558.12" y2="618.41"/>
    <line class="cls-17" x1="58.12" y1="581.41" x2="558.12" y2="581.41"/>
    <line class="cls-17" x1="58.12" y1="543.41" x2="558.12" y2="543.41"/>
    <line class="cls-17" x1="58.12" y1="506.41" x2="558.12" y2="506.41"/>
    <line class="cls-17" x1="58.12" y1="468.41" x2="558.12" y2="468.41"/>
  </g>
  <g>
    <g pointer-events="none">
      <line class="cls-16" x1="58.12" y1="768.41" x2="58.12" y2="773.41"/>
      <line class="cls-16" x1="91.12" y1="768.41" x2="91.12" y2="773.41"/>
      <line class="cls-16" x1="125.12" y1="768.41" x2="125.12" y2="773.41"/>
      <line class="cls-16" x1="158.12" y1="768.41" x2="158.12" y2="773.41"/>
      <line class="cls-16" x1="191.12" y1="768.41" x2="191.12" y2="773.41"/>
      <line class="cls-16" x1="225.12" y1="768.41" x2="225.12" y2="773.41"/>
      <line class="cls-16" x1="258.12" y1="768.41" x2="258.12" y2="773.41"/>
      <line class="cls-16" x1="291.12" y1="768.41" x2="291.12" y2="773.41"/>
      <line class="cls-16" x1="325.12" y1="768.41" x2="325.12" y2="773.41"/>
      <line class="cls-16" x1="358.12" y1="768.41" x2="358.12" y2="773.41"/>
      <line class="cls-16" x1="391.12" y1="768.41" x2="391.12" y2="773.41"/>
      <line class="cls-16" x1="425.12" y1="768.41" x2="425.12" y2="773.41"/>
      <line class="cls-16" x1="458.12" y1="768.41" x2="458.12" y2="773.41"/>
      <line class="cls-16" x1="491.12" y1="768.41" x2="491.12" y2="773.41"/>
      <line class="cls-16" x1="525.12" y1="768.41" x2="525.12" y2="773.41"/>
      <line class="cls-16" x1="558.12" y1="768.41" x2="558.12" y2="773.41"/>
    </g>
    <g pointer-events="none">
      <text class="cls-4" transform="translate(58.12 783.41)"><tspan x="0" y="0">0</tspan></text>
      <text class="cls-2" transform="translate(83.11 783.41)"><tspan x="0" y="0">200</tspan></text>
      <text class="cls-4" transform="translate(116.44 783.41)"><tspan x="0" y="0">400</tspan></text>
      <text class="cls-2" transform="translate(149.78 783.41)"><tspan x="0" y="0">600</tspan></text>
      <text class="cls-4" transform="translate(183.11 783.41)"><tspan x="0" y="0">800</tspan></text>
      <text class="cls-2" transform="translate(212.27 783.41)"><tspan x="0" y="0">1,000</tspan></text>
      <text class="cls-4" transform="translate(245.61 783.41)"><tspan x="0" y="0">1,200</tspan></text>
      <text class="cls-2" transform="translate(278.94 783.41)"><tspan x="0" y="0">1,400</tspan></text>
      <text class="cls-4" transform="translate(312.27 783.41)"><tspan x="0" y="0">1,600</tspan></text>
      <text class="cls-2" transform="translate(345.61 783.41)"><tspan x="0" y="0">1,800</tspan></text>
      <text class="cls-4" transform="translate(378.94 783.41)"><tspan x="0" y="0">2,000</tspan></text>
      <text class="cls-2" transform="translate(412.27 783.41)"><tspan x="0" y="0">2,200</tspan></text>
      <text class="cls-4" transform="translate(445.61 783.41)"><tspan x="0" y="0">2,400</tspan></text>
      <text class="cls-2" transform="translate(478.94 783.41)"><tspan x="0" y="0">2,600</tspan></text>
      <text class="cls-4" transform="translate(512.27 783.41)"><tspan x="0" y="0">2,800</tspan></text>
      <text class="cls-2" transform="translate(533.09 783.41)"><tspan x="0" y="0">3,000</tspan></text>
    </g>
    <g pointer-events="none">
      <line class="cls-16" x1="58.12" y1="768.41" x2="558.12" y2="768.41"/>
    </g>
    <g pointer-events="none">
      <text class="cls-3" transform="translate(265.95 798.41)"><tspan x="0" y="0">Model Iterations</tspan></text>
    </g>
  </g>
  <g>
    <g pointer-events="none">
      <line class="cls-16" x1="58.12" y1="768.41" x2="53.12" y2="768.41"/>
      <line class="cls-16" x1="58.12" y1="730.41" x2="53.12" y2="730.41"/>
      <line class="cls-16" x1="58.12" y1="693.41" x2="53.12" y2="693.41"/>
      <line class="cls-16" x1="58.12" y1="656.41" x2="53.12" y2="656.41"/>
      <line class="cls-16" x1="58.12" y1="618.41" x2="53.12" y2="618.41"/>
      <line class="cls-16" x1="58.12" y1="581.41" x2="53.12" y2="581.41"/>
      <line class="cls-16" x1="58.12" y1="543.41" x2="53.12" y2="543.41"/>
      <line class="cls-16" x1="58.12" y1="506.41" x2="53.12" y2="506.41"/>
      <line class="cls-16" x1="58.12" y1="468.41" x2="53.12" y2="468.41"/>
    </g>
    <g pointer-events="none">
      <text class="cls-4" transform="translate(31.66 771.41)"><tspan x="0" y="0">0.60</tspan></text>
      <text class="cls-4" transform="translate(31.66 733.91)"><tspan x="0" y="0">0.65</tspan></text>
      <text class="cls-4" transform="translate(31.66 696.41)"><tspan x="0" y="0">0.70</tspan></text>
      <text class="cls-4" transform="translate(31.66 658.91)"><tspan x="0" y="0">0.75</tspan></text>
      <text class="cls-4" transform="translate(31.66 621.41)"><tspan x="0" y="0">0.80</tspan></text>
      <text class="cls-4" transform="translate(31.66 583.91)"><tspan x="0" y="0">0.85</tspan></text>
      <text class="cls-4" transform="translate(31.66 546.41)"><tspan x="0" y="0">0.90</tspan></text>
      <text class="cls-4" transform="translate(31.66 508.91)"><tspan x="0" y="0">0.95</tspan></text>
      <text class="cls-4" transform="translate(31.66 471.41)"><tspan x="0" y="0">1.00</tspan></text>
    </g>
    <g pointer-events="none">
      <line class="cls-16" x1="58.12" y1="768.41" x2="58.12" y2="468.41"/>
    </g>
    <g pointer-events="none">
      <text class="cls-3" transform="translate(25.66 724.46) rotate(-90)"><tspan x="0" y="0">Normalized Discounted Cumulative Gain</tspan></text>
    </g>
  </g>
  <g>
    <g>
      <path class="cls-10" d="m57.62,467.91h500v300H57.62v-300Z"/>
      <path class="cls-11" d="m57.62,626.73l.17-29.23.17,15.44.17,13.66.17-17.49.17,19.45.17-3.99.17,7.73.17,7.67h.33l.17,7.73h.5l.17,3.99.17-3.99h.17l.17,11.48h.67l.17,7.73h.83l.17-7.73.17-7.73.17,23.2h.5l.17-7.73.17,7.73h.17l.17-1.88h.33l.17-7.73.17-7.73h.83l.17.24.17-7.73.17-7.73h.5l.17,7.73h3.67l.17,7.73h1.33l.17-7.73h.67l.17,7.73h1.67l.17.06h1.5l.17-7.73h5.17l.17-13.54h1.33l.17,6.76.17-6.76h.67l.17,6.76h.5l.17,7.73h6.67l.17,2h2.33l.17-7.73h1l.17-7.73h3.5l.17,7.73.17,7.73h1.17l.17-7.73h.83l.17-7.73h6l.17,7.73h4.17l.17-7.73h4.17l.17,7.73h3.5l.17,7.73h4.67l.17-7.73h23.33l.17.85h1.83l.17,7.73h52.67l.17,7.73h7.67l.17-.06h3.83l.17-7.73h15.67l.17,7.73h6.17l.17-7.73h.83l.17,7.71h1.83l.17-7.73h9.5l.17-7.73h2.33l.17-7.73h9.33l.17.06h7.17l.17-.06h.33l.17.06.17-.06h2.5l.17.06h.5l.17-.06h2l.17.06h4.5l.17-7.73h13.33l.17-.06h20.5l.17-7.67.17-7.73h15.17l.17.06h.17l.17-5.99h16.83l.17,7.73.17-7.73.17,7.73h1.33l.17-7.73h19.33l.17-7.73h19.5l.17-1.9h19.33l.17,7.67h11.5l.17,7.73h102.5l.17,7.73h35.67"/>
    </g>
    <g>
      <path class="cls-10" d="m57.62,467.91h500v300H57.62v-300Z"/>
      <path class="cls-12" d="m57.62,601l.17-11.97.17,7.56.17-5.56.17,5.41.17,2.74.17.76.17.97.17,3.81h.33l.17,1.93.17,3.9.17-2.99h.17s.17-1.86.17-1.86l.17-5.92.17-2.99.17,6.68.17,5.98.17-2.99h.17l.17-.91.17,1.75.17,2.99h.17l.17-2.99.17,1.1h.17l.17-2.85.17-2.85.17,5.25h.17l.17.91h.17l.17-1.75.17,4.74h.17l.17-.6h.33l.17-2.85.17,3.04h.83l.17-.81.17-1.75.17-2.17.17-5.98.17-2.99h.17l.17,2.85h.33l.17-2.99h1.5l.17,2.99h.33l.17,2.99h.17l.17-5.98h.67l.17,1.75h.17l.17,4.88h.83l.17,2.99.17-1.75h.67l.17,1.75h.33l.17,2.99h.5l.17-2.99.17,2.99.17-2.99h.17l.17.02h1.5l.17-1.75h1.5l.17-2.99h2.83l.17-4.19h.5l.17-3.6.17,1.02h.5l.17,2.99h.5l.17,2.35.17-2.32h.67l.17,2.32h.5l.17,1.75h2l.17-4.88h2.17l.17,2.89h.83s.17,0,.17,0h1.17l.17.56h1.83l.17-1.93h.33l.17-1.75h1l.17-1.75h.67l.17,2.99h1.83l.17,1.93.17,2.99h.5l.17,1.75.17,1.75h.33l.17-2.99h.67s.17-1.75.17-1.75h.5s.17,0,.17,0h.17l.17-1.75h6l.17,1.75h4.17l.17-1.75h1.5l.17,2.99h2.5l.17,2.84h.83l.17,2.99h2.5l.17,1.75h3.5l.17-2.99h1l.17-2.85h5.33l.17,4.45h.5l.17-1.93h6.5l.17,4.82h.33l.17,2.99h5.83l.17,2.99h4l.17.29.17-2.99h1.67l.17,2.85h12.17l.17,2.99h5.67l.17-2.99h7.33s.17,0,.17,0h1.67l.17-2.99h3.33l.17-2.99h2.67l.17,2.99h9.5l.17,4.87h7.83l.17-2.99h1.17l.17,2.85h1.17l.17,2.99h5.33s.17,0,.17,0h.67l.17,4.88.17-.02h3.83l.17-2.85h1.83l.17,2.99h3.33l.17,2.99h4.83l.17.02h1.17l.17-2.99h3.83l.17,2.85h6.17l.17-1.75h.83l.17-2.42h.5s.17,0,.17,0h1.17l.17-2.85h1.33l.17-2.99h3.17s.17,0,.17,0h1.33l.17,3.17h3.17l.17-1.75h.33l.17,4.88h1.67s.17,0,.17,0l.17-2.85h9.33l.17.02h7.17l.17-.02h.33l.17.02.17-.02h2.5l.17.02h.5l.17-.02h.67l.17-4.76h1.17l.17.02h4.5l.17-1.75h13.33l.17-.02h.83l.17,2.99h19.5l.17-2.8.17-1.75h15.17l.17.02h.17l.17-1.69h10.33l.17-3.7h6.33l.17,2.85.17-2.85.17,2.85h1.33l.17-1.75h10.17l.17-2.99.17,2.99.17-2.99h8.67l.17-1.75h7.5l.17-2.99h4.67l.17,4.88h7l.17-.61h19.33l.17,2.81h11.5l.17,1.75h9.67l.17,2.99h23.83l.17-2.99h10.5l.17,2.78h25.17l.17,2.99h28.33l.17-2.99h3.67l.17-4.2h.33l.17,1.75h5l.17,2.99h30.5"/>
    </g>
    <g>
      <path class="cls-10" d="m57.62,467.91h500v300H57.62v-300Z"/>
      <path class="cls-14" d="m57.62,574.06l.17.14.17.98.17-1.47.17-3.49.17,4.61.17.49.17,4.28.17,1.76h.17l.17,1.81.17-.33.17,2.46.17-.62h.17l.17.56.17-3.84.17-.47.17,7.81.17,2.76.17-.47.17-1.81.17-.17.17,1.34.17.47h.17l.17-.62.17,1.11h.17l.17-4.67.17-2.85.17,4.84h.17l.17.17h.17l.17-3.56.17,4.18h.17l.17-.57.17,1.81.17-4.38.17-2.85.17-.76.17-1.81h.67l.17-.78.17-1.34.17-1.84.17,1.12.17-.62h.17l.17.48h.17l.17-2.37.17-.62h.67l.17-1.81h.67l.17.47h.33s.17.62.17.62h.17l.17-.95h.17s.17,0,.17,0h.33s.17,1.75.17,1.75h.17l.17,1.07h.83l.17-1.34.17.06h.17l.17-1.81h.33l.17,1.34h.17l.17,1.76.17,2.29h.5l.17-.48.17.48.17-.48h.17l.17.02h1.5l.17-1.75h.33l.17-1.81h.33l.17.06h.5l.17-.47h1.33l.17-1.81h.17l.17,1.81h.17l.17-1.81h.67l.17,1.54h.5l.17-3.1.17.2h.5l.17.62h.5l.17,2.29.17-2.28h.67l.17,2.28h.5l.17,1.75.17,1.81h.17l.17-1.81h1l.17-1.81h.33l.17-1.01h2.17l.17.55h2.17l.17.52h.67l.17-1.81h.5l.17-.06h.33l.17-.35h.33l.17-1.34h1l.17-1.75h.67l.17.62h1.83l.17.37.17.47h.5l.17,1.75.17,3.56h.33l.17-.62h.67s.17-1.75.17-1.75h.83l.17-1.75h6l.17,1.75h4.17l.17-1.34h1.5l.17.47h2.5l.17,2.84h.83l.17.62h2.17l.17-.02h.17l.17,3.71h.33l.17.06h3l.17-.47h.83l.17,1.81.17-2.85h4.5l.17,1.82h.67l.17.91h.5l.17-.37h4.5l.17,2.37h.67l.17.14h1l.17-1.37h.33l.17.62h3.83l.17-1.82h1l.17-2.36h.67l.17.62h4l.17.29.17-.62h1.67l.17,4.67h3.83l.17-1.81h.67l.17,1.81h.67l.17,2.02h1l.17,3.42h.33s.17,0,.17,0h2.83l.17,2.37h1.83l.17.47h.67s.17,0,.17,0h1.83l.17-1.82h2.83l.17-.62h7.33s.17,0,.17,0h1.67l.17-.48h.5l.17,1.81h2.67l.17-.47h2.67l.17.48h.83l.17.78h1.83l.17-2.37h2.17s.17,0,.17,0h3.67l.17,1.81h.33l.17,1.01h4l.17-2.37h3.67l.17-.62h1.17l.17,2.85h.83l.17,1.82h.17l.17.62h5.33s.17,0,.17,0h.67l.17,1.01.17-.02h3.33l.17,2.37h.33l.17-2.85.17-3.84h1.33l.17,1.76h.17l.17.62h3.33l.17.48h5s.17,0,.17,0h1l.17-.47h1.83l.17,1.81h1.83l.17,2.85h3l.17-.77h2.33l.17-3.42h.5l.17-1.34h.83l.17,1.32h1.83l.17-2.85h1.33l.17-.47h1.33l.17,2.37h3.17l.17.62h3.17l.17-1.34h.33l.17,1.01h.67l.17-1.81h.83l.17-1.81.17-2.85h9.33l.17.02h7.17l.17-.02h.33l.17.02.17-.02h2.5l.17.02h.5l.17-.02h.67l.17-.98h1.17l.17.02h4.5l.17-1.34h10.83l.17,2.01h2.33l.17-.02h.83l.17.47h19.5l.17-2.79.17-1.34h15.17l.17.02h.17l.17-1.56h2.33l.17-2.01h7.83l.17-.7h3.67l.17-1.76h2.5l.17,2.85.17-2.85.17,2.85h1.33l.17-1.75h5.5l.17-.66h4.5l.17-.48.17.48.17-.48h8.67l.17-1.75h.83l.17,1.81h4.83l.17-1.81h1.5l.17-.48h1l.17,1.81.17-1.81h1.5l.17,1.81h1.67l.17,1.01h2.33l.17-1.82h4.5l.17-.58h.83l.17,3.84h8.5l.17,1.81h9.67l.17.98h11.5l.17,1.75h9.67l.17.47h16s.17,0,.17,0h7.67l.17-.62h10.5l.17.53h15.67l.17-4.19h9.33l.17.62h15.17l.17-1.81h12l.17,1.81.17-2.37h.67l.17-.47h3.67l.17-.83h.33l.17,1.34h2s.17,0,.17,0h2.83l.17.47h19.67l.17,2.37h9.17s.17,0,.17,0h1.33"/>
    </g>
    <g>
      <path class="cls-10" d="m57.62,467.91h500v300H57.62v-300Z"/>
      <path class="cls-13" d="m57.62,556.07l.17-4.3.17,11.93.17-.68.17-3.61.17,3.02.17-3.36.17,2.71.17,1.54h.17l.17-1.09.17,3.73.17.78.17-.62h.17l.17.56.17-2.24.17-.39.17,4.63.17,1.12.17-.39.17-.25.17-.17.17,1.34.17.48h.17l.17-2.66.17,1.11h.17l.17-3.06.17-2.85.17,6.12h.17l.17.17h.17l.17-1.96.17,2.58h.17l.17-1.87.17.21.17-.61.17-2.85.17-.76.17-.21.17,1.3h.33l.17-1.3.17-.76.17-1.11.17-3.14.17-.92.17-.62h.17l.17,2.52h.17l.17-.31.17-.62h.67l.17-.21h.67l.17.4h.33l.17.62h.17l.17-.79h.67l.17,1.75h.17l.17,1.02h.83l.17.19.17-1.54h.17l.17-.21h.33l.17,1.15.17-.04.17.2.17.68.17.04h.33l.17-.47.17.47.17-.47.17-1.3.17.02h1.5l.17-1.75h.33l.17-.21h.5s.17,0,.17,0h.33l.17-.48h1.33l.17-.21h.17l.17.21h.17l.17-.21h.5s.17,0,.17,0l.17-.49h.5l.17-3.09.17.2h.5l.17.62h.17l.17,1.3h.17l.17,2.6.17-2.6.17-1.3.17.33h.33l.17,3.57h.5l.17,3.05.17.21h.17l.17-.21h1l.17-.21h.33l.17-1.01h2.17l.17.55h.33l.17-1.3h.5l.17-.04h1l.17.52h.67l.17-.25h.5l.17-1.31h.33l.17-.37h.33l.17-1.11h1l.17-1.75h.67l.17.62h1.83l.17.37.17.39h.5l.17,1.75.17,1.96h.33l.17-.62.17.04h.5l.17-1.75h.83l.17-1.79h3.33l.17.04h.67l.17-.04h1l.17-.33h.5l.17,1.75h1.33l.17.33h1.67l.17-.33.17.33h.5l.17-.33.17-1.11h1.5l.17,2.77h1.67l.17-.33h.67l.17,2.84h.83l.17.62h2.33s.17,0,.17,0l.17,1.67h.5s.17,0,.17,0h2.83l.17-.39h.83l.17.25.17-2.85h4.5l.17.21h.5l.17,1.3.17.9h.5l.17-.37h1.83l.17.33h2.5l.17.33h.67l.17.22h1l.17.67h.33l.17.62h3.83l.17-.21h1l.17-.33h.67l.17.62h4l.17.28.17-.62h1.67l.17,3.06h3.83l.17-.21h.67l.17.21h.67l.17.32h1l.17.47h1.17l.17-1.3h2l.17.33h1.83l.17.39h2.67l.17-.25h2.83l.17-.62h4.67l.17,1.3h2.5s.17,0,.17,0h.5l.17-1.3h1l.17-.4.17,1.3h.33l.17.21h2.67l.17-.4h1.5l.17-1.3h1l.17.47h.83l.17.11h1.83l.17-.33h1.83l.17-1.3h2.33l.17.34h1.5l.17.21h.33l.17,1.01h3.5l.17,1.3h.33l.17-.33h3.67l.17-.96h1.17l.17,2.85h.83l.17.21h.17l.17.62h5.33s.17,0,.17,0h.67l.17,1.01.17-.02h.83l.17,1.3h2.33l.17.33h.33l.17-2.85.17-.53h1l.17-1.3h.17l.17.2h.17l.17.62h3.33l.17.39h1l.17,1.3h.67s.17,0,.17,0h3s.17,0,.17,0h1l.17-.47h1.83l.17.21.17,1.3h1.67l.17,2.85h1.83s.17,0,.17,0h1l.17-.11h2.33l.17-.47h.5l.17-1.11h.83l.17,1.32h1.83l.17-2.85h1.33l.17-.39h1.33l.17.33h1.67s.17,0,.17,0h.83l.17,1.3h.33l.17.62h3.17l.17-1.34h.33l.17,1.01h.67l.17-.21h.83l.17-.21.17-2.85h7.33l.17-1.56h1.83l.17.02h7.17l.17-.02h.33l.17.02.17-.02h2.5l.17.02h.5l.17-.02h.67l.17-.98h1.17l.17.02h4.5l.17-1.11h10.83l.17.28h2.33l.17-.02h.83l.17.39h15.67l.17-1.3h3.67l.17-2.79.17-1.34h11.67l.17-1.3h3.33l.17.02h.17l.17-1.56h2.33l.17-.28h1.83s.17,0,.17,0h5.83l.17-.7h3.67l.17-.2h2.5l.17,2.85.17-1.55.17,2.85h1.33l.17-1.75h5.5l.17-.09h4.5l.17-.47.17.47.17-.47h8.67l.17-1.75h.83l.17.21h4.83l.17-.21h1.5l.17-.4h1l.17.21.17-.21h1.5l.17.21h1.67l.17,1.01h2.33l.17-.21h4.5l.17-.58h.83l.17.53h8.5l.17.21h9.67l.17,2.58h11.5l.17,1.75h9.67l.17.4h23.83l.17-.62h10.5l.17.53h7.67l.17,1.3h5.33l.17-1.3h2.33l.17-.54h9.33l.17.62h15.17l.17-.25h6l.17-1.3h5.83l.17.21.17-.33h.67l.17-.4h3.67l.17-.83h.33l.17,1.34h5l.17.4h4.67l.17,1.3.17,1.3h1.83l.17-1.3h12.67l.17.33h10.67"/>
    </g>
    <g>
      <path class="cls-10" d="m57.62,467.91h500v300H57.62v-300Z"/>
      <path class="cls-15" d="m57.62,548.48l.17-3.9.17,5.39.17.29.17-3.61.17,4.12.17-1,.17,1.66.17,1.54.17-.02.17.09.17,1.41.17,1.74.17-.62.17-1.01.17.56.17-2.21.17-.34.17,4.63.17,1.07.17.67.17-.21.17-.17.17,1.34.17.48h.17l.17-2,.17,1.11h.17l.17-3.06.17-2.85.17,4.97h.17l.17.17h.17l.17-1.96.17,2.58.17-.03.17-.68.17.21.17-.61.17-2.85.17-.76.17-.21.17.11h.33l.17-.13.17-.76.17-1.11.17-1.97.17-.91.17-.62h.17l.17,2.52h.17l.17.84.17-.62h.67l.17-.18h.67l.17.34h.33l.17.62h.17l.17-.74h.67l.17,1.75h.17l.17,1.02h.83l.17.18.17-1.54h.17l.17-.21h.33l.17,1.12h.17s.17.2.17.2l.17.68h.17s.17,0,.17,0h.17l.17-.47.17.47.17-.47.17-.11.17.02h1.5l.17-1.75h.33l.17-.21h.5s.17,0,.17,0h.33l.17.54h1.33l.17-.21h.17l.17.21h.17l.17-.21.17-1.01h.5l.17-.49h.5l.17-3.09.17.2h.5l.17.62h.17l.17.11h.17l.17,2.31.17-2.3.17-.12.17.03h.33l.17,2.38h.5l.17,1.88.17.18h.17l.17-.18h1l.17-1.2h.33l.17-1.01h2.17l.17.55h.33l.17-.12h.67s.17,0,.17,0h.83l.17.52h.67l.17-.25h.5l.17-.14h.33l.17-.36h.33l.17-.97h1l.17-1.75h.67l.17.62h1.83l.17.37.17.39h.5l.17,1.75.17,1.96h.33l.17-.62h.17s.17,0,.17,0h.33l.17-1.75h.83l.17-1.74h.33l.17-1.17h3s.17,0,.17,0h.67s.17,0,.17,0h.83l.17-.03h.5l.17,1.75h1.33l.17.03h1.67l.17-.03.17.03h.5l.17-.03.17-1.11h1.5l.17.64h1.67l.17-.03h.67l.17,2.84h.83l.17.62h2.33s.17,0,.17,0l.17,1.67h.5s.17,0,.17,0h2.83l.17-.4h.83l.17.25.17-2.85h3.33l.17-1.17h1l.17.21h.5l.17.13.17.91h.5l.17-.37h1.83l.17.03h2.5l.17.33h.67l.17.23h1l.17.67h.33l.17.62h3.83l.17-.21h1l.17-.33h.67l.17.62h4l.17.28.17-.62h1.67l.17,3.06h3.83l.17-.21h.67l.17.21h.67l.17.35h1l.17.47h1.17l.17-.11h2l.17.33h1.83l.17.4h2.67l.17-.25h2.83l.17-.62h4.67l.17.11h3.17l.17-.11h1l.17-.4.17.12h.33l.17.21h2.67l.17-.4h1.5l.17-.11h1l.17.47h.83l.17.11h1.83l.17-.33h1.5l.17,1.01h.17l.17-.11h2.33l.17.03h1.5l.17.21h.33l.17,1.01h3.5l.17.13h.33l.17-.33h3.67l.17-.65h1.17l.17,2.85h.83l.17.21h.17l.17.62h5.33s.17,0,.17,0h.67l.17,1.01.17-.02h.83l.17.11h2.33l.17.33h.33l.17-2.85.17-.53h1l.17-.12h.17l.17.18h.17l.17.62h3.33l.17.39h1l.17.12h3.83s.17,0,.17,0h1l.17.54h1.83l.17.18.17.11h1.67l.17,2.85h3l.17-.11h2.33l.17-.47h.5l.17-.97h.83l.17,1.31h1.83l.17-2.85h1.33l.17-.34h1.33l.17.33h2.67l.17.11h.33l.17-.39h1.33s.17,0,.17,0h1.67l.17-1.34h.33l.17,1.01h.67l.17-.21h.83l.17-.21.17-2.85h7.33l.17-.16h1.83l.17.02h7.17l.17-.02h.33l.17.02.17-.02h2.5l.17.02h.5l.17-.02h.67l.17-.98h1.17l.17.02h4.5l.17-1.11h10.83l.17.28h2.33l.17-.02h.83l.17.4h15.67l.17-.11h3.67l.17-2.79.17-1.34h4.33l.17,1.17h7.17l.17-.12h3.33l.17.02h.17l.17-1.56h2.33l.17-.28h7.83l.17-.7h3.67l.17-.18h2.5l.17,2.85.17-2.72.17,2.85h1.33l.17-1.75h5.5l.17-.09h4.5l.17-.47.17.47.17-.47h.67l.17-1.01h3.33l.17-1.01h3.17s.17,0,.17,0h1l.17-1.75h.83l.17.21h4.83l.17.8h1.5l.17-.34h1l.17.21.17-.21h1.5l.17.21h1.67l.17,1.01h2.33l.17-.21h4.5l.17-.57h.83l.17.53h8.5l.17.21h9.67l.17,2.61h11.5l.17,1.75h7.67s.17,0,.17,0h1.83l.17.34h7l.17,1.17h16.67l.17-.62h10.5l.17.53h5.33l.17-.02h2.17l.17.11h5.33l.17-.11h2.33l.17-.54h9.33l.17.62h4.5l.17,1.17h10.5l.17-.25h6l.17-.12h5.83l.17.21.17-.33h.67l.17-.4h3.67l.17-.82h.33l.17,1.34h2s.17,0,.17,0h2.83l.17.4h4.67l.17.11.17.13h1.83l.17-.13h12.67l.17.33h10.67"/>
    </g>
  </g>
  <g>
    <path class="cls-10" d="m582.62,466.91h88v79h-88v-79Z" pointer-events="none"/>
    <g>
      <g>
        <g>
          <path class="cls-10" d="m582.62,482.91h21.56v11h-21.56v-11Z" pointer-events="none"/>
          <g>
            <g pointer-events="none">
              <path class="cls-5" d="m583.62,488.91h10"/>
            </g>
            <g pointer-events="none">
              <text class="cls-4" transform="translate(598.62 491.91)"><tspan x="0" y="0">1</tspan></text>
            </g>
          </g>
        </g>
        <g>
          <path class="cls-10" d="m582.62,495.91h21.56v11h-21.56v-11Z" pointer-events="none"/>
          <g>
            <g pointer-events="none">
              <path class="cls-6" d="m583.62,501.91h10"/>
            </g>
            <g pointer-events="none">
              <text class="cls-4" transform="translate(598.62 504.91)"><tspan x="0" y="0">2</tspan></text>
            </g>
          </g>
        </g>
        <g>
          <path class="cls-10" d="m582.62,508.91h21.56v11h-21.56v-11Z" pointer-events="none"/>
          <g>
            <g pointer-events="none">
              <path class="cls-8" d="m583.62,514.91h10"/>
            </g>
            <g pointer-events="none">
              <text class="cls-4" transform="translate(598.62 517.91)"><tspan x="0" y="0">3</tspan></text>
            </g>
          </g>
        </g>
        <g>
          <path class="cls-10" d="m582.62,521.91h21.56v11h-21.56v-11Z" pointer-events="none"/>
          <g>
            <g pointer-events="none">
              <path class="cls-7" d="m583.62,527.91h10"/>
            </g>
            <g pointer-events="none">
              <text class="cls-4" transform="translate(598.62 530.91)"><tspan x="0" y="0">4</tspan></text>
            </g>
          </g>
        </g>
        <g>
          <path class="cls-10" d="m582.62,534.91h21.56v11h-21.56v-11Z" pointer-events="none"/>
          <g>
            <g pointer-events="none">
              <path class="cls-9" d="m583.62,540.91h10"/>
            </g>
            <g pointer-events="none">
              <text class="cls-4" transform="translate(598.62 543.91)"><tspan x="0" y="0">5</tspan></text>
            </g>
          </g>
        </g>
      </g>
      <g pointer-events="none">
        <text class="cls-3" transform="translate(582.62 475.91)"><tspan class="cls-19" x="0" y="0">T</tspan><tspan x="6.12" y="0">runcation Level</tspan></text>
      </g>
    </g>
  </g>
  <g pointer-events="none">
    <text class="cls-1" transform="translate(220.93 455.91)"><tspan x="0" y="0">LambdaRank Model Results</tspan></text>
  </g>
  <g>
    <g>
      <line class="cls-17" x1="65.46" y1="32" x2="65.46" y2="332"/>
      <line class="cls-17" x1="156.15" y1="32" x2="156.15" y2="332"/>
      <line class="cls-17" x1="245.49" y1="32" x2="245.49" y2="332"/>
      <line class="cls-17" x1="336.18" y1="32" x2="336.18" y2="332"/>
      <line class="cls-17" x1="426.87" y1="32" x2="426.87" y2="332"/>
      <line class="cls-17" x1="516.21" y1="32" x2="516.21" y2="332"/>
      <line class="cls-17" x1="606.9" y1="32" x2="606.9" y2="332"/>
      <line class="cls-17" x1="697.59" y1="32" x2="697.59" y2="332"/>
    </g>
    <g pointer-events="none">
      <line class="cls-17" x1="65.46" y1="332" x2="742.26" y2="332"/>
      <line class="cls-17" x1="65.46" y1="294" x2="742.26" y2="294"/>
      <line class="cls-17" x1="65.46" y1="257" x2="742.26" y2="257"/>
      <line class="cls-17" x1="65.46" y1="220" x2="742.26" y2="220"/>
      <line class="cls-17" x1="65.46" y1="182" x2="742.26" y2="182"/>
      <line class="cls-17" x1="65.46" y1="145" x2="742.26" y2="145"/>
      <line class="cls-17" x1="65.46" y1="107" x2="742.26" y2="107"/>
      <line class="cls-17" x1="65.46" y1="70" x2="742.26" y2="70"/>
      <line class="cls-17" x1="65.46" y1="32" x2="742.26" y2="32"/>
    </g>
    <g>
      <g>
        <path class="cls-10" d="m64.78,31.5h676.8v300H64.78V31.5Z"/>
        <path class="cls-11" d="m64.78,190.31l.23-29.23.22,15.44.23,13.66.23-17.49.22,19.45.23-3.99.23,7.73.22,7.67h.45l.22,7.73h.68l.23,3.99.23-3.99h.22l.23,11.48h.9l.22,7.73h1.13l.22-7.73.23-7.73.23,23.2h.68l.22-7.73.23,7.73h.23l.22-1.88h.45l.22-7.73.23-7.73h1.13l.23.24.23-7.73.22-7.73h.68l.23,7.73h4.96l.22,7.73h1.81l.22-7.73h.9l.23,7.73h2.26l.23.06h2.03l.23-7.73h6.99l.23-13.54h1.8l.23,6.76.23-6.76h.9l.23,6.76h.68l.23,7.73h9.02l.23,2h3.16l.23-7.73h1.35l.23-7.73h4.74l.22,7.73.23,7.73h1.58l.22-7.73h1.13l.22-7.73h8.12l.23,7.73h5.64l.22-7.73h5.64l.23,7.73h4.74l.22,7.73h6.32l.23-7.73h31.58l.23.85h2.48l.23,7.73h71.29l.23,7.73h10.38l.22-.06h5.19l.22-7.73h21.21l.23,7.73h8.35l.23-7.73h1.13l.23,7.71h2.48l.23-7.73h12.86l.23-7.73h3.16l.23-7.73h12.63l.23.06h9.7l.23-.06h.45l.23.06.23-.06h3.38l.22.06h.68l.23-.06h2.71l.23.06h6.09l.22-7.73h18.05l.22-.06h27.75l.23-7.67.23-7.73h20.53l.23.06h.23l.22-5.99h22.79l.22,7.73.23-7.73.23,7.73h1.8l.23-7.73h26.17l.23-7.73h26.4l.22-1.9h26.17l.22,7.67h15.57l.23,7.73h138.74l.23,7.73h48.28"/>
      </g>
      <g>
        <path class="cls-10" d="m64.78,31.5h676.8v300H64.78V31.5Z"/>
        <path class="cls-12" d="m64.78,164.59l.23-11.97.22,7.56.23-5.56.23,5.41.22,2.74.23.76.23.97.22,3.81h.45l.22,1.93.23,3.9.23-2.99h.22s.23-1.86.23-1.86l.23-5.92.22-2.99.23,6.68.23,5.98.22-2.99h.23l.23-.91.22,1.75.23,2.99h.23l.22-2.99.23,1.1h.23l.22-2.85.23-2.85.23,5.25h.22l.23.91h.23l.22-1.75.23,4.74h.23l.22-.6h.45l.22-2.85.23,3.04h1.13l.23-.81.23-1.75.22-2.17.23-5.98.23-2.99h.22l.23,2.85h.45l.23-2.99h2.03l.23,2.99h.45l.23,2.99h.22l.23-5.98h.9l.22,1.75h.23l.23,4.88h1.13l.23,2.99.22-1.75h.9l.23,1.75h.45l.23,2.99h.68l.22-2.99.23,2.99.23-2.99h.22l.23.02h2.03l.23-1.75h2.03l.22-2.99h3.84l.22-4.19h.68l.23-3.6.23,1.02h.68l.22,2.99h.68l.23,2.35.23-2.32h.9l.23,2.32h.68l.23,1.75h2.71l.22-4.88h2.93l.23,2.89h1.13s.23,0,.23,0h1.58l.23.56h2.48l.23-1.93h.45l.23-1.75h1.35l.23-1.75h.9l.23,2.99h2.48l.23,1.93.23,2.99h.68l.22,1.75.23,1.75h.45l.23-2.99h.9s.22-1.75.22-1.75h.68s.23,0,.23,0h.23l.22-1.75h8.12l.23,1.75h5.64l.22-1.75h2.03l.23,2.99h3.38l.23,2.84h1.13l.23,2.99h3.38l.22,1.75h4.74l.23-2.99h1.35l.23-2.85h7.22l.23,4.45h.68l.22-1.93h8.8l.23,4.82h.45l.23,2.99h7.9l.23,2.99h5.41l.23.29.22-2.99h2.26l.23,2.85h16.47l.23,2.99h7.67l.22-2.99h9.93s.22,0,.22,0h2.26l.23-2.99h4.51l.23-2.99h3.61l.23,2.99h12.86l.23,4.87h10.6l.23-2.99h1.58l.23,2.85h1.58l.22,2.99h7.22s.22,0,.22,0h.9l.23,4.88.22-.02h5.19l.22-2.85h2.48l.22,2.99h4.51l.22,2.99h6.54l.22.02h1.58l.23-2.99h5.19l.23,2.85h8.35l.23-1.75h1.13l.23-2.42h.68s.23,0,.23,0h1.58l.23-2.85h1.8l.23-2.99h4.29s.22,0,.22,0h1.81l.22,3.17h4.29l.23-1.75h.45l.23,4.88h2.26s.23,0,.23,0l.23-2.85h12.63l.23.02h9.7l.23-.02h.45l.23.02.23-.02h3.38l.22.02h.68l.23-.02h.9l.22-4.76h1.58l.23.02h6.09l.22-1.75h18.05l.22-.02h1.13l.22,2.99h26.4l.23-2.8.23-1.75h20.53l.23.02h.23l.22-1.69h13.99l.22-3.7h8.57l.22,2.85.23-2.85.23,2.85h1.8l.23-1.75h13.76l.23-2.99.23,2.99.22-2.99h11.73l.23-1.75h10.15l.22-2.99h6.32l.23,4.88h9.48l.22-.61h26.17l.22,2.81h15.57l.23,1.75h13.09l.22,2.99h32.26l.22-2.99h14.21l.23,2.78h34.07l.22,2.99h38.35l.22-2.99h4.96l.23-4.2h.45l.23,1.75h6.77l.22,2.99h41.28"/>
      </g>
      <g>
        <path class="cls-10" d="m64.78,31.5h676.8v300H64.78V31.5Z"/>
        <path class="cls-14" d="m64.78,137.65l.23.14.22.98.23-1.47.23-3.49.22,4.61.23.49.23,4.28.22,1.76h.23l.23,1.81.22-.33.23,2.46.23-.62h.22l.23.56.23-3.84.22-.47.23,7.81.23,2.76.22-.47.23-1.81.23-.17.22,1.34.23.47h.23l.22-.62.23,1.11h.23l.22-4.67.23-2.85.23,4.84h.22l.23.17h.23l.22-3.56.23,4.18h.23l.22-.57.23,1.81.23-4.38.22-2.85.23-.76.23-1.81h.9l.23-.78.23-1.34.22-1.84.23,1.12.23-.62h.22l.23.48h.23l.22-2.37.23-.62h.9l.22-1.81h.9l.23.47h.45s.23.62.23.62h.22l.23-.95h.23s.22,0,.22,0h.45s.22,1.75.22,1.75h.23l.23,1.07h1.13l.23-1.34.22.06h.23l.23-1.81h.45l.23,1.34h.22l.23,1.76.23,2.29h.68l.22-.48.23.48.23-.48h.22l.23.02h2.03l.23-1.75h.45l.23-1.81h.45l.23.06h.68l.22-.47h1.81l.22-1.81h.23l.23,1.81h.22l.23-1.81h.9l.22,1.54h.68l.23-3.1.23.2h.68l.22.62h.68l.23,2.29.23-2.28h.9l.23,2.28h.68l.23,1.75.22,1.81h.23l.23-1.81h1.35l.22-1.81h.45l.22-1.01h2.93l.23.55h2.93l.23.52h.9l.22-1.81h.68l.23-.06h.45l.23-.35h.45l.23-1.34h1.35l.23-1.75h.9l.23.62h2.48l.23.37.23.47h.68l.22,1.75.23,3.56h.45l.23-.62h.9s.22-1.75.22-1.75h1.13l.22-1.75h8.12l.23,1.75h5.64l.22-1.34h2.03l.23.47h3.38l.23,2.84h1.13l.23.62h2.93l.23-.02h.23l.22,3.71h.45l.22.06h4.06l.23-.47h1.13l.23,1.81.23-2.85h6.09l.22,1.82h.9l.23.91h.68l.22-.37h6.09l.23,2.37h.9l.22.14h1.35l.23-1.37h.45l.23.62h5.19l.23-1.82h1.35l.23-2.36h.9l.23.62h5.41l.23.29.22-.62h2.26l.23,4.67h5.19l.23-1.81h.9l.23,1.81h.9l.22,2.02h1.35l.23,3.42h.45s.23,0,.23,0h3.83l.23,2.37h2.48l.23.47h.9s.22,0,.22,0h2.48l.22-1.82h3.84l.22-.62h9.93s.22,0,.22,0h2.26l.23-.48h.68l.22,1.81h3.61l.23-.47h3.61l.23.48h1.13l.23.78h2.48l.23-2.37h2.93s.22,0,.22,0h4.96l.23,1.81h.45l.23,1.01h5.41l.22-2.37h4.96l.23-.62h1.58l.23,2.85h1.13l.23,1.82h.23l.22.62h7.22s.22,0,.22,0h.9l.23,1.01.22-.02h4.51l.22,2.37h.45l.22-2.85.23-3.84h1.8l.23,1.76h.23l.22.62h4.51l.22.48h6.77s.23,0,.23,0h1.35l.23-.47h2.48l.23,1.81h2.48l.23,2.85h4.06l.22-.77h3.16l.22-3.42h.68l.23-1.34h1.13l.23,1.32h2.48l.23-2.85h1.8l.23-.47h1.8l.23,2.37h4.29l.22.62h4.29l.23-1.34h.45l.23,1.01h.9l.23-1.81h1.13l.23-1.81.23-2.85h12.63l.23.02h9.7l.23-.02h.45l.23.02.23-.02h3.38l.22.02h.68l.23-.02h.9l.22-.98h1.58l.23.02h6.09l.22-1.34h14.66l.22,2.01h3.16l.22-.02h1.13l.22.47h26.4l.23-2.79.23-1.34h20.53l.23.02h.23l.22-1.56h3.16l.22-2.01h10.6l.22-.7h4.96l.23-1.76h3.38l.22,2.85.23-2.85.23,2.85h1.8l.23-1.75h7.44l.22-.66h6.09l.23-.48.23.48.22-.48h11.73l.23-1.75h1.13l.23,1.81h6.54l.23-1.81h2.03l.22-.48h1.35l.23,1.81.23-1.81h2.03l.22,1.81h2.26l.23,1.01h3.16l.23-1.82h6.09l.22-.58h1.13l.22,3.84h11.51l.23,1.81h13.09l.22.98h15.57l.23,1.75h13.09l.22.47h21.66s.23,0,.23,0h10.38l.22-.62h14.21l.23.53h21.21l.22-4.19h12.63l.22.62h20.53l.23-1.81h16.24l.22,1.81.23-2.37h.9l.22-.47h4.96l.23-.83h.45l.23,1.34h2.71s.22,0,.22,0h3.84l.22.47h26.62l.23,2.37h12.41s.23,0,.23,0h1.8"/>
      </g>
      <g>
        <path class="cls-10" d="m64.78,31.5h676.8v300H64.78V31.5Z"/>
        <path class="cls-13" d="m64.78,119.66l.23-4.3.22,11.93.23-.68.23-3.61.22,3.02.23-3.36.23,2.71.22,1.54h.23l.23-1.09.22,3.73.23.78.23-.62h.22l.23.56.23-2.24.22-.39.23,4.63.23,1.12.22-.39.23-.25.23-.17.22,1.34.23.48h.23l.22-2.66.23,1.11h.23l.22-3.06.23-2.85.23,6.12h.22l.23.17h.23l.22-1.96.23,2.58h.23l.22-1.87.23.21.23-.61.22-2.85.23-.76.23-.21.22,1.3h.45l.22-1.3.23-.76.23-1.11.22-3.14.23-.92.23-.62h.22l.23,2.52h.23l.22-.31.23-.62h.9l.22-.21h.9l.23.4h.45l.23.62h.22l.23-.79h.9l.22,1.75h.23l.23,1.02h1.13l.23.19.22-1.54h.23l.23-.21h.45l.23,1.15.22-.04.23.2.23.68.22.04h.45l.22-.47.23.47.23-.47.22-1.3.23.02h2.03l.23-1.75h.45l.23-.21h.68s.22,0,.22,0h.45l.22-.48h1.81l.22-.21h.23l.23.21h.22l.23-.21h.68s.23,0,.23,0l.22-.49h.68l.23-3.09.23.2h.68l.22.62h.23l.23,1.3h.22l.23,2.6.23-2.6.22-1.3.23.33h.45l.23,3.57h.68l.23,3.05.22.21h.23l.23-.21h1.35l.22-.21h.45l.22-1.01h2.93l.23.55h.45l.23-1.3h.68l.22-.04h1.35l.23.52h.9l.22-.25h.68l.23-1.31h.45l.23-.37h.45l.23-1.11h1.35l.23-1.75h.9l.23.62h2.48l.23.37.23.39h.68l.22,1.75.23,1.96h.45l.23-.62.23.04h.68l.22-1.75h1.13l.22-1.79h4.51l.22.04h.9l.23-.04h1.35l.22-.33h.68l.23,1.75h1.8l.23.33h2.26l.22-.33.23.33h.68l.23-.33.22-1.11h2.03l.23,2.77h2.26l.22-.33h.9l.23,2.84h1.13l.23.62h3.16s.23,0,.23,0l.22,1.67h.68s.23,0,.23,0h3.83l.23-.39h1.13l.23.25.23-2.85h6.09l.22.21h.68l.23,1.3.23.9h.68l.22-.37h2.48l.22.33h3.38l.23.33h.9l.22.22h1.35l.23.67h.45l.23.62h5.19l.23-.21h1.35l.23-.33h.9l.23.62h5.41l.23.28.22-.62h2.26l.23,3.06h5.19l.23-.21h.9l.23.21h.9l.22.32h1.35l.23.47h1.58l.22-1.3h2.71l.23.33h2.48l.23.39h3.61l.22-.25h3.84l.22-.62h6.32l.23,1.3h3.38s.22,0,.22,0h.68l.23-1.3h1.35l.23-.4.22,1.3h.45l.22.21h3.61l.23-.4h2.03l.22-1.3h1.35l.23.47h1.13l.23.11h2.48l.23-.33h2.48l.23-1.3h3.16l.23.34h2.03l.23.21h.45l.23,1.01h4.74l.22,1.3h.45l.22-.33h4.96l.23-.96h1.58l.23,2.85h1.13l.23.21h.23l.22.62h7.22s.22,0,.22,0h.9l.23,1.01.22-.02h1.13l.22,1.3h3.16l.22.33h.45l.22-2.85.23-.53h1.35l.23-1.3h.22l.23.2h.23l.22.62h4.51l.22.39h1.35l.23,1.3h.9s.22,0,.22,0h4.06s.23,0,.23,0h1.35l.23-.47h2.48l.23.21.22,1.3h2.26l.23,2.85h2.48s.23,0,.23,0h1.35l.22-.11h3.16l.22-.47h.68l.23-1.11h1.13l.23,1.32h2.48l.23-2.85h1.8l.23-.39h1.8l.23.33h2.26s.22,0,.22,0h1.13l.22,1.3h.45l.22.62h4.29l.23-1.34h.45l.23,1.01h.9l.23-.21h1.13l.23-.21.23-2.85h9.93l.23-1.56h2.48l.23.02h9.7l.23-.02h.45l.23.02.23-.02h3.38l.22.02h.68l.23-.02h.9l.22-.98h1.58l.23.02h6.09l.22-1.11h14.66l.22.28h3.16l.22-.02h1.13l.22.39h21.21l.23-1.3h4.96l.23-2.79.23-1.34h15.79l.23-1.3h4.51l.23.02h.23l.22-1.56h3.16l.22-.28h2.48s.22,0,.22,0h7.9l.22-.7h4.96l.23-.2h3.38l.22,2.85.23-1.55.23,2.85h1.8l.23-1.75h7.44l.22-.09h6.09l.23-.47.23.47.22-.47h11.73l.23-1.75h1.13l.23.21h6.54l.23-.21h2.03l.22-.4h1.35l.23.21.23-.21h2.03l.22.21h2.26l.23,1.01h3.16l.23-.21h6.09l.22-.58h1.13l.22.53h11.51l.23.21h13.09l.22,2.58h15.57l.23,1.75h13.09l.22.4h32.26l.22-.62h14.21l.23.53h10.38l.22,1.3h7.22l.22-1.3h3.16l.22-.54h12.63l.22.62h20.53l.23-.25h8.12l.22-1.3h7.9l.22.21.23-.33h.9l.22-.4h4.96l.23-.83h.45l.23,1.34h6.77l.22.4h6.32l.23,1.3.22,1.3h2.48l.22-1.3h17.15l.23.33h14.44"/>
      </g>
      <g>
        <path class="cls-10" d="m64.78,31.5h676.8v300H64.78V31.5Z"/>
        <path class="cls-15" d="m64.78,112.07l.23-3.9.22,5.39.23.29.23-3.61.22,4.12.23-1,.23,1.66.22,1.54.23-.02.23.09.22,1.41.23,1.74.23-.62.22-1.01.23.56.23-2.21.22-.34.23,4.63.23,1.07.22.67.23-.21.23-.17.22,1.34.23.48h.23l.22-2,.23,1.11h.23l.22-3.06.23-2.85.23,4.97h.22l.23.17h.23l.22-1.96.23,2.58.23-.03.22-.68.23.21.23-.61.22-2.85.23-.76.23-.21.22.11h.45l.22-.13.23-.76.23-1.11.22-1.97.23-.91.23-.62h.22l.23,2.52h.23l.22.84.23-.62h.9l.22-.18h.9l.23.34h.45l.23.62h.22l.23-.74h.9l.22,1.75h.23l.23,1.02h1.13l.23.18.22-1.54h.23l.23-.21h.45l.23,1.12h.22s.23.2.23.2l.23.68h.22s.23,0,.23,0h.23l.22-.47.23.47.23-.47.22-.11.23.02h2.03l.23-1.75h.45l.23-.21h.68s.22,0,.22,0h.45l.22.54h1.81l.22-.21h.23l.23.21h.22l.23-.21.23-1.01h.68l.22-.49h.68l.23-3.09.23.2h.68l.22.62h.23l.23.11h.22l.23,2.31.23-2.3.22-.12.23.03h.45l.23,2.38h.68l.23,1.88.22.18h.23l.23-.18h1.35l.22-1.2h.45l.22-1.01h2.93l.23.55h.45l.23-.12h.9s.23,0,.23,0h1.13l.23.52h.9l.22-.25h.68l.23-.14h.45l.23-.36h.45l.23-.97h1.35l.23-1.75h.9l.23.62h2.48l.23.37.23.39h.68l.22,1.75.23,1.96h.45l.23-.62h.23s.22,0,.22,0h.45l.22-1.75h1.13l.22-1.74h.45l.22-1.17h4.06s.23,0,.23,0h.9s.22,0,.22,0h1.13l.22-.03h.68l.23,1.75h1.8l.23.03h2.26l.22-.03.23.03h.68l.23-.03.22-1.11h2.03l.23.64h2.26l.22-.03h.9l.23,2.84h1.13l.23.62h3.16s.23,0,.23,0l.22,1.67h.68s.23,0,.23,0h3.83l.23-.4h1.13l.23.25.23-2.85h4.51l.23-1.17h1.35l.22.21h.68l.23.13.23.91h.68l.22-.37h2.48l.22.03h3.38l.23.33h.9l.22.23h1.35l.23.67h.45l.23.62h5.19l.23-.21h1.35l.23-.33h.9l.23.62h5.41l.23.28.22-.62h2.26l.23,3.06h5.19l.23-.21h.9l.23.21h.9l.22.35h1.35l.23.47h1.58l.22-.11h2.71l.23.33h2.48l.23.4h3.61l.22-.25h3.84l.22-.62h6.32l.23.11h4.29l.23-.11h1.35l.23-.4.22.12h.45l.22.21h3.61l.23-.4h2.03l.22-.11h1.35l.23.47h1.13l.23.11h2.48l.23-.33h2.03l.23,1.01h.22l.23-.11h3.16l.23.03h2.03l.23.21h.45l.23,1.01h4.74l.22.13h.45l.22-.33h4.96l.23-.65h1.58l.23,2.85h1.13l.23.21h.23l.22.62h7.22s.22,0,.22,0h.9l.23,1.01.22-.02h1.13l.22.11h3.16l.22.33h.45l.22-2.85.23-.53h1.35l.23-.12h.22l.23.18h.23l.22.62h4.51l.22.39h1.35l.23.12h5.19s.23,0,.23,0h1.35l.23.54h2.48l.23.18.22.11h2.26l.23,2.85h4.06l.22-.11h3.16l.22-.47h.68l.23-.97h1.13l.23,1.31h2.48l.23-2.85h1.8l.23-.34h1.8l.23.33h3.61l.22.11h.45l.22-.39h1.81s.22,0,.22,0h2.26l.23-1.34h.45l.23,1.01h.9l.23-.21h1.13l.23-.21.23-2.85h9.93l.23-.16h2.48l.23.02h9.7l.23-.02h.45l.23.02.23-.02h3.38l.22.02h.68l.23-.02h.9l.22-.98h1.58l.23.02h6.09l.22-1.11h14.66l.22.28h3.16l.22-.02h1.13l.22.4h21.21l.23-.11h4.96l.23-2.79.23-1.34h5.87l.23,1.17h9.7l.23-.12h4.51l.23.02h.23l.22-1.56h3.16l.22-.28h10.6l.22-.7h4.96l.23-.18h3.38l.22,2.85.23-2.72.23,2.85h1.8l.23-1.75h7.44l.22-.09h6.09l.23-.47.23.47.22-.47h.9l.23-1.01h4.51l.23-1.01h4.29s.23,0,.23,0h1.35l.23-1.75h1.13l.23.21h6.54l.23.8h2.03l.22-.34h1.35l.23.21.23-.21h2.03l.22.21h2.26l.23,1.01h3.16l.23-.21h6.09l.22-.57h1.13l.22.53h11.51l.23.21h13.09l.22,2.61h15.57l.23,1.75h10.38s.22,0,.22,0h2.48l.22.34h9.48l.23,1.17h22.56l.22-.62h14.21l.23.53h7.22l.23-.02h2.93l.22.11h7.22l.22-.11h3.16l.22-.54h12.63l.22.62h6.09l.23,1.17h14.21l.23-.25h8.12l.22-.12h7.9l.22.21.23-.33h.9l.22-.4h4.96l.23-.82h.45l.23,1.34h2.71s.22,0,.22,0h3.84l.22.4h6.32l.23.11.22.13h2.48l.22-.13h17.15l.23.33h14.44"/>
      </g>
    </g>
  </g>
</svg>