<?xml version="1.0" encoding="UTF-8"?>
<svg id="Layer_1" data-name="Layer 1" xmlns="http://www.w3.org/2000/svg" viewBox="0 0 660 364">
  <defs>
    <style>
      .cls-1 {
        font-size: 13px;
      }

      .cls-1, .cls-2, .cls-3, .cls-4 {
        isolation: isolate;
      }

      .cls-1, .cls-3 {
        font-family: Helvetica-Bold, Helvetica;
        font-weight: 700;
      }

      .cls-5, .cls-6, .cls-7, .cls-8, .cls-9 {
        stroke-width: 1.5px;
      }

      .cls-5, .cls-6, .cls-7, .cls-8, .cls-9, .cls-10, .cls-11, .cls-12, .cls-13, .cls-14, .cls-15, .cls-16, .cls-17 {
        fill: none;
      }

      .cls-5, .cls-6, .cls-7, .cls-8, .cls-9, .cls-11, .cls-12, .cls-13, .cls-14, .cls-15, .cls-16, .cls-17 {
        stroke-miterlimit: 10;
      }

      .cls-5, .cls-11 {
        stroke: #3bd47c;
      }

      .cls-6, .cls-12 {
        stroke: #3c91e6;
      }

      .cls-7, .cls-13 {
        stroke: #0c0a3e;
      }

      .cls-8, .cls-14 {
        stroke: #000;
      }

      .cls-9, .cls-15 {
        stroke: #8a2be2;
      }

      .cls-2 {
        opacity: 0;
      }

      .cls-2, .cls-4 {
        font-family: Helvetica, Helvetica;
        font-size: 10px;
      }

      .cls-10, .cls-18 {
        stroke-width: 0px;
      }

      .cls-3 {
        font-size: 11px;
      }

      .cls-19 {
        letter-spacing: -.05em;
      }

      .cls-11, .cls-12, .cls-13, .cls-14, .cls-15 {
        stroke-width: 2px;
      }

      .cls-16 {
        stroke: #888;
      }

      .cls-17 {
        stroke: #ddd;
      }

      .cls-18 {
        fill: #fff;
      }
    </style>
  </defs>
  <rect class="cls-18" width="660" height="364"/>
  <g>
    <path class="cls-17" d="m47.5,27.5h500v300H47.5V27.5Z"/>
    <g>
      <line class="cls-17" x1="47.5" y1="27.5" x2="47.5" y2="327.5"/>
      <line class="cls-17" x1="114.5" y1="27.5" x2="114.5" y2="327.5"/>
      <line class="cls-17" x1="180.5" y1="27.5" x2="180.5" y2="327.5"/>
      <line class="cls-17" x1="247.5" y1="27.5" x2="247.5" y2="327.5"/>
      <line class="cls-17" x1="314.5" y1="27.5" x2="314.5" y2="327.5"/>
      <line class="cls-17" x1="380.5" y1="27.5" x2="380.5" y2="327.5"/>
      <line class="cls-17" x1="447.5" y1="27.5" x2="447.5" y2="327.5"/>
      <line class="cls-17" x1="514.5" y1="27.5" x2="514.5" y2="327.5"/>
    </g>
    <g pointer-events="none">
      <line class="cls-17" x1="47.5" y1="327.5" x2="547.5" y2="327.5"/>
      <line class="cls-17" x1="47.5" y1="289.5" x2="547.5" y2="289.5"/>
      <line class="cls-17" x1="47.5" y1="252.5" x2="547.5" y2="252.5"/>
      <line class="cls-17" x1="47.5" y1="215.5" x2="547.5" y2="215.5"/>
      <line class="cls-17" x1="47.5" y1="177.5" x2="547.5" y2="177.5"/>
      <line class="cls-17" x1="47.5" y1="140.5" x2="547.5" y2="140.5"/>
      <line class="cls-17" x1="47.5" y1="102.5" x2="547.5" y2="102.5"/>
      <line class="cls-17" x1="47.5" y1="65.5" x2="547.5" y2="65.5"/>
      <line class="cls-17" x1="47.5" y1="27.5" x2="547.5" y2="27.5"/>
    </g>
    <g>
      <g pointer-events="none">
        <line class="cls-16" x1="47.5" y1="327.5" x2="47.5" y2="332.5"/>
        <line class="cls-16" x1="80.5" y1="327.5" x2="80.5" y2="332.5"/>
        <line class="cls-16" x1="114.5" y1="327.5" x2="114.5" y2="332.5"/>
        <line class="cls-16" x1="147.5" y1="327.5" x2="147.5" y2="332.5"/>
        <line class="cls-16" x1="180.5" y1="327.5" x2="180.5" y2="332.5"/>
        <line class="cls-16" x1="214.5" y1="327.5" x2="214.5" y2="332.5"/>
        <line class="cls-16" x1="247.5" y1="327.5" x2="247.5" y2="332.5"/>
        <line class="cls-16" x1="280.5" y1="327.5" x2="280.5" y2="332.5"/>
        <line class="cls-16" x1="314.5" y1="327.5" x2="314.5" y2="332.5"/>
        <line class="cls-16" x1="347.5" y1="327.5" x2="347.5" y2="332.5"/>
        <line class="cls-16" x1="380.5" y1="327.5" x2="380.5" y2="332.5"/>
        <line class="cls-16" x1="414.5" y1="327.5" x2="414.5" y2="332.5"/>
        <line class="cls-16" x1="447.5" y1="327.5" x2="447.5" y2="332.5"/>
        <line class="cls-16" x1="480.5" y1="327.5" x2="480.5" y2="332.5"/>
        <line class="cls-16" x1="514.5" y1="327.5" x2="514.5" y2="332.5"/>
        <line class="cls-16" x1="547.5" y1="327.5" x2="547.5" y2="332.5"/>
      </g>
      <g pointer-events="none">
        <text class="cls-4" transform="translate(47.5 342.5)"><tspan x="0" y="0">0</tspan></text>
        <text class="cls-2" transform="translate(72.49 342.5)"><tspan x="0" y="0">200</tspan></text>
        <text class="cls-4" transform="translate(105.82 342.5)"><tspan x="0" y="0">400</tspan></text>
        <text class="cls-2" transform="translate(139.16 342.5)"><tspan x="0" y="0">600</tspan></text>
        <text class="cls-4" transform="translate(172.49 342.5)"><tspan x="0" y="0">800</tspan></text>
        <text class="cls-2" transform="translate(201.65 342.5)"><tspan x="0" y="0">1,000</tspan></text>
        <text class="cls-4" transform="translate(234.99 342.5)"><tspan x="0" y="0">1,200</tspan></text>
        <text class="cls-2" transform="translate(268.32 342.5)"><tspan x="0" y="0">1,400</tspan></text>
        <text class="cls-4" transform="translate(301.65 342.5)"><tspan x="0" y="0">1,600</tspan></text>
        <text class="cls-2" transform="translate(334.99 342.5)"><tspan x="0" y="0">1,800</tspan></text>
        <text class="cls-4" transform="translate(368.32 342.5)"><tspan x="0" y="0">2,000</tspan></text>
        <text class="cls-2" transform="translate(401.65 342.5)"><tspan x="0" y="0">2,200</tspan></text>
        <text class="cls-4" transform="translate(434.99 342.5)"><tspan x="0" y="0">2,400</tspan></text>
        <text class="cls-2" transform="translate(468.32 342.5)"><tspan x="0" y="0">2,600</tspan></text>
        <text class="cls-4" transform="translate(501.65 342.5)"><tspan x="0" y="0">2,800</tspan></text>
        <text class="cls-2" transform="translate(522.48 342.5)"><tspan x="0" y="0">3,000</tspan></text>
      </g>
      <g pointer-events="none">
        <line class="cls-16" x1="47.5" y1="327.5" x2="547.5" y2="327.5"/>
      </g>
      <g pointer-events="none">
        <text class="cls-3" transform="translate(255.33 357.5)"><tspan x="0" y="0">Model Iterations</tspan></text>
      </g>
    </g>
    <g>
      <g pointer-events="none">
        <line class="cls-16" x1="47.5" y1="327.5" x2="42.5" y2="327.5"/>
        <line class="cls-16" x1="47.5" y1="289.5" x2="42.5" y2="289.5"/>
        <line class="cls-16" x1="47.5" y1="252.5" x2="42.5" y2="252.5"/>
        <line class="cls-16" x1="47.5" y1="215.5" x2="42.5" y2="215.5"/>
        <line class="cls-16" x1="47.5" y1="177.5" x2="42.5" y2="177.5"/>
        <line class="cls-16" x1="47.5" y1="140.5" x2="42.5" y2="140.5"/>
        <line class="cls-16" x1="47.5" y1="102.5" x2="42.5" y2="102.5"/>
        <line class="cls-16" x1="47.5" y1="65.5" x2="42.5" y2="65.5"/>
        <line class="cls-16" x1="47.5" y1="27.5" x2="42.5" y2="27.5"/>
      </g>
      <g pointer-events="none">
        <text class="cls-4" transform="translate(21.04 330.5)"><tspan x="0" y="0">0.60</tspan></text>
        <text class="cls-4" transform="translate(21.04 293)"><tspan x="0" y="0">0.65</tspan></text>
        <text class="cls-4" transform="translate(21.04 255.5)"><tspan x="0" y="0">0.70</tspan></text>
        <text class="cls-4" transform="translate(21.04 218)"><tspan x="0" y="0">0.75</tspan></text>
        <text class="cls-4" transform="translate(21.04 180.5)"><tspan x="0" y="0">0.80</tspan></text>
        <text class="cls-4" transform="translate(21.04 143)"><tspan x="0" y="0">0.85</tspan></text>
        <text class="cls-4" transform="translate(21.04 105.5)"><tspan x="0" y="0">0.90</tspan></text>
        <text class="cls-4" transform="translate(21.04 68)"><tspan x="0" y="0">0.95</tspan></text>
        <text class="cls-4" transform="translate(21.04 30.5)"><tspan x="0" y="0">1.00</tspan></text>
      </g>
      <g pointer-events="none">
        <line class="cls-16" x1="47.5" y1="327.5" x2="47.5" y2="27.5"/>
      </g>
      <g pointer-events="none">
        <text class="cls-3" transform="translate(15.04 283.55) rotate(-90)"><tspan x="0" y="0">Normalized Discounted Cumulative Gain</tspan></text>
      </g>
    </g>
    <g>
      <g>
        <path class="cls-10" d="m47,27h500v300H47V27Z"/>
        <path class="cls-11" d="m47,185.81l.17-29.23.17,15.44.17,13.66.17-17.49.17,19.45.17-3.99.17,7.73.17,7.67h.33l.17,7.73h.5l.17,3.99.17-3.99h.17l.17,11.48h.67l.17,7.73h.83l.17-7.73.17-7.73.17,23.2h.5l.17-7.73.17,7.73h.17l.17-1.88h.33l.17-7.73.17-7.73h.83l.17.24.17-7.73.17-7.73h.5l.17,7.73h3.67l.17,7.73h1.33l.17-7.73h.67l.17,7.73h1.67l.17.06h1.5l.17-7.73h5.17l.17-13.54h1.33l.17,6.76.17-6.76h.67l.17,6.76h.5l.17,7.73h6.67l.17,2h2.33l.17-7.73h1l.17-7.73h3.5l.17,7.73.17,7.73h1.17l.17-7.73h.83l.17-7.73h6l.17,7.73h4.17l.17-7.73h4.17l.17,7.73h3.5l.17,7.73h4.67l.17-7.73h23.33l.17.85h1.83l.17,7.73h52.67l.17,7.73h7.67l.17-.06h3.83l.17-7.73h15.67l.17,7.73h6.17l.17-7.73h.83l.17,7.71h1.83l.17-7.73h9.5l.17-7.73h2.33l.17-7.73h9.33l.17.06h7.17l.17-.06h.33l.17.06.17-.06h2.5l.17.06h.5l.17-.06h2l.17.06h4.5l.17-7.73h13.33l.17-.06h20.5l.17-7.67.17-7.73h15.17l.17.06h.17l.17-5.99h16.83l.17,7.73.17-7.73.17,7.73h1.33l.17-7.73h19.33l.17-7.73h19.5l.17-1.9h19.33l.17,7.67h11.5l.17,7.73h102.5l.17,7.73h35.67"/>
      </g>
      <g>
        <path class="cls-10" d="m47,27h500v300H47V27Z"/>
        <path class="cls-12" d="m47,160.09l.17-11.97.17,7.56.17-5.56.17,5.41.17,2.74.17.76.17.97.17,3.81h.33l.17,1.93.17,3.9.17-2.99h.17s.17-1.86.17-1.86l.17-5.92.17-2.99.17,6.68.17,5.98.17-2.99h.17l.17-.91.17,1.75.17,2.99h.17l.17-2.99.17,1.1h.17l.17-2.85.17-2.85.17,5.25h.17l.17.91h.17l.17-1.75.17,4.74h.17l.17-.6h.33l.17-2.85.17,3.04h.83l.17-.81.17-1.75.17-2.17.17-5.98.17-2.99h.17l.17,2.85h.33l.17-2.99h1.5l.17,2.99h.33l.17,2.99h.17l.17-5.98h.67l.17,1.75h.17l.17,4.88h.83l.17,2.99.17-1.75h.67l.17,1.75h.33l.17,2.99h.5l.17-2.99.17,2.99.17-2.99h.17l.17.02h1.5l.17-1.75h1.5l.17-2.99h2.83l.17-4.19h.5l.17-3.6.17,1.02h.5l.17,2.99h.5l.17,2.35.17-2.32h.67l.17,2.32h.5l.17,1.75h2l.17-4.88h2.17l.17,2.89h.83s.17,0,.17,0h1.17l.17.56h1.83l.17-1.93h.33l.17-1.75h1l.17-1.75h.67l.17,2.99h1.83l.17,1.93.17,2.99h.5l.17,1.75.17,1.75h.33l.17-2.99h.67s.17-1.75.17-1.75h.5s.17,0,.17,0h.17l.17-1.75h6l.17,1.75h4.17l.17-1.75h1.5l.17,2.99h2.5l.17,2.84h.83l.17,2.99h2.5l.17,1.75h3.5l.17-2.99h1l.17-2.85h5.33l.17,4.45h.5l.17-1.93h6.5l.17,4.82h.33l.17,2.99h5.83l.17,2.99h4l.17.29.17-2.99h1.67l.17,2.85h12.17l.17,2.99h5.67l.17-2.99h7.33s.17,0,.17,0h1.67l.17-2.99h3.33l.17-2.99h2.67l.17,2.99h9.5l.17,4.87h7.83l.17-2.99h1.17l.17,2.85h1.17l.17,2.99h5.33s.17,0,.17,0h.67l.17,4.88.17-.02h3.83l.17-2.85h1.83l.17,2.99h3.33l.17,2.99h4.83l.17.02h1.17l.17-2.99h3.83l.17,2.85h6.17l.17-1.75h.83l.17-2.42h.5s.17,0,.17,0h1.17l.17-2.85h1.33l.17-2.99h3.17s.17,0,.17,0h1.33l.17,3.17h3.17l.17-1.75h.33l.17,4.88h1.67s.17,0,.17,0l.17-2.85h9.33l.17.02h7.17l.17-.02h.33l.17.02.17-.02h2.5l.17.02h.5l.17-.02h.67l.17-4.76h1.17l.17.02h4.5l.17-1.75h13.33l.17-.02h.83l.17,2.99h19.5l.17-2.8.17-1.75h15.17l.17.02h.17l.17-1.69h10.33l.17-3.7h6.33l.17,2.85.17-2.85.17,2.85h1.33l.17-1.75h10.17l.17-2.99.17,2.99.17-2.99h8.67l.17-1.75h7.5l.17-2.99h4.67l.17,4.88h7l.17-.61h19.33l.17,2.81h11.5l.17,1.75h9.67l.17,2.99h23.83l.17-2.99h10.5l.17,2.78h25.17l.17,2.99h28.33l.17-2.99h3.67l.17-4.2h.33l.17,1.75h5l.17,2.99h30.5"/>
      </g>
      <g>
        <path class="cls-10" d="m47,27h500v300H47V27Z"/>
        <path class="cls-14" d="m47,133.15l.17.14.17.98.17-1.47.17-3.49.17,4.61.17.49.17,4.28.17,1.76h.17l.17,1.81.17-.33.17,2.46.17-.62h.17l.17.56.17-3.84.17-.47.17,7.81.17,2.76.17-.47.17-1.81.17-.17.17,1.34.17.47h.17l.17-.62.17,1.11h.17l.17-4.67.17-2.85.17,4.84h.17l.17.17h.17l.17-3.56.17,4.18h.17l.17-.57.17,1.81.17-4.38.17-2.85.17-.76.17-1.81h.67l.17-.78.17-1.34.17-1.84.17,1.12.17-.62h.17l.17.48h.17l.17-2.37.17-.62h.67l.17-1.81h.67l.17.47h.33s.17.62.17.62h.17l.17-.95h.17s.17,0,.17,0h.33s.17,1.75.17,1.75h.17l.17,1.07h.83l.17-1.34.17.06h.17l.17-1.81h.33l.17,1.34h.17l.17,1.76.17,2.29h.5l.17-.48.17.48.17-.48h.17l.17.02h1.5l.17-1.75h.33l.17-1.81h.33l.17.06h.5l.17-.47h1.33l.17-1.81h.17l.17,1.81h.17l.17-1.81h.67l.17,1.54h.5l.17-3.1.17.2h.5l.17.62h.5l.17,2.29.17-2.28h.67l.17,2.28h.5l.17,1.75.17,1.81h.17l.17-1.81h1l.17-1.81h.33l.17-1.01h2.17l.17.55h2.17l.17.52h.67l.17-1.81h.5l.17-.06h.33l.17-.35h.33l.17-1.34h1l.17-1.75h.67l.17.62h1.83l.17.37.17.47h.5l.17,1.75.17,3.56h.33l.17-.62h.67s.17-1.75.17-1.75h.83l.17-1.75h6l.17,1.75h4.17l.17-1.34h1.5l.17.47h2.5l.17,2.84h.83l.17.62h2.17l.17-.02h.17l.17,3.71h.33l.17.06h3l.17-.47h.83l.17,1.81.17-2.85h4.5l.17,1.82h.67l.17.91h.5l.17-.37h4.5l.17,2.37h.67l.17.14h1l.17-1.37h.33l.17.62h3.83l.17-1.82h1l.17-2.36h.67l.17.62h4l.17.29.17-.62h1.67l.17,4.67h3.83l.17-1.81h.67l.17,1.81h.67l.17,2.02h1l.17,3.42h.33s.17,0,.17,0h2.83l.17,2.37h1.83l.17.47h.67s.17,0,.17,0h1.83l.17-1.82h2.83l.17-.62h7.33s.17,0,.17,0h1.67l.17-.48h.5l.17,1.81h2.67l.17-.47h2.67l.17.48h.83l.17.78h1.83l.17-2.37h2.17s.17,0,.17,0h3.67l.17,1.81h.33l.17,1.01h4l.17-2.37h3.67l.17-.62h1.17l.17,2.85h.83l.17,1.82h.17l.17.62h5.33s.17,0,.17,0h.67l.17,1.01.17-.02h3.33l.17,2.37h.33l.17-2.85.17-3.84h1.33l.17,1.76h.17l.17.62h3.33l.17.48h5s.17,0,.17,0h1l.17-.47h1.83l.17,1.81h1.83l.17,2.85h3l.17-.77h2.33l.17-3.42h.5l.17-1.34h.83l.17,1.32h1.83l.17-2.85h1.33l.17-.47h1.33l.17,2.37h3.17l.17.62h3.17l.17-1.34h.33l.17,1.01h.67l.17-1.81h.83l.17-1.81.17-2.85h9.33l.17.02h7.17l.17-.02h.33l.17.02.17-.02h2.5l.17.02h.5l.17-.02h.67l.17-.98h1.17l.17.02h4.5l.17-1.34h10.83l.17,2.01h2.33l.17-.02h.83l.17.47h19.5l.17-2.79.17-1.34h15.17l.17.02h.17l.17-1.56h2.33l.17-2.01h7.83l.17-.7h3.67l.17-1.76h2.5l.17,2.85.17-2.85.17,2.85h1.33l.17-1.75h5.5l.17-.66h4.5l.17-.48.17.48.17-.48h8.67l.17-1.75h.83l.17,1.81h4.83l.17-1.81h1.5l.17-.48h1l.17,1.81.17-1.81h1.5l.17,1.81h1.67l.17,1.01h2.33l.17-1.82h4.5l.17-.58h.83l.17,3.84h8.5l.17,1.81h9.67l.17.98h11.5l.17,1.75h9.67l.17.47h16s.17,0,.17,0h7.67l.17-.62h10.5l.17.53h15.67l.17-4.19h9.33l.17.62h15.17l.17-1.81h12l.17,1.81.17-2.37h.67l.17-.47h3.67l.17-.83h.33l.17,1.34h2s.17,0,.17,0h2.83l.17.47h19.67l.17,2.37h9.17s.17,0,.17,0h1.33"/>
      </g>
      <g>
        <path class="cls-10" d="m47,27h500v300H47V27Z"/>
        <path class="cls-13" d="m47,115.16l.17-4.3.17,11.93.17-.68.17-3.61.17,3.02.17-3.36.17,2.71.17,1.54h.17l.17-1.09.17,3.73.17.78.17-.62h.17l.17.56.17-2.24.17-.39.17,4.63.17,1.12.17-.39.17-.25.17-.17.17,1.34.17.48h.17l.17-2.66.17,1.11h.17l.17-3.06.17-2.85.17,6.12h.17l.17.17h.17l.17-1.96.17,2.58h.17l.17-1.87.17.21.17-.61.17-2.85.17-.76.17-.21.17,1.3h.33l.17-1.3.17-.76.17-1.11.17-3.14.17-.92.17-.62h.17l.17,2.52h.17l.17-.31.17-.62h.67l.17-.21h.67l.17.4h.33l.17.62h.17l.17-.79h.67l.17,1.75h.17l.17,1.02h.83l.17.19.17-1.54h.17l.17-.21h.33l.17,1.15.17-.04.17.2.17.68.17.04h.33l.17-.47.17.47.17-.47.17-1.3.17.02h1.5l.17-1.75h.33l.17-.21h.5s.17,0,.17,0h.33l.17-.48h1.33l.17-.21h.17l.17.21h.17l.17-.21h.5s.17,0,.17,0l.17-.49h.5l.17-3.09.17.2h.5l.17.62h.17l.17,1.3h.17l.17,2.6.17-2.6.17-1.3.17.33h.33l.17,3.57h.5l.17,3.05.17.21h.17l.17-.21h1l.17-.21h.33l.17-1.01h2.17l.17.55h.33l.17-1.3h.5l.17-.04h1l.17.52h.67l.17-.25h.5l.17-1.31h.33l.17-.37h.33l.17-1.11h1l.17-1.75h.67l.17.62h1.83l.17.37.17.39h.5l.17,1.75.17,1.96h.33l.17-.62.17.04h.5l.17-1.75h.83l.17-1.79h3.33l.17.04h.67l.17-.04h1l.17-.33h.5l.17,1.75h1.33l.17.33h1.67l.17-.33.17.33h.5l.17-.33.17-1.11h1.5l.17,2.77h1.67l.17-.33h.67l.17,2.84h.83l.17.62h2.33s.17,0,.17,0l.17,1.67h.5s.17,0,.17,0h2.83l.17-.39h.83l.17.25.17-2.85h4.5l.17.21h.5l.17,1.3.17.9h.5l.17-.37h1.83l.17.33h2.5l.17.33h.67l.17.22h1l.17.67h.33l.17.62h3.83l.17-.21h1l.17-.33h.67l.17.62h4l.17.28.17-.62h1.67l.17,3.06h3.83l.17-.21h.67l.17.21h.67l.17.32h1l.17.47h1.17l.17-1.3h2l.17.33h1.83l.17.39h2.67l.17-.25h2.83l.17-.62h4.67l.17,1.3h2.5s.17,0,.17,0h.5l.17-1.3h1l.17-.4.17,1.3h.33l.17.21h2.67l.17-.4h1.5l.17-1.3h1l.17.47h.83l.17.11h1.83l.17-.33h1.83l.17-1.3h2.33l.17.34h1.5l.17.21h.33l.17,1.01h3.5l.17,1.3h.33l.17-.33h3.67l.17-.96h1.17l.17,2.85h.83l.17.21h.17l.17.62h5.33s.17,0,.17,0h.67l.17,1.01.17-.02h.83l.17,1.3h2.33l.17.33h.33l.17-2.85.17-.53h1l.17-1.3h.17l.17.2h.17l.17.62h3.33l.17.39h1l.17,1.3h.67s.17,0,.17,0h3s.17,0,.17,0h1l.17-.47h1.83l.17.21.17,1.3h1.67l.17,2.85h1.83s.17,0,.17,0h1l.17-.11h2.33l.17-.47h.5l.17-1.11h.83l.17,1.32h1.83l.17-2.85h1.33l.17-.39h1.33l.17.33h1.67s.17,0,.17,0h.83l.17,1.3h.33l.17.62h3.17l.17-1.34h.33l.17,1.01h.67l.17-.21h.83l.17-.21.17-2.85h7.33l.17-1.56h1.83l.17.02h7.17l.17-.02h.33l.17.02.17-.02h2.5l.17.02h.5l.17-.02h.67l.17-.98h1.17l.17.02h4.5l.17-1.11h10.83l.17.28h2.33l.17-.02h.83l.17.39h15.67l.17-1.3h3.67l.17-2.79.17-1.34h11.67l.17-1.3h3.33l.17.02h.17l.17-1.56h2.33l.17-.28h1.83s.17,0,.17,0h5.83l.17-.7h3.67l.17-.2h2.5l.17,2.85.17-1.55.17,2.85h1.33l.17-1.75h5.5l.17-.09h4.5l.17-.47.17.47.17-.47h8.67l.17-1.75h.83l.17.21h4.83l.17-.21h1.5l.17-.4h1l.17.21.17-.21h1.5l.17.21h1.67l.17,1.01h2.33l.17-.21h4.5l.17-.58h.83l.17.53h8.5l.17.21h9.67l.17,2.58h11.5l.17,1.75h9.67l.17.4h23.83l.17-.62h10.5l.17.53h7.67l.17,1.3h5.33l.17-1.3h2.33l.17-.54h9.33l.17.62h15.17l.17-.25h6l.17-1.3h5.83l.17.21.17-.33h.67l.17-.4h3.67l.17-.83h.33l.17,1.34h5l.17.4h4.67l.17,1.3.17,1.3h1.83l.17-1.3h12.67l.17.33h10.67"/>
      </g>
      <g>
        <path class="cls-10" d="m47,27h500v300H47V27Z"/>
        <path class="cls-15" d="m47,107.57l.17-3.9.17,5.39.17.29.17-3.61.17,4.12.17-1,.17,1.66.17,1.54.17-.02.17.09.17,1.41.17,1.74.17-.62.17-1.01.17.56.17-2.21.17-.34.17,4.63.17,1.07.17.67.17-.21.17-.17.17,1.34.17.48h.17l.17-2,.17,1.11h.17l.17-3.06.17-2.85.17,4.97h.17l.17.17h.17l.17-1.96.17,2.58.17-.03.17-.68.17.21.17-.61.17-2.85.17-.76.17-.21.17.11h.33l.17-.13.17-.76.17-1.11.17-1.97.17-.91.17-.62h.17l.17,2.52h.17l.17.84.17-.62h.67l.17-.18h.67l.17.34h.33l.17.62h.17l.17-.74h.67l.17,1.75h.17l.17,1.02h.83l.17.18.17-1.54h.17l.17-.21h.33l.17,1.12h.17s.17.2.17.2l.17.68h.17s.17,0,.17,0h.17l.17-.47.17.47.17-.47.17-.11.17.02h1.5l.17-1.75h.33l.17-.21h.5s.17,0,.17,0h.33l.17.54h1.33l.17-.21h.17l.17.21h.17l.17-.21.17-1.01h.5l.17-.49h.5l.17-3.09.17.2h.5l.17.62h.17l.17.11h.17l.17,2.31.17-2.3.17-.12.17.03h.33l.17,2.38h.5l.17,1.88.17.18h.17l.17-.18h1l.17-1.2h.33l.17-1.01h2.17l.17.55h.33l.17-.12h.67s.17,0,.17,0h.83l.17.52h.67l.17-.25h.5l.17-.14h.33l.17-.36h.33l.17-.97h1l.17-1.75h.67l.17.62h1.83l.17.37.17.39h.5l.17,1.75.17,1.96h.33l.17-.62h.17s.17,0,.17,0h.33l.17-1.75h.83l.17-1.74h.33l.17-1.17h3s.17,0,.17,0h.67s.17,0,.17,0h.83l.17-.03h.5l.17,1.75h1.33l.17.03h1.67l.17-.03.17.03h.5l.17-.03.17-1.11h1.5l.17.64h1.67l.17-.03h.67l.17,2.84h.83l.17.62h2.33s.17,0,.17,0l.17,1.67h.5s.17,0,.17,0h2.83l.17-.4h.83l.17.25.17-2.85h3.33l.17-1.17h1l.17.21h.5l.17.13.17.91h.5l.17-.37h1.83l.17.03h2.5l.17.33h.67l.17.23h1l.17.67h.33l.17.62h3.83l.17-.21h1l.17-.33h.67l.17.62h4l.17.28.17-.62h1.67l.17,3.06h3.83l.17-.21h.67l.17.21h.67l.17.35h1l.17.47h1.17l.17-.11h2l.17.33h1.83l.17.4h2.67l.17-.25h2.83l.17-.62h4.67l.17.11h3.17l.17-.11h1l.17-.4.17.12h.33l.17.21h2.67l.17-.4h1.5l.17-.11h1l.17.47h.83l.17.11h1.83l.17-.33h1.5l.17,1.01h.17l.17-.11h2.33l.17.03h1.5l.17.21h.33l.17,1.01h3.5l.17.13h.33l.17-.33h3.67l.17-.65h1.17l.17,2.85h.83l.17.21h.17l.17.62h5.33s.17,0,.17,0h.67l.17,1.01.17-.02h.83l.17.11h2.33l.17.33h.33l.17-2.85.17-.53h1l.17-.12h.17l.17.18h.17l.17.62h3.33l.17.39h1l.17.12h3.83s.17,0,.17,0h1l.17.54h1.83l.17.18.17.11h1.67l.17,2.85h3l.17-.11h2.33l.17-.47h.5l.17-.97h.83l.17,1.31h1.83l.17-2.85h1.33l.17-.34h1.33l.17.33h2.67l.17.11h.33l.17-.39h1.33s.17,0,.17,0h1.67l.17-1.34h.33l.17,1.01h.67l.17-.21h.83l.17-.21.17-2.85h7.33l.17-.16h1.83l.17.02h7.17l.17-.02h.33l.17.02.17-.02h2.5l.17.02h.5l.17-.02h.67l.17-.98h1.17l.17.02h4.5l.17-1.11h10.83l.17.28h2.33l.17-.02h.83l.17.4h15.67l.17-.11h3.67l.17-2.79.17-1.34h4.33l.17,1.17h7.17l.17-.12h3.33l.17.02h.17l.17-1.56h2.33l.17-.28h7.83l.17-.7h3.67l.17-.18h2.5l.17,2.85.17-2.72.17,2.85h1.33l.17-1.75h5.5l.17-.09h4.5l.17-.47.17.47.17-.47h.67l.17-1.01h3.33l.17-1.01h3.17s.17,0,.17,0h1l.17-1.75h.83l.17.21h4.83l.17.8h1.5l.17-.34h1l.17.21.17-.21h1.5l.17.21h1.67l.17,1.01h2.33l.17-.21h4.5l.17-.57h.83l.17.53h8.5l.17.21h9.67l.17,2.61h11.5l.17,1.75h7.67s.17,0,.17,0h1.83l.17.34h7l.17,1.17h16.67l.17-.62h10.5l.17.53h5.33l.17-.02h2.17l.17.11h5.33l.17-.11h2.33l.17-.54h9.33l.17.62h4.5l.17,1.17h10.5l.17-.25h6l.17-.12h5.83l.17.21.17-.33h.67l.17-.4h3.67l.17-.82h.33l.17,1.34h2s.17,0,.17,0h2.83l.17.4h4.67l.17.11.17.13h1.83l.17-.13h12.67l.17.33h10.67"/>
      </g>
    </g>
    <g>
      <path class="cls-10" d="m567,27h88v79h-88V27Z" pointer-events="none"/>
      <g>
        <g>
          <g>
            <path class="cls-10" d="m567,43h21.56v11h-21.56v-11Z" pointer-events="none"/>
            <g>
              <g pointer-events="none">
                <path class="cls-5" d="m568,49h10"/>
              </g>
              <g pointer-events="none">
                <text class="cls-4" transform="translate(583 52)"><tspan x="0" y="0">1</tspan></text>
              </g>
            </g>
          </g>
          <g>
            <path class="cls-10" d="m567,56h21.56v11h-21.56v-11Z" pointer-events="none"/>
            <g>
              <g pointer-events="none">
                <path class="cls-6" d="m568,62h10"/>
              </g>
              <g pointer-events="none">
                <text class="cls-4" transform="translate(583 65)"><tspan x="0" y="0">2</tspan></text>
              </g>
            </g>
          </g>
          <g>
            <path class="cls-10" d="m567,69h21.56v11h-21.56v-11Z" pointer-events="none"/>
            <g>
              <g pointer-events="none">
                <path class="cls-8" d="m568,75h10"/>
              </g>
              <g pointer-events="none">
                <text class="cls-4" transform="translate(583 78)"><tspan x="0" y="0">3</tspan></text>
              </g>
            </g>
          </g>
          <g>
            <path class="cls-10" d="m567,82h21.56v11h-21.56v-11Z" pointer-events="none"/>
            <g>
              <g pointer-events="none">
                <path class="cls-7" d="m568,88h10"/>
              </g>
              <g pointer-events="none">
                <text class="cls-4" transform="translate(583 91)"><tspan x="0" y="0">4</tspan></text>
              </g>
            </g>
          </g>
          <g>
            <path class="cls-10" d="m567,95h21.56v11h-21.56v-11Z" pointer-events="none"/>
            <g>
              <g pointer-events="none">
                <path class="cls-9" d="m568,101h10"/>
              </g>
              <g pointer-events="none">
                <text class="cls-4" transform="translate(583 104)"><tspan x="0" y="0">5</tspan></text>
              </g>
            </g>
          </g>
        </g>
        <g pointer-events="none">
          <text class="cls-3" transform="translate(567 36)"><tspan class="cls-19" x="0" y="0">T</tspan><tspan x="6.12" y="0">runcation Level</tspan></text>
        </g>
      </g>
    </g>
    <g pointer-events="none">
      <text class="cls-1" transform="translate(210.32 15)"><tspan x="0" y="0">LambdaRank Model Results</tspan></text>
    </g>
  </g>
</svg>